<svg width="120" height="48" viewBox="0 0 120 48" fill="none" xmlns="http://www.w3.org/2000/svg">
<path d="M108.418 19.0522C113.612 19.0522 117.959 21.5965 118.135 26.4024C118.171 27.6392 118.135 28.6994 118.135 29.7595C118.135 34.318 113.612 37.1097 108.418 37.1097C106.933 37.1097 105.626 36.7916 104.53 36.2969V41.7389C104.53 43.6471 103.753 44.6365 101.456 44.6365C99.7246 44.6365 98.5938 43.8945 98.5938 42.2689V21.8792C98.5938 20.077 100.043 19.2643 101.562 19.2643C102.552 19.2643 103.47 19.5116 104 20.3597C105.202 19.6176 106.651 19.0522 108.418 19.0522ZM104.601 29.8302C104.601 31.7737 106.262 32.9045 108.418 32.9045C110.467 32.9045 111.951 31.7737 112.128 29.8302C112.269 28.5934 112.234 27.4272 112.128 26.1904C111.987 24.2468 110.502 23.3281 108.418 23.3281C106.333 23.3281 104.884 24.4589 104.601 26.2964C104.53 29.2648 104.566 29.5475 104.601 29.8302Z" fill="url(#paint0_linear_20054_17026)"/>
<path d="M71.5801 28.6993V12.7268C71.5801 10.9246 73.0996 10.1118 74.6898 10.1118C76.3506 10.1118 77.6935 10.9599 77.6935 12.7268V28.6993C77.6935 31.491 79.637 32.6924 82.7467 32.6924C85.7504 32.6924 87.5879 31.491 87.5879 28.6993V12.7268C87.5879 10.9246 89.1074 10.1118 90.6976 10.1118C92.1818 10.1118 93.7013 10.9599 93.7013 12.7268V28.6993C93.7013 34.848 88.7187 37.0743 82.7467 37.0743C76.5273 37.0743 71.5801 34.848 71.5801 28.6993Z" fill="url(#paint1_linear_20054_17026)"/>
<path d="M49.0575 22.3388C48.5627 21.208 48.8808 19.7945 50.683 19.1584C52.2378 18.593 53.7573 19.1584 54.4287 20.6426L58.7399 30.2897C60.0474 27.18 61.8849 23.1515 63.2278 20.1125C63.5458 19.4411 64.6059 18.5223 66.5495 19.0877C68.1397 19.5471 68.9524 20.9959 68.3164 22.3741L62.5917 34.7422C62.203 35.661 60.8955 37.0745 58.7399 37.0745C56.3016 37.0745 55.2415 35.6256 54.8175 34.7422L49.0575 22.3388Z" fill="#F8FAFC"/>
<path d="M33.7924 29.936C33.8278 31.9503 35.63 33.1164 38.563 33.1164C40.4359 33.1164 42.2027 32.3743 43.2629 32.021C44.429 31.6322 45.6658 31.5262 46.3726 32.657C46.938 33.5405 46.8673 34.7419 45.7011 35.4133C44.3583 36.2968 41.6727 37.1095 38.4216 37.1095C32.0962 37.1095 28.1384 34.1412 27.8557 29.7947C27.7851 28.5579 27.7851 27.3918 27.8557 26.1903C27.9264 22.3385 31.9902 18.9814 37.7856 18.9814C42.9802 18.9814 47.3267 22.0558 47.3267 26.1549C47.3267 29.4413 44.9944 29.936 42.6268 29.936H33.7924ZM40.6126 26.1549C41.4253 26.1549 41.6727 26.1196 41.6727 25.6956C41.6727 24.2114 39.9765 23.0452 37.7502 23.0452C35.63 23.0452 33.7924 24.0347 33.7924 25.5895V26.1549H40.6126Z" fill="#F8FAFC"/>
<path d="M5.4772 10.1118H12.6507C18.8348 10.1118 23.464 12.4794 23.464 18.4515V28.5226C23.464 34.636 18.7287 36.8976 12.6507 36.8976H5.44187C3.63966 36.8976 2.68555 35.9081 2.68555 34.3533V12.5148C2.68555 11.2073 3.81634 10.1118 5.4772 10.1118ZM8.79892 14.4583V32.4804H12.6507C15.6544 32.4804 17.3506 31.2436 17.3506 28.5226V18.4515C17.3506 15.7305 15.6544 14.4583 12.6507 14.4583H8.79892Z" fill="#F8FAFC"/>
<defs>
<linearGradient id="paint0_linear_20054_17026" x1="59.9994" y1="0.999977" x2="59.9994" y2="47" gradientUnits="userSpaceOnUse">
<stop stop-color="#48DFB7"/>
<stop offset="1" stop-color="#00D7A0"/>
</linearGradient>
<linearGradient id="paint1_linear_20054_17026" x1="60.0003" y1="0.999918" x2="60.0003" y2="46.9999" gradientUnits="userSpaceOnUse">
<stop stop-color="#48DFB7"/>
<stop offset="1" stop-color="#00D7A0"/>
</linearGradient>
</defs>
</svg>
