<svg width="24" height="24" viewBox="0 0 24 24" fill="none" xmlns="http://www.w3.org/2000/svg">
<path d="M18.0008 8C18.0008 11.0902 18.7803 13.206 19.6511 14.6054C20.3856 15.7859 20.7529 16.3761 20.7394 16.5408C20.7245 16.7231 20.6859 16.7926 20.539 16.9016C20.4063 17 19.8082 17 18.6119 17H5.38961C4.19334 17 3.59521 17 3.46253 16.9016C3.31561 16.7926 3.27699 16.7231 3.26208 16.5408C3.24861 16.3761 3.61588 15.7859 4.35042 14.6054C5.22122 13.206 6.00075 11.0902 6.00075 8C6.00075 6.4087 6.63289 4.88258 7.75811 3.75736C8.88333 2.63214 10.4095 2 12.0008 2M9.35493 21C10.0601 21.6224 10.9863 22 12.0008 22C13.0152 22 13.9414 21.6224 14.6466 21" stroke="#94A3B8" stroke-width="2" stroke-linecap="round" stroke-linejoin="round"/>
<circle cx="17" cy="3" r="3" fill="#00D7A0"/>
</svg>
