<svg width="20" height="20" viewBox="0 0 20 20" fill="none" xmlns="http://www.w3.org/2000/svg">
<path d="M14.9993 6.66675C14.9993 9.2419 15.6489 11.005 16.3746 12.1713C16.9867 13.155 17.2928 13.6468 17.2816 13.784C17.2691 13.936 17.2369 13.9939 17.1145 14.0847C17.0039 14.1667 16.5055 14.1667 15.5086 14.1667H4.49004C3.49315 14.1667 2.99471 14.1667 2.88414 14.0847C2.76171 13.9939 2.72952 13.936 2.71709 13.784C2.70587 13.6468 3.01193 13.155 3.62404 12.1713C4.34972 11.005 4.99932 9.2419 4.99932 6.66675C4.99932 5.34067 5.52611 4.0689 6.46379 3.13121C7.40147 2.19353 8.67324 1.66675 9.99932 1.66675M7.79447 17.5001C8.38208 18.0187 9.15395 18.3334 9.99932 18.3334C10.8447 18.3334 11.6166 18.0187 12.2042 17.5001" stroke="#94A3B8" stroke-width="2" stroke-linecap="round" stroke-linejoin="round"/>
<circle cx="14.166" cy="2.5" r="2.5" fill="#00D7A0"/>
</svg>
