<svg width="20" height="20" viewBox="0 0 20 20" fill="none" xmlns="http://www.w3.org/2000/svg">
<path d="M11.6534 16.8749C11.9985 16.5704 12.5256 16.6032 12.8302 16.9482C13.1347 17.2932 13.102 17.8204 12.7569 18.1249C12.023 18.7727 11.0567 19.1665 10.0006 19.1666C8.94455 19.1666 7.97824 18.7727 7.24425 18.1249C6.8992 17.8204 6.86646 17.2932 7.17101 16.9482C7.47557 16.6034 8.00199 16.5706 8.34696 16.8749C8.78817 17.2643 9.366 17.4999 10.0006 17.4999C10.6351 17.4999 11.2123 17.2642 11.6534 16.8749ZM14.1673 6.66659C14.1673 5.56156 13.7279 4.50201 12.9466 3.72062C12.1652 2.93926 11.1056 2.49997 10.0006 2.49992C8.89553 2.49992 7.83523 2.93922 7.05382 3.72062C6.27262 4.50199 5.83393 5.56166 5.83393 6.66659C5.83393 9.38967 5.14433 11.3067 4.33247 12.6114C4.1554 12.896 4.00815 13.134 3.88732 13.3316C4.05924 13.3326 4.25922 13.3333 4.49116 13.3333H15.51C15.7416 13.3333 15.9413 13.3326 16.1131 13.3316C15.9922 13.134 15.845 12.8959 15.6679 12.6114C14.8561 11.3067 14.1673 9.38962 14.1673 6.66659ZM15.8339 6.66659C15.8339 9.0938 16.4436 10.7032 17.0831 11.7309C17.3855 12.2169 17.6242 12.6008 17.7846 12.8792C17.8641 13.0171 17.9369 13.1501 17.9905 13.2681C18.0172 13.327 18.0469 13.399 18.0703 13.4773C18.0897 13.5425 18.1272 13.6821 18.1134 13.8516C18.1041 13.9656 18.0803 14.1607 17.9685 14.3619C17.8568 14.563 17.7039 14.686 17.6121 14.7542C17.4006 14.911 17.1571 14.9447 17.0807 14.956C16.9579 14.9742 16.8184 14.9839 16.6778 14.9893C16.3946 15.0004 16.0005 14.9999 15.51 14.9999H4.49116C4.00059 14.9999 3.60671 15.0004 3.32336 14.9893C3.18273 14.9839 3.04336 14.9742 2.92052 14.956C2.84455 14.9447 2.60091 14.9111 2.38911 14.7542C2.29724 14.686 2.14364 14.5631 2.03185 14.3619C1.92006 14.1607 1.89713 13.9656 1.88781 13.8516C1.87397 13.6821 1.91071 13.5425 1.93013 13.4773C1.9535 13.3989 1.98397 13.327 2.01069 13.2681C2.06429 13.1501 2.13633 13.017 2.21577 12.8792C2.37618 12.6008 2.6149 12.2168 2.91727 11.7309C3.51675 10.7675 4.09053 9.29288 4.15994 7.11255L4.16727 6.66659C4.16727 5.11949 4.78148 3.63538 5.87544 2.54142C6.96939 1.44752 8.45355 0.833252 10.0006 0.833252C11.5475 0.833302 13.0311 1.4477 14.125 2.54142C15.2189 3.63539 15.8339 5.11949 15.8339 6.66659Z" fill="#94A3B8"/>
</svg>
