<svg width="18" height="18" viewBox="0 0 18 18" fill="none" xmlns="http://www.w3.org/2000/svg">
<path d="M4.49965 7.275C3.69202 8.19276 3.184 9.33532 3.04361 10.5498C2.90321 11.7642 3.13714 12.9925 3.71408 14.0703C4.29102 15.1482 5.18343 16.024 6.27186 16.5807C7.36029 17.1374 8.59279 17.3483 9.80438 17.1852C11.016 17.0221 12.1488 16.4927 13.0513 15.6681C13.9538 14.8434 14.5828 13.7627 14.8542 12.5707C15.1256 11.3787 15.0264 10.1322 14.5698 8.99815C14.1133 7.86407 13.3212 6.89652 12.2997 6.225C12.0997 8.075 10.9997 9.25 8.99965 9.75C10.4997 6.75 9.99965 3.75 7.49965 0.75C7.49965 3.25 6.49965 5.425 4.49965 7.275Z" stroke="#58677D" stroke-width="1.5" stroke-linecap="round" stroke-linejoin="round"/>
</svg>
