<svg width="22" height="16" viewBox="0 0 22 16" fill="none" xmlns="http://www.w3.org/2000/svg">
<path d="M10.8436 0C13.7052 0 16.0389 1.26435 17.7675 2.70703C19.4936 4.14772 20.6766 5.81435 21.2694 6.75293C21.3744 6.91914 21.517 7.13119 21.6063 7.42285L21.6415 7.55273L21.6766 7.76953C21.7 7.99531 21.6882 8.24338 21.6415 8.44727C21.5589 8.80738 21.3894 9.05712 21.2694 9.24707C20.6766 10.1857 19.4936 11.8523 17.7675 13.293C16.0389 14.7356 13.7052 16 10.8436 16C7.98225 15.9999 5.64927 14.7355 3.92077 13.293C2.19452 11.8522 1.01059 10.1856 0.417845 9.24707C0.297889 9.05715 0.129344 8.80721 0.0467508 8.44727C-0.0155836 8.17531 -0.0155836 7.82469 0.0467508 7.55273C0.129344 7.19279 0.29789 6.94285 0.417845 6.75293C1.01059 5.81437 2.19452 4.14778 3.92077 2.70703C5.64927 1.26446 7.98225 0.000118845 10.8436 0ZM10.8436 2C8.60047 2.00012 6.70587 2.98803 5.20202 4.24316C3.6961 5.50011 2.64195 6.97689 2.10925 7.82031C2.07391 7.87627 2.04886 7.91617 2.0282 7.9502C2.01459 7.9726 2.00587 7.98824 1.99988 7.99902V8C2.00587 8.01081 2.01428 8.02687 2.0282 8.0498C2.04886 8.08383 2.07391 8.12373 2.10925 8.17969C2.64195 9.02311 3.6961 10.4999 5.20202 11.7568C6.70587 13.012 8.60047 13.9999 10.8436 14C13.087 14 14.9823 13.012 16.4862 11.7568C17.9921 10.4999 19.0463 9.02308 19.579 8.17969C19.6143 8.12376 19.6384 8.08381 19.6591 8.0498C19.6729 8.02695 19.6814 8.01085 19.6874 8C19.6814 7.98915 19.6729 7.97305 19.6591 7.9502C19.6384 7.91619 19.6143 7.87624 19.579 7.82031C19.0463 6.97692 17.9921 5.50013 16.4862 4.24316C14.9823 2.98796 13.087 2 10.8436 2ZM12.8436 8C12.8436 6.89543 11.9482 6 10.8436 6C9.73924 6.00022 8.84363 6.89557 8.84363 8C8.84363 9.10443 9.73924 9.99978 10.8436 10C11.9482 10 12.8436 9.10457 12.8436 8ZM2.00085 8.02441V8.02246L1.99988 8.02051C1.99999 8.02217 2.00076 8.02345 2.00085 8.02441ZM14.8436 8C14.8436 10.2091 13.0528 12 10.8436 12C8.63467 11.9998 6.84363 10.209 6.84363 8C6.84363 5.791 8.63467 4.00022 10.8436 4C13.0528 4 14.8436 5.79086 14.8436 8Z" fill="#94A3B8"/>
</svg>
