<svg width="18" height="18" viewBox="0 0 18 18" fill="none" xmlns="http://www.w3.org/2000/svg">
<g clip-path="url(#clip0_19910_58407)">
<path fill-rule="evenodd" clip-rule="evenodd" d="M9.74191 0.181173C9.51723 0.0649223 9.26844 0.0029089 9.01547 9.98863e-05C8.76251 -0.00270913 8.5124 0.0537643 8.28519 0.164997C8.05798 0.276229 7.85997 0.439128 7.70703 0.640645C7.5541 0.842162 7.45048 1.0767 7.40449 1.32546C7.21224 2.35141 7.21093 3.40403 7.40063 4.43046C6.51841 4.90166 5.70866 5.49749 4.99634 6.1996C4.2082 6.97103 4.37791 8.2876 5.37177 8.81089C5.88606 9.08089 6.40677 9.2956 6.94934 9.46017L0.3292 16.0803C0.118296 16.2914 -0.000120467 16.5776 9.19648e-08 16.876C0.000120651 17.1744 0.118769 17.4605 0.329843 17.6714C0.540918 17.8823 0.827128 18.0007 1.12551 18.0006C1.4239 18.0005 1.71001 17.8818 1.92091 17.6707L8.53977 11.0519C8.70434 11.5919 8.92077 12.1173 9.18906 12.6282C9.30858 12.8563 9.48053 13.0528 9.69077 13.2015C9.90101 13.3503 10.1435 13.447 10.3984 13.4838C10.6533 13.5206 10.9133 13.4963 11.157 13.4131C11.4007 13.3298 11.6212 13.1899 11.8003 13.0049C12.503 12.2923 13.0993 11.4821 13.5708 10.5993C14.5967 10.7893 15.6489 10.7884 16.6745 10.5967C16.9232 10.5507 17.1578 10.4471 17.3593 10.2942C17.5608 10.1413 17.7237 9.94325 17.8349 9.71604C17.9462 9.48883 18.0027 9.23872 17.9998 8.98576C17.997 8.73279 17.935 8.484 17.8188 8.25932C17.352 7.3534 16.7532 6.52189 16.0419 5.79203C16.5343 4.86728 16.8591 3.86262 17.0011 2.8246C17.0354 2.57713 17.012 2.32507 16.9325 2.0882C16.853 1.85133 16.7197 1.63611 16.5431 1.45944C16.3664 1.28278 16.1512 1.14948 15.9143 1.07001C15.6774 0.990547 15.4254 0.967081 15.1779 1.00146C14.1392 1.14234 13.1336 1.46621 12.2079 1.95803C11.4784 1.24689 10.6474 0.648068 9.74191 0.181173ZM8.98334 1.61989L8.9872 1.61089L8.98977 1.60832H8.99877L9.00906 1.61217C9.93726 2.09388 10.773 2.7359 11.4776 3.5086C11.6033 3.64346 11.7716 3.73099 11.9542 3.75651C12.1368 3.78202 12.3226 3.74398 12.4805 3.64874C13.4371 3.07274 14.3679 2.73203 15.3939 2.59446H15.4029L15.4068 2.59574L15.4081 2.5996V2.6086C15.2692 3.63203 14.9285 4.56289 14.3512 5.51946C14.2561 5.67747 14.2183 5.86337 14.244 6.04597C14.2698 6.22857 14.3576 6.39676 14.4926 6.52232C15.2653 7.22697 15.9074 8.06269 16.3891 8.99089L16.3929 9.00117V9.01146L16.3903 9.01403L16.3813 9.0166C15.3721 9.20303 14.3949 9.16832 13.3213 8.90346C13.1404 8.85904 12.9497 8.87887 12.7818 8.95954C12.6138 9.04022 12.4792 9.17674 12.4008 9.34574C11.9701 10.2859 11.3783 11.1435 10.6522 11.8799L10.6368 11.8927H10.6201L10.6188 11.8915L10.6162 11.8889L10.6111 11.8799C10.1341 10.974 9.84872 9.97968 9.77277 8.95874C9.75705 8.76951 9.67482 8.59197 9.54067 8.45758C9.40652 8.3232 9.22912 8.24066 9.03992 8.2246C8.01519 8.14885 7.01717 7.86214 6.10849 7.38246L6.10591 7.37474V7.36446C6.10591 7.36189 6.1102 7.35632 6.11877 7.34774C6.85511 6.62164 7.71274 6.02987 8.65292 5.59917C8.82192 5.52079 8.95844 5.38611 9.03911 5.21819C9.11979 5.05027 9.13962 4.85953 9.0952 4.6786C8.83034 3.60503 8.79563 2.62789 8.98334 1.6186" fill="#58677D"/>
</g>
<defs>
<clipPath id="clip0_19910_58407">
<rect width="18" height="18" fill="white"/>
</clipPath>
</defs>
</svg>
