<svg width="232" height="255" viewBox="0 0 232 255" fill="none" xmlns="http://www.w3.org/2000/svg">
<path fill-rule="evenodd" clip-rule="evenodd" d="M190.256 69.3262C192.873 69.3263 195.162 70.9914 196.006 73.4043H261.518C265.63 73.4045 269.1 76.4678 269.61 80.5488L270.868 90.6084C270.918 91.0051 270.731 91.3765 270.419 91.584C273.106 92.9181 274.954 95.69 274.954 98.8936V109.875C276.878 112.552 278.012 115.837 278.012 119.388V218.172C278.012 218.397 277.938 218.604 277.814 218.772L278.38 224.802C279.277 234.37 271.749 242.635 262.14 242.636H60.6592L60.2607 242.631C51.9231 242.43 45.0494 235.952 44.3965 227.595L36.751 129.725C36.4051 125.295 37.8569 121.167 40.4717 118.025V96.8545C40.4717 93.4764 43.2108 90.7375 46.5889 90.7373H49.6494C49.6494 90.7158 49.649 90.6937 49.6504 90.6719L50.252 81.0508C50.5211 76.7529 54.0852 73.4044 58.3916 73.4043H138.562C139.55 70.9711 141.92 69.3262 144.604 69.3262H190.256ZM53.0127 114.182C44.6921 114.182 38.1354 121.271 38.7832 129.566L46.4297 227.437C47.0103 234.865 53.2079 240.597 60.6592 240.597H262.14C270.548 240.596 277.135 233.364 276.351 224.992L267.175 127.122C266.487 119.788 260.331 114.182 252.965 114.182H53.0127ZM58.3916 75.4434C55.1617 75.4434 52.4888 77.9552 52.2871 81.1787L51.6895 90.7373H110.613C112.999 90.7376 115.167 92.1249 116.167 94.291L123.976 111.21C124.119 111.521 124.092 111.866 123.934 112.143H252.965L253.358 112.147C261.601 112.344 268.431 118.681 269.205 126.932L275.973 199.123V119.388C275.972 111.467 269.529 105.061 261.608 105.109C235.751 105.267 202.583 105.425 175.526 105.452C161.999 105.466 149.995 105.446 141.195 105.378C136.796 105.344 133.193 105.297 130.6 105.236C129.304 105.206 128.254 105.172 127.479 105.134C127.093 105.115 126.768 105.094 126.512 105.071C126.281 105.051 126.036 105.024 125.854 104.978C125.309 104.837 124.982 104.28 125.122 103.735C125.263 103.191 125.819 102.862 126.364 103.003C126.374 103.004 126.464 103.02 126.689 103.04C126.909 103.059 127.206 103.078 127.58 103.097C128.328 103.134 129.358 103.168 130.647 103.198C133.225 103.259 136.815 103.305 141.211 103.339C150.001 103.407 161.998 103.427 175.524 103.413C184.404 103.404 193.942 103.378 203.664 103.346C203.574 103.123 203.562 102.868 203.649 102.624L207.169 92.7725H116.935C116.372 92.7725 115.915 92.3157 115.915 91.7529C115.915 91.1899 116.372 90.7334 116.935 90.7334H133.247C133.247 90.4987 133.328 90.2636 133.489 90.0742C133.494 90.066 133.503 90.0526 133.514 90.0332C133.549 89.9671 133.598 89.8645 133.66 89.7197C133.783 89.4306 133.936 89.0268 134.112 88.5195C134.465 87.5075 134.895 86.1386 135.366 84.5684C136.189 81.8226 137.124 78.4916 137.957 75.4434H58.3916ZM46.5889 92.7764C44.3369 92.7766 42.5107 94.6025 42.5107 96.8545V115.974C45.2347 113.678 48.7266 112.251 52.5684 112.148L53.0127 112.143H122.166C122.151 112.117 122.137 112.091 122.124 112.063L114.315 95.1455C113.649 93.7015 112.204 92.7766 110.613 92.7764H46.5889ZM259.255 93.0879L262.661 102.624C262.718 102.782 262.731 102.946 262.71 103.102C266.653 103.343 270.22 104.985 272.915 107.539V98.8936C272.915 95.5157 270.177 92.777 266.799 92.7764H259.137C259.178 92.8788 259.217 92.9832 259.255 93.0879ZM212.955 89.7139C211.438 89.7139 210.085 90.6674 209.575 92.0957L205.57 103.31C205.567 103.32 205.561 103.329 205.558 103.339C224.509 103.273 244.039 103.176 260.657 103.075L257.335 93.7734C256.466 91.3392 254.159 89.7142 251.574 89.7139H212.955ZM199.492 90.5352C199.505 90.6015 199.512 90.6682 199.513 90.7334H207.948C208.902 88.8743 210.825 87.6748 212.955 87.6748H251.574C254.099 87.675 256.424 88.8388 257.942 90.7373H266.799C267.516 90.7374 268.212 90.83 268.874 91.0039C268.861 90.9578 268.851 90.9101 268.845 90.8613L267.587 80.8018C267.204 77.7411 264.602 75.4436 261.518 75.4434H196.475L199.492 90.5352ZM144.604 71.3652C142.581 71.3653 140.808 72.7301 140.276 74.6904C139.361 78.0688 138.268 81.99 137.319 85.1533C136.846 86.7331 136.405 88.1354 136.038 89.1895C135.855 89.7146 135.685 90.1683 135.535 90.5195C135.504 90.5929 135.472 90.6648 135.44 90.7334H197.453L194.23 74.624C193.851 72.7297 192.188 71.3654 190.256 71.3652H144.604Z" fill="#004D39"/>
<path fill-rule="evenodd" clip-rule="evenodd" d="M16.8623 157C18.3734 162.639 24.5709 168.71 29.2705 169.97C24.5709 171.229 18.1216 178.619 16.8623 183.318C15.603 178.619 9.53216 171.481 3.89258 169.97C8.59221 168.71 15.3512 162.64 16.8623 157ZM16.8281 161.637C15.7438 163.4 14.3567 165.054 12.8789 166.48C11.4958 167.815 9.95671 169.021 8.40332 169.971C10.2292 171.112 11.9376 172.598 13.3975 174.169C14.7282 175.601 15.9286 177.185 16.873 178.769C17.8437 177.153 19.0709 175.535 20.3857 174.089C21.7463 172.593 23.3147 171.151 24.9385 170.037C23.3859 169.067 21.8728 167.819 20.5264 166.441C19.1336 165.016 17.8436 163.376 16.8281 161.637Z" fill="#004D39"/>
<path fill-rule="evenodd" clip-rule="evenodd" d="M204.146 50.6035C204.953 53.6141 208.262 56.8551 210.771 57.5273C208.262 58.1995 204.819 62.1435 204.146 64.6523C203.474 62.1436 200.233 58.334 197.223 57.5273C199.731 56.8551 203.34 53.6141 204.146 50.6035ZM204.128 53.0791C203.549 54.0201 202.808 54.9028 202.02 55.6641C201.281 56.3768 200.459 57.0202 199.63 57.5273C200.605 58.1368 201.517 58.9299 202.297 59.7686C203.007 60.5327 203.647 61.3787 204.151 62.2236C204.67 61.3613 205.326 60.4984 206.027 59.7266C206.754 58.9278 207.591 58.158 208.458 57.5635C207.629 57.0455 206.821 56.3792 206.103 55.6436C205.359 54.8827 204.67 54.0073 204.128 53.0791Z" fill="#004D39"/>
</svg>
