<svg width="16" height="16" viewBox="0 0 16 16" fill="none" xmlns="http://www.w3.org/2000/svg">
<g clip-path="url(#clip0_19971_63651)">
<path d="M14.9993 4.75966C14.9992 4.49061 14.9426 4.25289 14.8282 4.04889C14.7158 3.84822 14.5474 3.68011 14.3217 3.54711C12.4579 2.45433 10.5922 1.36489 8.72909 0.270998C8.22679 -0.0238357 7.73974 -0.0131135 7.24116 0.285998C6.49932 0.730887 2.78516 2.89466 1.6784 3.5465C1.22263 3.81483 1.00082 4.22544 1.00071 4.75916C1 6.95683 1.00071 9.15439 1 11.3521C1.00011 11.6152 1.0543 11.8483 1.16368 12.0493C1.27612 12.256 1.4468 12.4288 1.6778 12.5648C2.78462 13.2166 6.49927 15.3802 7.24094 15.8252C7.73974 16.1245 8.22679 16.1352 8.72926 15.8402C10.5925 14.7463 12.4582 13.6569 14.3223 12.5641C14.5533 12.4282 14.7239 12.2553 14.8364 12.0488C14.9456 11.8478 14.9999 11.6147 15 11.3515C15 11.3515 15 6.95739 14.9993 4.75966Z" fill="#A9B9CB"/>
<path d="M8.71646 0.285111C8.21498 -0.00899996 7.72875 0.00172228 7.23098 0.300056C6.49035 0.743778 2.78227 2.90194 1.6773 3.55211C1.22225 3.81972 1.00082 4.22928 1.00071 4.76161C1 6.95356 1.00071 9.14544 1 11.3374C1.00011 11.5999 1.0542 11.8324 1.16341 12.0328C1.27568 12.239 1.44609 12.4113 1.6767 12.5469C2.04391 12.7626 2.41139 12.9778 2.77915 13.1925L13.0107 2.7985C11.5791 1.96106 10.1471 1.12428 8.71646 0.285111Z" fill="#7F8B99"/>
<path d="M9.44605 7.0538L11.6247 7.06942C11.6247 6.14725 10.7059 3.88892 8.07154 3.88892C6.39313 3.88892 4.13672 4.97292 4.13672 8.08947C4.13672 11.206 6.34866 12.2222 8.07154 12.2222C10.8615 12.2222 11.5283 10.261 11.5283 9.15269L9.44983 9.03197C9.44983 9.03197 9.50545 10.3139 8.06044 10.3139C6.72661 10.3139 6.50403 8.65403 6.50403 8.08947C6.50403 7.2313 6.80443 5.85369 8.06044 5.85369C9.3165 5.85369 9.44605 7.0538 9.44605 7.0538Z" fill="white"/>
</g>
<defs>
<clipPath id="clip0_19971_63651">
<rect width="16" height="16" fill="white"/>
</clipPath>
</defs>
</svg>
