<svg width="16" height="16" viewBox="0 0 16 16" fill="none" xmlns="http://www.w3.org/2000/svg">
<path d="M14.9993 4.69944C14.9992 4.43072 14.9426 4.19322 14.8281 3.98939C14.7158 3.78894 14.5474 3.62094 14.3217 3.48811C12.4579 2.39639 10.5922 1.308 8.72909 0.215167C8.22679 -0.0794441 7.7398 -0.0687219 7.24116 0.230167C6.49932 0.674611 2.78522 2.83628 1.6784 3.4875C1.22263 3.75556 1.00082 4.16578 1.00071 4.69889C1 6.8945 1.00071 9.09 1 11.2856C1 11.5484 1.0543 11.7813 1.16368 11.9821C1.27612 12.1886 1.4468 12.3612 1.6778 12.4971C2.78467 13.1483 6.49927 15.3098 7.24094 15.7543C7.73974 16.0533 8.22679 16.0641 8.72926 15.7693C10.5925 14.6764 12.4582 13.5881 14.3223 12.4964C14.5533 12.3606 14.7239 12.1879 14.8364 11.9816C14.9456 11.7808 15 11.5479 15 11.2849C15 11.2849 15 6.89506 14.9993 4.69944Z" fill="#649AD2"/>
<path d="M8.02187 7.97095L1.16406 11.9822C1.27655 12.1887 1.44723 12.3613 1.67823 12.4971C2.78511 13.1483 6.4997 15.3099 7.24138 15.7544C7.74018 16.0534 8.22723 16.0641 8.7297 15.7694C10.5929 14.6765 12.4586 13.5882 14.3227 12.4964C14.5537 12.3607 14.7244 12.1879 14.8368 11.9816L8.02187 7.97095Z" fill="#004482"/>
<path d="M5.99023 9.15911C6.38929 9.86678 7.13944 10.3441 8 10.3441C8.86587 10.3441 9.62028 9.86078 10.0173 9.14545L8.02144 7.97095L5.99023 9.15911Z" fill="#1A4674"/>
<path d="M14.9993 4.69931C14.9992 4.43059 14.9426 4.19309 14.8282 3.98926L8.02148 7.97076L14.8364 11.9814C14.9456 11.7806 14.9999 11.5478 15 11.2848C15 11.2848 15 6.89492 14.9993 4.69931Z" fill="#01589C"/>
<path d="M14.6253 8.25757H14.0928V8.79868H13.5601V8.25757H13.0276V7.71668H13.5601V7.17568H14.0928V7.71668H14.6253V8.25757ZM8.00077 3.26929C9.70346 3.26929 11.1922 4.19929 12.0022 5.58645L12.0265 5.62862L10.003 6.81234C9.60202 6.11184 8.8558 5.64045 8.00077 5.64045C6.72217 5.64045 5.68568 6.6934 5.68568 7.99223C5.68525 8.40161 5.79053 8.80394 5.991 9.15907C6.39005 9.86673 7.1402 10.3441 8.00077 10.3441C8.85712 10.3441 9.60448 9.87129 10.0049 9.1689L10.0181 9.1454L12.0386 10.3346C11.2374 11.7567 9.72927 12.7152 8.00077 12.7152C6.27543 12.7152 4.76961 11.7605 3.96734 10.3426C3.57567 9.65045 3.35156 8.84795 3.35156 7.99223C3.35156 5.3839 5.43302 3.26929 8.00077 3.26929ZM12.1496 7.17562V7.71662H12.6821V8.25757H12.1496V8.79868H11.6171V8.25757H11.0845V7.71668H11.6171V7.17568L12.1496 7.17562Z" fill="white"/>
</svg>
