<svg width="16" height="16" viewBox="0 0 16 16" fill="none" xmlns="http://www.w3.org/2000/svg">
<g clip-path="url(#clip0_19964_59644)">
<path d="M8.00065 0.666748C6.99385 0.666748 5.99691 0.86114 5.06674 1.23882C4.13658 1.61651 3.29141 2.17009 2.5795 2.86796C1.14172 4.27737 0.333984 6.18894 0.333984 8.18215C0.333984 11.504 2.53432 14.3222 5.57798 15.3218C5.96132 15.3819 6.08398 15.1489 6.08398 14.946V13.6759C3.96032 14.1268 3.50798 12.6688 3.50798 12.6688C3.15532 11.7971 2.65698 11.5641 2.65698 11.5641C1.95932 11.0981 2.71065 11.1132 2.71065 11.1132C3.47732 11.1658 3.88365 11.8872 3.88365 11.8872C4.55065 13.0296 5.67765 12.6914 6.11465 12.511C6.18365 12.0225 6.38298 11.6918 6.59765 11.504C4.89565 11.3161 3.10932 10.6697 3.10932 7.80638C3.10932 6.97217 3.40065 6.3033 3.89898 5.7697C3.82232 5.58182 3.55398 4.80022 3.97565 3.78564C3.97565 3.78564 4.61965 3.58272 6.08398 4.55221C6.68965 4.38687 7.34898 4.3042 8.00065 4.3042C8.65232 4.3042 9.31165 4.38687 9.91732 4.55221C11.3817 3.58272 12.0257 3.78564 12.0257 3.78564C12.4473 4.80022 12.179 5.58182 12.1023 5.7697C12.6007 6.3033 12.892 6.97217 12.892 7.80638C12.892 10.6773 11.098 11.3086 9.38832 11.4964C9.66432 11.7294 9.91732 12.1879 9.91732 12.8868V14.946C9.91732 15.1489 10.04 15.3894 10.431 15.3218C13.4747 14.3147 15.6673 11.504 15.6673 8.18215C15.6673 7.19521 15.469 6.21794 15.0837 5.30613C14.6984 4.39432 14.1337 3.56583 13.4218 2.86796C12.7099 2.17009 11.8647 1.61651 10.9346 1.23882C10.0044 0.86114 9.00745 0.666748 8.00065 0.666748Z" fill="black"/>
</g>
<defs>
<clipPath id="clip0_19964_59644">
<rect width="16" height="16" fill="white"/>
</clipPath>
</defs>
</svg>
