<svg width="16" height="16" viewBox="0 0 16 16" fill="none" xmlns="http://www.w3.org/2000/svg">
<g clip-path="url(#clip0_19766_55590)">
<path d="M12.25 0H3.75C1.67893 0 0 1.67893 0 3.75V12.25C0 14.3211 1.67893 16 3.75 16H12.25C14.3211 16 16 14.3211 16 12.25V3.75C16 1.67893 14.3211 0 12.25 0Z" fill="#00B4E0"/>
<path d="M2.53125 7.07715C2.50625 7.07715 2.5 7.06465 2.5125 7.0459L2.64375 6.87715C2.65625 6.8584 2.6875 6.8459 2.7125 6.8459H4.94375C4.96875 6.8459 4.975 6.86465 4.9625 6.8834L4.85625 7.0459C4.84375 7.06465 4.8125 7.0834 4.79375 7.0834L2.53125 7.07715ZM1.5875 7.65215C1.5625 7.65215 1.55625 7.63965 1.56875 7.6209L1.7 7.45215C1.7125 7.4334 1.74375 7.4209 1.76875 7.4209H4.61875C4.64375 7.4209 4.65625 7.43965 4.65 7.4584L4.6 7.6084C4.59375 7.6334 4.56875 7.6459 4.54375 7.6459L1.5875 7.65215ZM3.1 8.22715C3.075 8.22715 3.06875 8.2084 3.08125 8.18965L3.16875 8.0334C3.18125 8.01465 3.20625 7.9959 3.23125 7.9959H4.48125C4.50625 7.9959 4.51875 8.01465 4.51875 8.03965L4.50625 8.18965C4.50625 8.21465 4.48125 8.23339 4.4625 8.23339L3.1 8.22715ZM9.5875 6.96465C9.19375 7.06465 8.925 7.13965 8.5375 7.23965C8.44375 7.26465 8.4375 7.2709 8.35625 7.17715C8.2625 7.0709 8.19375 7.00215 8.0625 6.93965C7.66875 6.7459 7.2875 6.80215 6.93125 7.0334C6.50625 7.3084 6.2875 7.71464 6.29375 8.2209C6.3 8.7209 6.64375 9.13339 7.1375 9.20214C7.5625 9.25839 7.91875 9.1084 8.2 8.78965C8.25625 8.7209 8.30625 8.6459 8.36875 8.5584H7.1625C7.03125 8.5584 7 8.47715 7.04375 8.3709C7.125 8.17715 7.275 7.85214 7.3625 7.68965C7.38125 7.65215 7.425 7.58965 7.51875 7.58965H9.79375C9.78125 7.7584 9.78125 7.92715 9.75625 8.0959C9.6875 8.5459 9.51875 8.9584 9.24375 9.3209C8.79375 9.91465 8.20625 10.2834 7.4625 10.3834C6.85 10.4646 6.28125 10.3459 5.78125 9.9709C5.31875 9.6209 5.05625 9.1584 4.9875 8.5834C4.90625 7.90215 5.10625 7.28965 5.51875 6.75215C5.9625 6.1709 6.55 5.80215 7.26875 5.6709C7.85625 5.56465 8.41875 5.6334 8.925 5.97715C9.25625 6.1959 9.49375 6.4959 9.65 6.8584C9.6875 6.91465 9.6625 6.9459 9.5875 6.96465Z" fill="white"/>
<path d="M11.6553 10.4209C11.0866 10.4084 10.5678 10.2459 10.1303 9.87088C9.76155 9.55213 9.5303 9.14588 9.4553 8.66463C9.3428 7.95838 9.53655 7.33338 9.96155 6.77713C10.4178 6.17713 10.9678 5.86463 11.7116 5.73338C12.3491 5.62088 12.9491 5.68338 13.4928 6.05213C13.9866 6.38963 14.2928 6.84588 14.3741 7.44588C14.4803 8.28963 14.2366 8.97713 13.6553 9.56463C13.2428 9.98338 12.7366 10.2459 12.1553 10.3646C11.9866 10.3959 11.8178 10.4021 11.6553 10.4209ZM13.1428 7.89588C13.1366 7.81463 13.1366 7.75213 13.1241 7.68963C13.0116 7.07088 12.4428 6.72088 11.8491 6.85838C11.2678 6.98963 10.8928 7.35838 10.7553 7.94588C10.6428 8.43338 10.8803 8.92713 11.3303 9.12713C11.6741 9.27713 12.0178 9.25838 12.3491 9.08963C12.8428 8.83338 13.1116 8.43338 13.1428 7.89588Z" fill="white"/>
</g>
<defs>
<clipPath id="clip0_19766_55590">
<rect width="16" height="16" fill="white"/>
</clipPath>
</defs>
</svg>
