<svg width="16" height="16" viewBox="0 0 16 16" fill="none" xmlns="http://www.w3.org/2000/svg">
<g clip-path="url(#clip0_19971_63655)">
<path d="M12.25 0H3.75C1.67893 0 0 1.67893 0 3.75V12.25C0 14.3211 1.67893 16 3.75 16H12.25C14.3211 16 16 14.3211 16 12.25V3.75C16 1.67893 14.3211 0 12.25 0Z" fill="#F4F2ED"/>
<path d="M2.99219 11.012L3.45106 11.277L8.56312 2.4229L8.10425 2.15796L2.99219 11.012Z" fill="#E535AB"/>
<path d="M13.1108 10.3047H2.88672V10.8346H13.1108V10.3047Z" fill="#E535AB"/>
<path d="M3.08789 10.6024L8.20183 13.5551L8.46677 13.0962L3.35283 10.1436L3.08789 10.6024ZM7.53039 2.90712L12.6443 5.85974L12.9093 5.40087L7.79533 2.44824L7.53039 2.90712Z" fill="#E535AB"/>
<path d="M3.08984 5.39867L3.35484 5.85754L8.46878 2.90492L8.20384 2.44604L3.08984 5.39867Z" fill="#E535AB"/>
<path d="M7.43802 2.4229L12.5501 11.2769L13.009 11.012L7.89689 2.15796L7.43802 2.4229ZM3.82089 5.04727H3.29102V10.9525H3.82089V5.04727Z" fill="#E535AB"/>
<path d="M12.7076 5.04736H12.1777V10.9526H12.7076V5.04736Z" fill="#E535AB"/>
<path d="M7.88086 12.9298L8.1123 13.3306L12.56 10.7626L12.3286 10.3618L7.88086 12.9298Z" fill="#E535AB"/>
<path d="M13.4104 11.125C13.104 11.6581 12.4209 11.84 11.8878 11.5336C11.3548 11.2271 11.1728 10.5441 11.4793 10.011C11.7857 9.47794 12.4688 9.29594 13.0019 9.60238C13.5381 9.912 13.7201 10.5919 13.4104 11.125ZM4.51744 5.989C4.211 6.52206 3.52788 6.70406 2.99482 6.39762C2.46175 6.09119 2.27982 5.40806 2.58625 4.875C2.89269 4.34188 3.57575 4.16 4.10888 4.46644C4.64194 4.77606 4.82388 5.45594 4.51744 5.989ZM2.58944 11.125C2.283 10.5919 2.46494 9.912 2.998 9.60238C3.53113 9.29594 4.211 9.47787 4.52063 10.011C4.82707 10.5441 4.64513 11.2239 4.11207 11.5336C3.57582 11.84 2.89588 11.6581 2.58944 11.125ZM11.4824 5.989C11.176 5.45594 11.3579 4.77606 11.891 4.46644C12.4241 4.16 13.104 4.34194 13.4136 4.875C13.7201 5.40812 13.5381 6.088 13.005 6.39762C12.4719 6.70406 11.7889 6.52206 11.4824 5.989ZM7.99994 14.25C7.38388 14.25 6.88594 13.7521 6.88594 13.136C6.88594 12.5199 7.38388 12.0219 7.99994 12.0219C8.616 12.0219 9.11394 12.5199 9.11394 13.136C9.11394 13.7489 8.616 14.25 7.99994 14.25ZM7.99994 3.97806C7.38388 3.97806 6.88594 3.48006 6.88594 2.864C6.88594 2.24794 7.38388 1.75 7.99994 1.75C8.616 1.75 9.11394 2.24794 9.11394 2.864C9.11394 3.48006 8.616 3.97806 7.99994 3.97806Z" fill="#E535AB"/>
</g>
<defs>
<clipPath id="clip0_19971_63655">
<rect width="16" height="16" fill="white"/>
</clipPath>
</defs>
</svg>
