<svg width="16" height="16" viewBox="0 0 16 16" fill="none" xmlns="http://www.w3.org/2000/svg">
<path d="M9.1705 1.125C9.07325 1.125 8.98294 1.14637 8.89956 1.17494C9.07675 1.29612 9.174 1.45656 9.22262 1.63838C9.22612 1.66331 9.23306 1.68113 9.2365 1.70606C9.24 1.7275 9.2435 1.74887 9.2435 1.77025C9.25737 2.084 9.16356 2.12319 9.09756 2.30856C8.99681 2.54744 9.02463 2.80406 9.14619 3.01087C9.15663 3.03581 9.1705 3.06431 9.18787 3.08931C9.05587 2.18738 9.78887 2.05187 9.92437 1.77025C9.93475 1.52425 9.73675 1.36025 9.58044 1.24619C9.43106 1.1535 9.29556 1.125 9.1705 1.125ZM10.2753 1.32819C10.2613 1.41019 10.2717 1.38881 10.2683 1.43156C10.2648 1.46013 10.2648 1.49575 10.2613 1.52425C10.2548 1.55321 10.2467 1.5818 10.237 1.60987C10.2301 1.63837 10.2196 1.66687 10.2093 1.69537C10.1953 1.72394 10.1849 1.74887 10.171 1.77737C10.1606 1.79162 10.1536 1.80587 10.1433 1.82019L10.1224 1.85225C10.105 1.87725 10.0876 1.90219 10.0702 1.9235C10.0494 1.94494 10.0321 1.96987 10.0077 1.98769V1.99131C9.98687 2.00912 9.96606 2.0305 9.94175 2.04831C9.86881 2.10537 9.78544 2.14813 9.709 2.20163C9.68469 2.21944 9.66037 2.23369 9.6395 2.25506C9.61519 2.27294 9.59437 2.29069 9.5735 2.31212C9.54919 2.3335 9.53181 2.35487 9.511 2.37987C9.49362 2.40125 9.47275 2.42619 9.45887 2.45112C9.4415 2.47612 9.42412 2.50112 9.41025 2.526C9.39631 2.55456 9.38594 2.5795 9.372 2.608C9.36162 2.63656 9.35119 2.6615 9.34425 2.69C9.33381 2.72213 9.32687 2.75063 9.31994 2.77912C9.31644 2.79338 9.31644 2.81125 9.31294 2.8255C9.3095 2.83975 9.3095 2.854 9.306 2.86825C9.306 2.89675 9.30256 2.92888 9.30256 2.95738C9.30256 2.97875 9.30256 3.00019 9.306 3.02156C9.306 3.05006 9.3095 3.07856 9.31644 3.11069C9.31994 3.13919 9.32688 3.16769 9.33381 3.19625C9.34425 3.22475 9.35119 3.25325 9.36162 3.28181C9.36856 3.29962 9.379 3.31744 9.38594 3.33169L8.58694 3.01444C8.45351 2.97548 8.31913 2.93982 8.18394 2.9075L7.96506 2.854C7.75607 2.81125 7.54505 2.77913 7.33281 2.75775C7.32587 2.75775 7.32244 2.75419 7.31544 2.75419C7.10885 2.73284 6.90131 2.72211 6.69362 2.72206C6.54075 2.72206 6.38794 2.72919 6.23856 2.73994C6.02669 2.75419 5.81475 2.78269 5.60281 2.81838C5.55069 2.8255 5.49862 2.83619 5.4465 2.84687C5.33881 2.86825 5.23462 2.89319 5.13381 2.91812L4.97756 2.96094C4.92537 2.98231 4.87675 3.00731 4.82819 3.02869L4.7135 3.08212C4.70656 3.08569 4.69963 3.08569 4.69613 3.08925C4.66138 3.10713 4.63013 3.12138 4.59888 3.13919C4.59051 3.14217 4.58236 3.14574 4.5745 3.14987C4.53638 3.16769 4.49813 3.18906 4.46688 3.20694C4.4425 3.21756 4.41819 3.23187 4.39738 3.24256C4.38694 3.24969 4.373 3.25681 4.36613 3.26038C4.33488 3.27825 4.30363 3.296 4.27575 3.31387C4.2445 3.33167 4.21671 3.34948 4.19238 3.36731C4.16806 3.38519 4.14375 3.39944 4.12294 3.41725C4.11944 3.42081 4.116 3.42081 4.1125 3.42438C4.09169 3.43863 4.06738 3.45644 4.0465 3.47431L4.03956 3.48144L3.98744 3.52419C3.98056 3.52775 3.97356 3.53488 3.96662 3.53844C3.94925 3.55269 3.93187 3.57056 3.9145 3.58481C3.911 3.59194 3.90406 3.59544 3.90062 3.59906C3.87975 3.62044 3.85894 3.63825 3.83812 3.65969C3.83456 3.65969 3.83456 3.66325 3.83113 3.66681C3.81025 3.68462 3.78944 3.706 3.76863 3.72744C3.76513 3.73094 3.76513 3.7345 3.76163 3.7345C3.74425 3.75231 3.72694 3.77013 3.70956 3.79156C3.70263 3.79869 3.69219 3.80581 3.68519 3.81294C3.66788 3.83431 3.64706 3.85575 3.62619 3.87713C3.62269 3.88425 3.61575 3.88781 3.61225 3.89494C3.5845 3.92344 3.56013 3.952 3.53238 3.9805L3.52194 3.99119C3.46631 4.05181 3.40731 4.11244 3.34475 4.16587C3.28225 4.22294 3.21625 4.27638 3.15025 4.32275C3.08295 4.37116 3.01339 4.41636 2.94181 4.45819C2.87096 4.49799 2.79788 4.53369 2.72294 4.56512C2.64913 4.59738 2.57376 4.62596 2.49712 4.65075C2.35125 4.68281 2.20187 4.74338 2.07337 4.75406C2.0455 4.75406 2.01425 4.76119 1.9865 4.76481C1.95525 4.77194 1.92744 4.77906 1.89962 4.78619L1.81625 4.81825C1.78844 4.82894 1.76063 4.84325 1.73287 4.8575C1.7085 4.87531 1.68075 4.88956 1.65644 4.90737C1.63167 4.92565 1.60845 4.94593 1.587 4.968C1.56263 4.98581 1.53831 5.01075 1.5175 5.03212C1.49663 5.05713 1.47581 5.0785 1.45844 5.10344C1.44106 5.132 1.42025 5.15694 1.40631 5.18544C1.38894 5.21044 1.37156 5.23894 1.35769 5.26744C1.34381 5.2995 1.32987 5.32806 1.3195 5.36013C1.30906 5.38863 1.29862 5.42075 1.28825 5.45281C1.28125 5.48131 1.27431 5.50987 1.27087 5.53837C1.27087 5.54194 1.26737 5.5455 1.26737 5.54906C1.26044 5.58119 1.26044 5.62394 1.25694 5.64531C1.25344 5.67031 1.25 5.69169 1.25 5.71663C1.25 5.73088 1.25 5.74869 1.2535 5.763C1.25694 5.78794 1.26037 5.80931 1.26737 5.83069C1.27431 5.85213 1.28131 5.8735 1.29175 5.89488V5.89844C1.30212 5.91981 1.316 5.94119 1.32987 5.96263C1.34381 5.984 1.35769 6.00537 1.37506 6.02675C1.39244 6.04463 1.41331 6.066 1.43412 6.08381C1.45442 6.10472 1.4765 6.12381 1.50013 6.14087C1.5835 6.21569 1.60438 6.24069 1.712 6.29769C1.72944 6.30844 1.74675 6.31556 1.76762 6.32625C1.77112 6.32625 1.77456 6.32981 1.77806 6.32981C1.77806 6.33694 1.77806 6.3405 1.7815 6.34762C1.785 6.37612 1.79194 6.40469 1.79887 6.43319C1.80581 6.46525 1.81625 6.49381 1.82669 6.51875C1.83712 6.54013 1.84406 6.5615 1.8545 6.58294C1.85794 6.59006 1.86137 6.59719 1.86487 6.60075C1.87881 6.62925 1.89269 6.65419 1.90656 6.67919L1.95869 6.75406C1.97606 6.77544 1.99694 6.80037 2.01775 6.82175C2.03863 6.84319 2.05944 6.861 2.08375 6.88237C2.08375 6.88237 2.08725 6.88594 2.09069 6.88594C2.11156 6.90375 2.13238 6.92163 2.15319 6.93587C2.17756 6.95369 2.20187 6.96794 2.22969 6.98219C2.25523 6.99736 2.28194 7.01048 2.30956 7.02144C2.33037 7.03212 2.35469 7.03925 2.37906 7.04637C2.3825 7.04994 2.38594 7.04994 2.39294 7.0535C2.40681 7.05706 2.42419 7.06063 2.43812 7.06419C2.42769 7.25669 2.42419 7.4385 2.452 7.50269C2.48325 7.574 2.63613 7.3565 2.789 7.10694C2.76813 7.35294 2.75425 7.64169 2.789 7.72725C2.82713 7.81638 3.03562 7.53831 3.21625 7.23175C5.67925 6.64706 7.92688 8.39394 8.16313 10.8609C8.11794 10.4758 7.65594 10.2619 7.444 10.3154C7.33981 10.5792 7.16262 10.9179 6.87775 11.1282C6.90212 10.8929 6.89169 10.6505 6.84306 10.4152C6.76662 10.7432 6.61725 11.0498 6.41225 11.3136C6.08225 11.3386 5.75225 11.1746 5.5785 10.9286C5.56462 10.9179 5.56119 10.8965 5.55075 10.8822C5.54031 10.8573 5.52987 10.8323 5.52294 10.8074C5.51278 10.7834 5.50579 10.7583 5.50212 10.7325C5.49862 10.7076 5.49862 10.6826 5.49862 10.6541V10.6006C5.50212 10.5756 5.50906 10.5507 5.516 10.5258C5.52287 10.5008 5.52987 10.4758 5.54031 10.4509C5.55419 10.4259 5.56462 10.401 5.582 10.376C5.64106 10.2049 5.64106 10.0659 5.53337 9.98388C5.51256 9.96993 5.49046 9.958 5.46737 9.94825C5.45344 9.94462 5.43612 9.9375 5.42219 9.93394C5.41175 9.93037 5.40481 9.92681 5.39444 9.92325C5.37006 9.91613 5.34575 9.909 5.32144 9.90544C5.29777 9.89838 5.2732 9.89478 5.2485 9.89475C5.22321 9.89064 5.19767 9.88826 5.17206 9.88762C5.15469 9.88762 5.13731 9.89119 5.11994 9.89119C5.09219 9.89119 5.06787 9.89475 5.04356 9.90187C5.01919 9.90544 4.99487 9.909 4.97056 9.91613C4.94625 9.92325 4.92194 9.93044 4.89762 9.94112C4.87331 9.95181 4.8525 9.9625 4.82819 9.97319C4.80731 9.98388 4.78644 9.99813 4.76213 10.0088C3.95275 10.5507 4.43563 11.8198 4.98794 12.187C4.7795 12.2263 4.56763 12.2726 4.50856 12.3189L4.50163 12.3261C4.651 12.4187 4.80731 12.4972 4.97062 12.5649C5.15668 12.6268 5.34433 12.6839 5.53337 12.736V12.7396C5.82098 12.8001 6.11544 12.8217 6.40881 12.8038C7.94775 12.6932 9.20875 11.4919 9.43806 9.909C9.445 9.94113 9.45194 9.96962 9.45887 10.0017C9.46931 10.0659 9.48319 10.1336 9.49019 10.2013V10.2049C9.49712 10.237 9.50056 10.2691 9.50406 10.2976V10.3119C9.50756 10.3439 9.511 10.3761 9.511 10.4046C9.5145 10.4438 9.51794 10.483 9.51794 10.5222V10.5793C9.51794 10.5971 9.52144 10.6184 9.52144 10.6362C9.52144 10.6577 9.51794 10.6791 9.51794 10.7004V10.7504C9.51794 10.7753 9.5145 10.7967 9.5145 10.8217C9.5145 10.8359 9.5145 10.8502 9.511 10.868C9.511 10.8929 9.5075 10.9179 9.5075 10.9464C9.504 10.9571 9.504 10.9678 9.504 10.9785C9.50056 11.0071 9.49706 11.032 9.49362 11.0605C9.49362 11.0712 9.49362 11.0819 9.49012 11.0926C9.48662 11.1283 9.47969 11.1603 9.47625 11.196V11.2031C9.46931 11.2352 9.46231 11.2709 9.45537 11.3029V11.3136L9.43456 11.4099C9.43456 11.4134 9.43106 11.4206 9.43106 11.4241C9.42456 11.4566 9.41644 11.4888 9.40675 11.5204V11.5311C9.39631 11.5668 9.38587 11.5988 9.37894 11.6309C9.3755 11.6345 9.3755 11.6381 9.3755 11.6381L9.34419 11.745C9.33031 11.7806 9.31987 11.8127 9.306 11.8484C9.29212 11.884 9.28169 11.9197 9.26781 11.9517C9.25387 11.9874 9.24 12.0195 9.22612 12.0551H9.22262C9.20869 12.0873 9.19481 12.1229 9.17744 12.1549C9.17457 12.1635 9.17108 12.1719 9.167 12.1799C9.16356 12.1835 9.16356 12.1871 9.16006 12.1906C8.93425 12.6576 8.60081 13.0676 8.18394 13.3884C8.15612 13.4062 8.12831 13.4276 8.10056 13.4491C8.09362 13.4561 8.08319 13.4598 8.07625 13.4669C8.05188 13.4847 8.02756 13.5025 7.99981 13.5203L8.01019 13.5417H8.01369L8.15963 13.5203H8.16306C8.25337 13.5061 8.34375 13.4882 8.43406 13.4704C8.45991 13.4662 8.48544 13.4602 8.5105 13.4526C8.52781 13.449 8.54175 13.4455 8.55912 13.4419C8.58344 13.4383 8.60775 13.4312 8.63206 13.4276C8.65288 13.4205 8.67375 13.4169 8.69456 13.4098C9.042 13.3243 9.37894 13.2066 9.702 13.0676C9.14969 13.8412 8.40975 14.4651 7.54475 14.875C7.94425 14.8465 8.34375 14.7787 8.72931 14.6647C10.1293 14.2404 11.307 13.2743 12.0122 11.9731C11.8698 12.7966 11.5501 13.5809 11.0777 14.2654C11.4152 14.0368 11.7263 13.7714 12.0052 13.474C12.7834 12.6398 13.2941 11.581 13.4677 10.4438C13.5863 11.0084 13.6203 11.5875 13.5685 12.1621C16.0767 8.57219 13.7769 4.85038 12.8147 3.87006C12.8112 3.86294 12.8077 3.85931 12.8077 3.85219C12.8042 3.85581 12.8042 3.85581 12.8042 3.85931C12.8042 3.85575 12.8042 3.85575 12.8007 3.85219C12.8007 3.895 12.7972 3.93781 12.7938 3.98056C12.7842 4.06044 12.7726 4.14007 12.7591 4.21938C12.7417 4.29781 12.7209 4.37625 12.7 4.45469C12.6753 4.53182 12.6475 4.60793 12.6166 4.68281C12.5847 4.75663 12.55 4.82918 12.5124 4.90031C12.4742 4.96806 12.4325 5.03931 12.3874 5.1035C12.3427 5.1697 12.2952 5.23393 12.2449 5.296C12.1928 5.36019 12.1373 5.41725 12.0817 5.47425C12.0469 5.50637 12.0156 5.53487 11.9809 5.56337C11.9531 5.58838 11.9288 5.60975 11.901 5.63462C11.8385 5.68463 11.7759 5.73088 11.7065 5.77369C11.6405 5.8165 11.571 5.85931 11.5015 5.89494C11.4292 5.92968 11.3563 5.96296 11.2827 5.99475C11.2087 6.02337 11.1333 6.04836 11.0569 6.06962C10.9801 6.0908 10.9024 6.10863 10.8241 6.12306C10.7442 6.13737 10.6643 6.1445 10.5879 6.15163C10.5323 6.15519 10.4767 6.15875 10.4211 6.15875C10.3413 6.15875 10.2613 6.15162 10.1849 6.14444C10.105 6.13731 10.0251 6.12663 9.94869 6.10881C9.86875 6.09456 9.79238 6.07319 9.71594 6.04819H9.71244C9.78888 6.04106 9.86531 6.03394 9.94175 6.01969C10.0202 6.00567 10.0978 5.98781 10.1745 5.96619C10.2509 5.94492 10.3263 5.91993 10.4003 5.89131C10.4767 5.86281 10.5496 5.82719 10.6191 5.7915C10.6921 5.75588 10.7581 5.71669 10.8276 5.67387C10.8936 5.62756 10.9596 5.58119 11.0221 5.53131C11.0846 5.4814 11.1437 5.42792 11.1993 5.37087C11.2583 5.31737 11.3104 5.25681 11.3626 5.19619C11.4134 5.13372 11.462 5.06951 11.5084 5.00369C11.5154 4.993 11.5224 4.97869 11.5293 4.96806C11.5642 4.91176 11.5978 4.85468 11.6301 4.79688C11.6683 4.72611 11.703 4.65355 11.7343 4.57944C11.7656 4.50476 11.7935 4.42863 11.8176 4.35131C11.8419 4.27644 11.8593 4.198 11.8767 4.11956C11.8906 4.03756 11.9045 3.95913 11.9114 3.88075C11.9184 3.79875 11.9253 3.71675 11.9253 3.63825C11.9253 3.58125 11.9219 3.52425 11.9184 3.46719C11.9114 3.38519 11.901 3.30675 11.8906 3.22831C11.8769 3.14796 11.8595 3.06827 11.8385 2.9895C11.8142 2.91463 11.7899 2.83619 11.7621 2.76137C11.7342 2.68644 11.6996 2.61163 11.6648 2.54031C11.6266 2.46906 11.5884 2.39769 11.5467 2.33C11.5024 2.26323 11.456 2.19782 11.4078 2.13387C11.3556 2.07325 11.3035 2.01269 11.2479 1.95206C11.2201 1.92356 11.1889 1.89144 11.1576 1.863C11.0021 1.73915 10.841 1.62257 10.6748 1.51363C10.6523 1.50031 10.6291 1.48841 10.6053 1.478C10.4906 1.40306 10.3829 1.36388 10.2753 1.32825" fill="#E0234E"/>
</svg>
