<svg width="16" height="16" viewBox="0 0 16 16" fill="none" xmlns="http://www.w3.org/2000/svg">
<g clip-path="url(#clip0_19766_55592)">
<path d="M12.25 0H3.75C1.67893 0 0 1.67893 0 3.75V12.25C0 14.3211 1.67893 16 3.75 16H12.25C14.3211 16 16 14.3211 16 12.25V3.75C16 1.67893 14.3211 0 12.25 0Z" fill="#001E36"/>
<path d="M3.59961 11.1275V4.26749C3.59961 4.2208 3.61961 4.19417 3.6663 4.19417C3.77961 4.19417 3.8863 4.19417 4.03961 4.18749C4.19961 4.1808 4.3663 4.1808 4.5463 4.17417C4.7263 4.16749 4.91961 4.16749 5.1263 4.1608C5.33292 4.15417 5.53292 4.15417 5.73292 4.15417C6.27961 4.15417 6.73292 4.2208 7.1063 4.3608C7.44095 4.47448 7.7461 4.66122 7.99961 4.90749C8.21438 5.12305 8.38035 5.38223 8.4863 5.66749C8.5863 5.94749 8.63961 6.23417 8.63961 6.53417C8.63961 7.10751 8.50628 7.58084 8.23961 7.95417C7.97292 8.32749 7.59961 8.60749 7.1663 8.76749C6.71292 8.93417 6.21292 8.99417 5.6663 8.99417C5.5063 8.99417 5.39961 8.99417 5.33292 8.98749C5.26623 8.9808 5.17292 8.9808 5.0463 8.9808V11.1208C5.05292 11.1675 5.01961 11.2075 4.97292 11.2142H3.67961C3.6263 11.2142 3.59961 11.1875 3.59961 11.1275ZM5.05292 5.4808V7.7208C5.1463 7.72749 5.23292 7.73417 5.31292 7.73417H5.6663C5.9263 7.73417 6.1863 7.69417 6.43292 7.61417C6.6463 7.55417 6.83292 7.42749 6.97961 7.2608C7.11961 7.09417 7.1863 6.86749 7.1863 6.57417C7.19256 6.36583 7.13936 6.16001 7.03292 5.9808C6.91961 5.80749 6.75961 5.67417 6.5663 5.6008C6.31961 5.5008 6.05292 5.4608 5.77961 5.46749C5.6063 5.46749 5.45292 5.46749 5.3263 5.47417C5.19292 5.46749 5.09961 5.47417 5.05292 5.4808ZM12.7996 7.31417C12.5996 7.20749 12.3863 7.13417 12.1596 7.08749C11.9129 7.03417 11.6663 7.0008 11.4129 7.0008C11.2796 6.99417 11.1396 7.01417 11.0129 7.04749C10.9263 7.06749 10.8529 7.11417 10.8063 7.1808C10.7729 7.23417 10.7529 7.3008 10.7529 7.3608C10.7529 7.4208 10.7796 7.4808 10.8196 7.53417C10.8796 7.60749 10.9596 7.66749 11.0463 7.71417C11.2009 7.7942 11.3588 7.8676 11.5196 7.93417C11.8796 8.05417 12.2263 8.2208 12.5463 8.4208C12.7663 8.5608 12.9463 8.74749 13.0729 8.97417C13.1796 9.18749 13.2329 9.4208 13.2263 9.6608C13.2329 9.97417 13.1396 10.2875 12.9663 10.5475C12.7803 10.8136 12.5209 11.0198 12.2196 11.1408C11.8929 11.2808 11.4929 11.3542 11.0129 11.3542C10.7063 11.3542 10.4063 11.3275 10.1063 11.2675C9.87117 11.2269 9.64249 11.1552 9.4263 11.0542C9.37961 11.0275 9.3463 10.9808 9.35292 10.9275V9.76749C9.35292 9.74749 9.35961 9.7208 9.37961 9.70749C9.39961 9.69418 9.41961 9.7008 9.43961 9.71417C9.69961 9.86749 9.97292 9.97417 10.2663 10.0408C10.5196 10.1075 10.7863 10.1408 11.0529 10.1408C11.3063 10.1408 11.4863 10.1075 11.6063 10.0475C11.7129 10.0008 11.7863 9.88749 11.7863 9.76749C11.7863 9.67417 11.7329 9.58749 11.6263 9.5008C11.5196 9.41417 11.2996 9.31417 10.9729 9.18749C10.6378 9.06937 10.3196 8.90801 10.0263 8.70749C9.81736 8.55862 9.64427 8.36502 9.51961 8.1408C9.41292 7.92749 9.35961 7.69417 9.3663 7.4608C9.3663 7.17417 9.4463 6.9008 9.59292 6.65417C9.75961 6.38749 10.0063 6.17417 10.2929 6.0408C10.6063 5.8808 10.9996 5.80749 11.4729 5.80749C11.7463 5.80749 12.0263 5.82749 12.2996 5.86749C12.4996 5.89417 12.6929 5.94749 12.8729 6.0208C12.8996 6.02749 12.9263 6.05417 12.9396 6.0808C12.9463 6.10749 12.9529 6.13417 12.9529 6.1608V7.24749C12.9529 7.27417 12.9396 7.3008 12.9196 7.31417C12.8596 7.32749 12.8263 7.32749 12.7996 7.31417Z" fill="#31A8FF"/>
</g>
<defs>
<clipPath id="clip0_19766_55592">
<rect width="16" height="16" fill="white"/>
</clipPath>
</defs>
</svg>
