<svg width="16" height="16" viewBox="0 0 16 16" fill="none" xmlns="http://www.w3.org/2000/svg">
<g clip-path="url(#clip0_19766_55592)">
<path d="M12.25 0H3.75C1.67893 0 0 1.67893 0 3.75V12.25C0 14.3211 1.67893 16 3.75 16H12.25C14.3211 16 16 14.3211 16 12.25V3.75C16 1.67893 14.3211 0 12.25 0Z" fill="#001E36"/>
<path d="M3.59961 11.1276V4.26761C3.59961 4.22092 3.61961 4.1943 3.6663 4.1943C3.77961 4.1943 3.8863 4.1943 4.03961 4.18761C4.19961 4.18092 4.3663 4.18092 4.5463 4.1743C4.7263 4.16761 4.91961 4.16761 5.1263 4.16092C5.33292 4.1543 5.53292 4.1543 5.73292 4.1543C6.27961 4.1543 6.73292 4.22092 7.1063 4.36092C7.44095 4.4746 7.7461 4.66134 7.99961 4.90761C8.21438 5.12317 8.38035 5.38235 8.4863 5.66761C8.5863 5.94761 8.63961 6.2343 8.63961 6.5343C8.63961 7.10763 8.50628 7.58096 8.23961 7.9543C7.97292 8.32761 7.59961 8.60761 7.1663 8.76761C6.71292 8.9343 6.21292 8.9943 5.6663 8.9943C5.5063 8.9943 5.39961 8.9943 5.33292 8.98761C5.26623 8.98092 5.17292 8.98092 5.0463 8.98092V11.1209C5.05292 11.1676 5.01961 11.2076 4.97292 11.2143H3.67961C3.6263 11.2143 3.59961 11.1876 3.59961 11.1276ZM5.05292 5.48092V7.72092C5.1463 7.72761 5.23292 7.7343 5.31292 7.7343H5.6663C5.9263 7.7343 6.1863 7.6943 6.43292 7.6143C6.6463 7.5543 6.83292 7.42761 6.97961 7.26092C7.11961 7.0943 7.1863 6.86761 7.1863 6.5743C7.19256 6.36595 7.13936 6.16014 7.03292 5.98092C6.91961 5.80761 6.75961 5.6743 6.5663 5.60092C6.31961 5.50092 6.05292 5.46092 5.77961 5.46761C5.6063 5.46761 5.45292 5.46761 5.3263 5.4743C5.19292 5.46761 5.09961 5.4743 5.05292 5.48092ZM12.7996 7.3143C12.5996 7.20761 12.3863 7.1343 12.1596 7.08761C11.9129 7.0343 11.6663 7.00092 11.4129 7.00092C11.2796 6.9943 11.1396 7.0143 11.0129 7.04761C10.9263 7.06761 10.8529 7.1143 10.8063 7.18092C10.7729 7.2343 10.7529 7.30092 10.7529 7.36092C10.7529 7.42092 10.7796 7.48092 10.8196 7.5343C10.8796 7.60761 10.9596 7.66761 11.0463 7.7143C11.2009 7.79432 11.3588 7.86772 11.5196 7.9343C11.8796 8.0543 12.2263 8.22092 12.5463 8.42092C12.7663 8.56092 12.9463 8.74761 13.0729 8.9743C13.1796 9.18761 13.2329 9.42092 13.2263 9.66092C13.2329 9.9743 13.1396 10.2876 12.9663 10.5476C12.7803 10.8137 12.5209 11.0199 12.2196 11.1409C11.8929 11.2809 11.4929 11.3543 11.0129 11.3543C10.7063 11.3543 10.4063 11.3276 10.1063 11.2676C9.87117 11.227 9.64249 11.1553 9.4263 11.0543C9.37961 11.0276 9.3463 10.9809 9.35292 10.9276V9.76761C9.35292 9.74761 9.35961 9.72092 9.37961 9.70761C9.39961 9.6943 9.41961 9.70092 9.43961 9.7143C9.69961 9.86761 9.97292 9.9743 10.2663 10.0409C10.5196 10.1076 10.7863 10.1409 11.0529 10.1409C11.3063 10.1409 11.4863 10.1076 11.6063 10.0476C11.7129 10.0009 11.7863 9.88761 11.7863 9.76761C11.7863 9.6743 11.7329 9.58761 11.6263 9.50092C11.5196 9.4143 11.2996 9.3143 10.9729 9.18761C10.6378 9.0695 10.3196 8.90813 10.0263 8.70761C9.81736 8.55874 9.64427 8.36515 9.51961 8.14092C9.41292 7.92761 9.35961 7.6943 9.3663 7.46092C9.3663 7.1743 9.4463 6.90092 9.59292 6.6543C9.75961 6.38761 10.0063 6.1743 10.2929 6.04092C10.6063 5.88092 10.9996 5.80761 11.4729 5.80761C11.7463 5.80761 12.0263 5.82761 12.2996 5.86761C12.4996 5.8943 12.6929 5.94761 12.8729 6.02092C12.8996 6.02761 12.9263 6.0543 12.9396 6.08092C12.9463 6.10761 12.9529 6.1343 12.9529 6.16092V7.24761C12.9529 7.2743 12.9396 7.30092 12.9196 7.3143C12.8596 7.32761 12.8263 7.32761 12.7996 7.3143Z" fill="#31A8FF"/>
</g>
<defs>
<clipPath id="clip0_19766_55592">
<rect width="16" height="16" fill="white"/>
</clipPath>
</defs>
</svg>
