<svg width="16" height="16" viewBox="0 0 16 16" fill="none" xmlns="http://www.w3.org/2000/svg">
<path d="M0 7.99988C0 10.324 3.58175 12.2083 8 12.2083C12.4183 12.2083 16 10.324 16 7.99988C16 5.67575 12.4181 3.7915 8 3.7915C3.58187 3.7915 0 5.67575 0 7.99988Z" fill="url(#paint0_radial_19971_63663)"/>
<path d="M8 11.8958C12.2456 11.8958 15.6875 10.1514 15.6875 7.99988C15.6875 5.84813 12.2456 4.104 8 4.104C3.75437 4.104 0.3125 5.84813 0.3125 7.99988C0.3125 10.1514 3.75437 11.8958 8 11.8958Z" fill="#777BB3"/>
<path d="M4.34705 8.48299C4.69618 8.48299 4.95668 8.41862 5.12155 8.29174C5.2848 8.16599 5.39743 7.94837 5.45655 7.64487C5.51155 7.36112 5.49055 7.16312 5.39405 7.05612C5.29555 6.94687 5.08243 6.89149 4.76068 6.89149H4.20268L3.89355 8.48299H4.34705ZM2.52218 10.4434C2.50938 10.4433 2.49674 10.4405 2.48517 10.435C2.4736 10.4295 2.46338 10.4216 2.45526 10.4117C2.44713 10.4018 2.4413 10.3902 2.43817 10.3778C2.43505 10.3654 2.43471 10.3524 2.43718 10.3399L3.2568 6.12262C3.26068 6.1029 3.27127 6.08514 3.28676 6.07235C3.30226 6.05957 3.32171 6.05255 3.3418 6.05249H5.10855C5.6638 6.05249 6.07705 6.20324 6.33693 6.50062C6.59793 6.79937 6.67868 7.21737 6.57655 7.74249C6.53493 7.95637 6.46343 8.15499 6.36405 8.33299C6.26064 8.5161 6.12864 8.68151 5.97305 8.82299C5.78168 9.00199 5.56505 9.13199 5.32968 9.20837C5.09818 9.28387 4.80068 9.32212 4.44593 9.32212H3.73043L3.52618 10.3731C3.52232 10.3929 3.51171 10.4107 3.49616 10.4235C3.48061 10.4364 3.46108 10.4434 3.44093 10.4434H2.52218Z" fill="black"/>
<path d="M4.27329 6.9782H4.75967C5.14805 6.9782 5.28292 7.06345 5.32879 7.11433C5.40467 7.19858 5.41917 7.37645 5.37017 7.62833C5.31529 7.91045 5.21354 8.11058 5.06767 8.22283C4.91842 8.33783 4.67542 8.39608 4.34604 8.39608H3.99779L4.27329 6.9782ZM5.10754 5.9657H3.34092C3.30063 5.9657 3.2616 5.97971 3.2305 6.00531C3.1994 6.03092 3.17816 6.06654 3.17042 6.10608L2.35079 10.3235C2.34595 10.3486 2.34672 10.3745 2.35304 10.3992C2.35936 10.424 2.37108 10.4471 2.38735 10.4669C2.40363 10.4866 2.42406 10.5025 2.44719 10.5134C2.47033 10.5244 2.49559 10.53 2.52117 10.5301H3.43992C3.4802 10.53 3.51922 10.516 3.5503 10.4904C3.58138 10.4647 3.60259 10.4291 3.61029 10.3896L3.80092 9.40883H4.44479C4.80879 9.40883 5.11529 9.36908 5.35567 9.29083C5.60279 9.21058 5.83017 9.07445 6.03142 8.8862C6.1935 8.73864 6.33101 8.56618 6.43879 8.37533C6.54267 8.18945 6.61742 7.98195 6.66067 7.75895C6.76817 7.20608 6.68079 6.76345 6.40117 6.44345C6.12417 6.12633 5.68892 5.96558 5.10754 5.96558V5.9657ZM3.78717 8.56958H4.34604C4.71646 8.56966 4.99229 8.49987 5.17354 8.3602C5.35479 8.2207 5.47721 7.98774 5.5408 7.66133C5.60146 7.34783 5.57375 7.12666 5.45767 6.99783C5.34142 6.86899 5.10875 6.80458 4.75967 6.80458H4.13017L3.78717 8.56958ZM5.10767 6.13895C5.63917 6.13895 6.02679 6.27845 6.27054 6.55745C6.51429 6.83645 6.58763 7.22587 6.49054 7.7257C6.45038 7.9317 6.38267 8.11995 6.28742 8.29045C6.192 8.46112 6.06738 8.61724 5.91354 8.75883C5.73021 8.93049 5.52638 9.05278 5.30204 9.1257C5.07779 9.1987 4.79209 9.23516 4.44492 9.23508H3.65792L3.44004 10.3563H2.52129L3.34104 6.13895H5.10767Z" fill="white"/>
<path d="M8.68226 9.32203C8.66945 9.32204 8.6568 9.31922 8.6452 9.31377C8.63361 9.30831 8.62338 9.30035 8.61522 9.29047C8.60707 9.28059 8.60121 9.26902 8.59806 9.2566C8.59492 9.24419 8.59456 9.23123 8.59701 9.21865L8.95951 7.35265C8.99414 7.17515 8.98564 7.0479 8.93576 6.9939C8.90514 6.96103 8.81339 6.9059 8.54201 6.9059H7.88501L7.42926 9.2519C7.42535 9.27166 7.4147 9.28944 7.39912 9.30221C7.38355 9.31498 7.36402 9.32194 7.34389 9.3219H6.43264C6.41983 9.32191 6.40719 9.31909 6.39561 9.31364C6.38402 9.30819 6.37378 9.30025 6.36563 9.29039C6.35747 9.28052 6.35159 9.26898 6.34842 9.25658C6.34524 9.24417 6.34485 9.23122 6.34726 9.21865L7.16701 5.00128C7.17089 4.98152 7.18152 4.96373 7.19707 4.95093C7.21262 4.93814 7.23213 4.93115 7.25226 4.93115H8.16351C8.17631 4.93114 8.18896 4.93396 8.20054 4.93941C8.21212 4.94486 8.22236 4.9528 8.23052 4.96267C8.23868 4.97253 8.24455 4.98408 8.24773 4.99648C8.2509 5.00888 8.2513 5.02183 8.24889 5.0344L8.05114 6.0524H8.75776C9.29614 6.0524 9.66114 6.14715 9.87376 6.34253C10.0904 6.54165 10.1581 6.86003 10.0748 7.28915L9.69339 9.2519C9.68948 9.27164 9.67884 9.2894 9.6633 9.30217C9.64775 9.31493 9.62825 9.32191 9.60814 9.3219L8.68226 9.32203Z" fill="black"/>
<path d="M8.16443 4.84448H7.25305C7.21275 4.84449 7.1737 4.85851 7.1426 4.88414C7.11149 4.90977 7.09027 4.94542 7.08255 4.98498L6.26293 9.20223C6.25807 9.22736 6.25882 9.25326 6.26513 9.27806C6.27144 9.30287 6.28315 9.32598 6.29943 9.34573C6.31571 9.36548 6.33615 9.38139 6.35929 9.39233C6.38243 9.40326 6.40771 9.40895 6.4333 9.40898H7.34468C7.38498 9.40897 7.42403 9.39495 7.45514 9.36932C7.48624 9.34369 7.50747 9.30804 7.51518 9.26848L7.9573 6.99286H8.54255C8.81355 6.99286 8.87055 7.05073 8.87268 7.05336C8.88918 7.07086 8.9108 7.15273 8.87505 7.33636L8.51255 9.20223C8.50769 9.22737 8.50844 9.25328 8.51476 9.27809C8.52108 9.30291 8.5328 9.32602 8.54909 9.34578C8.56538 9.36553 8.58584 9.38144 8.609 9.39237C8.63216 9.4033 8.65745 9.40897 8.68305 9.40898H9.60905C9.64934 9.40894 9.68835 9.39491 9.71943 9.36928C9.75051 9.34365 9.77172 9.30802 9.77943 9.26848L10.1608 7.30598C10.2502 6.84523 10.1737 6.49973 9.9333 6.27886C9.7038 6.06811 9.31955 5.96573 8.75855 5.96573H8.1573L8.33493 5.05136C8.33981 5.02621 8.33907 5.00029 8.33277 4.97546C8.32646 4.95063 8.31474 4.9275 8.29845 4.90773C8.28215 4.88796 8.26169 4.87203 8.23852 4.8611C8.21535 4.85017 8.19005 4.84449 8.16443 4.84448ZM8.16443 5.01823L7.94655 6.13923H8.75855C9.26947 6.13923 9.62184 6.2284 9.81568 6.40673C10.0097 6.5849 10.0679 6.87365 9.99043 7.27298L9.60893 9.23536H8.68305L9.04568 7.36936C9.08693 7.15711 9.07172 7.01236 9.00005 6.93511C8.92839 6.85794 8.77597 6.81936 8.5428 6.81936H7.81418L7.34468 9.23523H6.43318L7.25293 5.01786H8.16443V5.01823Z" fill="white"/>
<path d="M11.5169 8.48299C11.866 8.48299 12.1266 8.41862 12.2916 8.29174C12.4546 8.16599 12.5674 7.94837 12.6265 7.64487C12.6815 7.36112 12.6606 7.16312 12.564 7.05612C12.4655 6.94687 12.2524 6.89149 11.9306 6.89149H11.3727L11.0634 8.48299H11.5169ZM9.69235 10.4434C9.67953 10.4434 9.66686 10.4406 9.65526 10.4351C9.64366 10.4296 9.63341 10.4217 9.62526 10.4118C9.61711 10.4019 9.61125 10.3903 9.60811 10.3779C9.60497 10.3654 9.60463 10.3524 9.6071 10.3399L10.4267 6.12262C10.4306 6.10286 10.4412 6.08506 10.4568 6.07227C10.4723 6.05948 10.4918 6.05249 10.512 6.05249H12.2786C12.8339 6.05249 13.2471 6.20324 13.5069 6.50062C13.768 6.79937 13.8486 7.21737 13.7465 7.74249C13.7074 7.94933 13.6357 8.14865 13.5341 8.33299C13.4307 8.5161 13.2987 8.68151 13.1431 8.82299C12.9519 9.00199 12.735 9.13199 12.4997 9.20837C12.2682 9.28387 11.9707 9.32212 11.6159 9.32212H10.9005L10.6964 10.3731C10.6925 10.3929 10.6819 10.4108 10.6663 10.4236C10.6507 10.4364 10.6311 10.4434 10.611 10.4434H9.69235Z" fill="black"/>
<path d="M11.4452 6.9782H11.9315C12.3199 6.9782 12.4548 7.06345 12.5005 7.11433C12.5768 7.19858 12.591 7.37645 12.5422 7.62833C12.4872 7.91045 12.3854 8.11058 12.2395 8.22283C12.0902 8.33783 11.8472 8.39608 11.5179 8.39608H11.1697L11.4452 6.9782ZM12.2794 5.9657H10.5128C10.4725 5.96573 10.4335 5.97975 10.4024 6.00535C10.3714 6.03096 10.3502 6.06656 10.3424 6.10608L9.52267 10.3235C9.51783 10.3486 9.5186 10.3745 9.52492 10.3993C9.53125 10.4241 9.54298 10.4472 9.55927 10.4669C9.57556 10.4867 9.59601 10.5026 9.61915 10.5135C9.6423 10.5244 9.66758 10.5301 9.69317 10.5301H10.6119C10.6522 10.53 10.6912 10.516 10.7223 10.4904C10.7534 10.4647 10.7746 10.4291 10.7823 10.3896L10.9729 9.40883H11.6167C11.9805 9.40883 12.2872 9.36908 12.5274 9.29083C12.7747 9.21058 13.002 9.07445 13.2034 8.88608C13.3654 8.73854 13.5029 8.56613 13.6107 8.37533C13.7147 8.18945 13.7892 7.98195 13.8325 7.75895C13.94 7.20608 13.8528 6.76345 13.573 6.44345C13.296 6.12633 12.8609 5.96558 12.2793 5.96558L12.2794 5.9657ZM10.959 8.56958H11.5178C11.8882 8.56966 12.1641 8.49987 12.3455 8.3602C12.5268 8.2207 12.6491 7.98774 12.7125 7.66133C12.7735 7.34783 12.7458 7.12666 12.6294 6.99783C12.5131 6.86899 12.2805 6.80458 11.9315 6.80458H11.3022L10.959 8.56958ZM12.2794 6.13895C12.8109 6.13895 13.1985 6.27845 13.4423 6.55745C13.686 6.83645 13.7593 7.22587 13.6622 7.7257C13.6222 7.9317 13.5545 8.11995 13.4592 8.29045C13.3638 8.46112 13.2392 8.61724 13.0852 8.75883C12.9018 8.93049 12.698 9.05278 12.4737 9.1257C12.2495 9.1987 11.9638 9.23516 11.6167 9.23508H10.8298L10.6117 10.3563H9.69292L10.5127 6.13895H12.2794Z" fill="white"/>
<defs>
<radialGradient id="paint0_radial_19971_63663" cx="0" cy="0" r="1" gradientUnits="userSpaceOnUse" gradientTransform="translate(4.80325 5.271) scale(10.5052)">
<stop stop-color="#AEB2D5"/>
<stop offset="0.3" stop-color="#AEB2D5"/>
<stop offset="0.75" stop-color="#484C89"/>
<stop offset="1" stop-color="#484C89"/>
</radialGradient>
</defs>
</svg>
