<svg width="16" height="16" viewBox="0 0 16 16" fill="none" xmlns="http://www.w3.org/2000/svg">
<g clip-path="url(#clip0_19971_63658)">
<path d="M11.7268 11.5139C11.825 10.6973 11.7956 10.5774 12.4038 10.7098L12.5582 10.7233C13.026 10.7446 13.6378 10.6481 13.9973 10.4811C14.7712 10.1219 15.23 9.52256 14.4671 9.67994C12.7266 10.0391 12.607 9.44969 12.607 9.44969C14.4448 6.72281 15.2131 3.26119 14.5498 2.41381C12.7411 0.102686 9.6102 1.19556 9.55783 1.22381L9.54108 1.22694C9.1972 1.15556 8.81233 1.11294 8.37995 1.10594C7.59233 1.09294 6.9947 1.31244 6.54133 1.65619C6.54133 1.65619 0.955951 -0.644939 1.21583 4.55006C1.27108 5.65519 2.79983 12.9123 4.62333 10.7203C5.28983 9.91881 5.93383 9.24106 5.93383 9.24106C6.25358 9.45344 6.63658 9.56194 7.03808 9.52294L7.0692 9.49644C7.05945 9.59594 7.0637 9.69331 7.08158 9.80856C6.61195 10.3334 6.74995 10.4256 5.81083 10.6188C4.86058 10.8146 5.41883 11.1632 5.7832 11.2543C6.22508 11.3648 7.2472 11.5213 7.93795 10.5546L7.91045 10.6648C8.0947 10.8123 8.08233 11.7244 8.10833 12.3761C8.13445 13.0278 8.17808 13.6359 8.31095 13.9946C8.44383 14.3532 8.60058 15.2766 9.83483 15.0121C10.8663 14.7916 11.655 14.4734 11.7268 11.5139Z" fill="black"/>
<path d="M9.4317 15.657C8.88583 15.657 8.53033 15.4459 8.31445 15.242C7.98858 14.9345 7.85933 14.5384 7.78208 14.3017L7.7487 14.203C7.5932 13.7832 7.54045 13.1789 7.5092 12.4006C7.50445 12.2837 7.5012 12.1634 7.49758 12.0357C7.49495 11.9424 7.4917 11.8252 7.48695 11.7027C7.29029 11.7965 7.08154 11.8625 6.8667 11.8987C6.48183 11.9645 6.06808 11.9432 5.6367 11.8354C5.33233 11.7592 5.01608 11.6015 4.83583 11.3579C4.31045 11.818 3.80933 11.7556 3.53633 11.6645C3.0547 11.5039 2.6237 11.0525 2.21858 10.2849C1.92995 9.73798 1.65083 9.02548 1.38883 8.16698C0.932578 6.67198 0.642703 5.09735 0.616953 4.58035C0.535953 2.96223 0.971578 1.80498 1.91145 1.1411C3.39408 0.0938516 5.64045 0.709727 6.45945 0.989352C7.0097 0.657727 7.65708 0.496352 8.38858 0.507977C8.78145 0.514352 9.15558 0.548852 9.50308 0.610852C9.86558 0.496852 10.5816 0.333227 11.4012 0.343477C12.9113 0.361477 14.1627 0.949977 15.0198 2.04535C15.6316 2.82685 15.3291 4.46798 15.0945 5.37673C14.7642 6.65498 14.1856 8.01448 13.4748 9.19798C13.6678 9.19935 13.9475 9.17623 14.345 9.0941C15.1292 8.93223 15.3586 9.35273 15.4208 9.54098C15.6702 10.2962 14.5862 10.867 14.2481 11.024C13.8148 11.2251 13.1085 11.3476 12.53 11.3211L12.5047 11.3195L12.3527 11.3061L12.3377 11.4329L12.3232 11.5567C12.2843 13.0566 12.0701 14.0065 11.6292 14.6341C11.1671 15.2921 10.5248 15.4765 9.95908 15.5977C9.76608 15.639 9.5907 15.657 9.4317 15.657ZM8.28295 10.1981C8.63533 10.4801 8.6662 11.0107 8.69383 12.0024C8.69733 12.1261 8.70058 12.2432 8.70495 12.3526C8.7182 12.6839 8.74933 13.4595 8.87083 13.7872C8.88795 13.8336 8.90333 13.8806 8.91958 13.9305C9.05495 14.345 9.12283 14.5529 9.7082 14.4277C10.1996 14.3224 10.4522 14.2279 10.65 13.9464C10.9373 13.5371 11.0981 12.7139 11.1276 11.4995L11.7255 11.514L11.1317 11.4427L11.1492 11.2945C11.2061 10.8057 11.2471 10.4527 11.5737 10.2192C11.8358 10.032 12.1345 10.0501 12.3723 10.093C12.111 9.89548 12.0387 9.66385 12.0195 9.56885L11.9696 9.32323L12.1097 9.11535C12.9168 7.91785 13.5823 6.4461 13.9358 5.07735C14.2991 3.67098 14.1883 2.9241 14.0776 2.78285C12.6115 0.909477 10.0691 1.68298 9.80358 1.77073L9.7587 1.79498L9.5337 1.83685L9.41845 1.81298C9.1007 1.74698 8.7477 1.71048 8.36933 1.70435C7.77483 1.69435 7.2952 1.83485 6.90195 2.13323L6.62908 2.3401L6.31245 2.20973C5.63595 1.9331 3.64895 1.37698 2.60045 2.1196C2.01845 2.53185 1.75333 3.3396 1.81233 4.52048C1.83183 4.91035 2.0967 6.38623 2.5337 7.8176C3.13758 9.79573 3.68633 10.4529 3.91545 10.5292C3.95545 10.5427 4.0592 10.4621 4.16245 10.3381C4.59297 9.82204 5.03875 9.3189 5.4992 8.82935L5.84545 8.46498L6.26408 8.7431C6.43283 8.85523 6.61895 8.91885 6.81008 8.93085L7.80845 8.07935L7.66383 9.55535C7.66058 9.58848 7.65895 9.6336 7.67195 9.71735L7.71545 9.9971L7.5267 10.2081L7.50495 10.2326L8.05345 10.4857L8.28295 10.1981Z" fill="black"/>
<path d="M14.4655 9.68005C12.7249 10.0392 12.6052 9.4498 12.6052 9.4498C14.4431 6.7228 15.2114 3.26105 14.5484 2.41393C12.7396 0.102928 9.60849 1.1958 9.55624 1.22418L9.53936 1.22718C9.19549 1.1558 8.81061 1.1133 8.37799 1.1063C7.59036 1.09343 6.99299 1.3128 6.53962 1.65655C6.53962 1.65655 0.954115 -0.644447 1.21386 4.55043C1.26911 5.65568 2.79786 12.9128 4.62136 10.7208C5.28786 9.9193 5.93174 9.24155 5.93174 9.24155C6.25161 9.45393 6.63449 9.56243 7.03586 9.52343L7.06711 9.49693C7.05736 9.59643 7.06187 9.6938 7.07962 9.80905C6.60987 10.3339 6.74787 10.4261 5.80874 10.6193C4.85849 10.8151 5.41674 11.1637 5.78124 11.2548C6.22299 11.3653 7.24524 11.5218 7.93586 10.5551L7.90824 10.6653C8.09236 10.8128 8.22162 11.6243 8.19999 12.3599C8.17837 13.0956 8.16374 13.6007 8.30886 13.9952C8.45386 14.3897 8.59836 15.2772 9.83286 15.0127C10.8644 14.7917 11.3989 14.2188 11.4734 13.2633C11.5261 12.5839 11.6455 12.6844 11.6531 12.0771L11.749 11.7896C11.8595 10.8687 11.7665 10.5717 12.4021 10.7098L12.5565 10.7233C13.0242 10.7446 13.6364 10.6481 13.9957 10.4811C14.7695 10.1222 15.2284 9.52268 14.4655 9.68005Z" fill="#336791"/>
<path d="M9.4945 15.2884C8.4655 15.2884 8.1395 14.4736 8.00612 14.1403C7.81087 13.6519 7.76875 11.7567 7.81225 10.2024C7.81289 10.1762 7.81872 10.1504 7.82939 10.1265C7.84006 10.1025 7.85536 10.0809 7.87442 10.0629C7.89347 10.0449 7.9159 10.0308 7.94042 10.0215C7.96493 10.0122 7.99104 10.0079 8.01725 10.0087C8.04343 10.0094 8.06921 10.0153 8.09312 10.026C8.11703 10.0366 8.1386 10.0519 8.1566 10.071C8.17459 10.09 8.18866 10.1124 8.19799 10.1369C8.20733 10.1613 8.21175 10.1874 8.211 10.2136C8.16087 12.0062 8.232 13.6307 8.3765 13.9922C8.602 14.5558 8.944 15.0488 9.91087 14.8417C10.8287 14.6448 11.1725 14.2968 11.3256 13.4092C11.4431 12.7281 11.6755 10.7903 11.7041 10.4079C11.706 10.3818 11.7131 10.3563 11.7249 10.3329C11.7367 10.3095 11.753 10.2887 11.7728 10.2716C11.7927 10.2545 11.8157 10.2415 11.8406 10.2333C11.8655 10.2251 11.8917 10.222 11.9179 10.2239C11.9706 10.2279 12.0196 10.2527 12.0541 10.2928C12.0886 10.3328 12.1058 10.385 12.1019 10.4377C12.072 10.8358 11.8407 12.7698 11.7187 13.4771C11.538 14.5254 11.0706 15.0009 9.9945 15.2317C9.81162 15.2708 9.6455 15.2883 9.4945 15.2884ZM3.915 11.3083C3.82505 11.308 3.73574 11.2933 3.6505 11.2646C2.98212 11.0416 2.3455 9.95307 1.75825 8.02895C1.31125 6.56432 1.028 5.03557 1.00312 4.5387C0.929498 3.0657 1.30875 2.02357 2.13062 1.44145C3.7565 0.289448 6.49162 1.38645 6.60725 1.4337C6.65623 1.45371 6.69526 1.49235 6.71575 1.54113C6.73624 1.58992 6.73651 1.64484 6.7165 1.69382C6.69649 1.74281 6.65785 1.78183 6.60906 1.80232C6.56028 1.82281 6.50536 1.82308 6.45637 1.80307C6.43 1.79232 3.80725 0.741573 2.36037 1.76745C1.65762 2.2657 1.335 3.19145 1.40137 4.51882C1.42225 4.93745 1.68687 6.42945 2.13962 7.91245C2.66387 9.6302 3.2605 10.7141 3.77662 10.8862C3.85762 10.9132 4.10412 10.9953 4.4565 10.5716C4.86741 10.078 5.29375 9.59755 5.73487 9.13082C5.77178 9.09401 5.82164 9.0731 5.87377 9.07258C5.92589 9.07206 5.97616 9.09197 6.01379 9.12804C6.05143 9.16411 6.07346 9.21348 6.07515 9.26558C6.07685 9.31768 6.05808 9.36838 6.02287 9.40682C6.01687 9.41307 5.417 10.0402 4.76325 10.8267C4.45362 11.1991 4.15687 11.3083 3.915 11.3083ZM12.5936 9.6277C12.5575 9.62765 12.522 9.61777 12.491 9.59913C12.46 9.58048 12.4347 9.55377 12.4177 9.52184C12.4008 9.48991 12.3928 9.45397 12.3947 9.41786C12.3965 9.38175 12.4082 9.34682 12.4284 9.31682C14.2862 6.55995 14.9384 3.22882 14.3799 2.51507C13.6769 1.61682 12.6842 1.1477 11.4294 1.12057C10.5002 1.10057 9.76175 1.33782 9.641 1.3792L9.61062 1.39157C9.48925 1.4297 9.39612 1.3632 9.361 1.28545C9.34097 1.2409 9.33794 1.19057 9.35247 1.14394C9.367 1.09731 9.39809 1.05761 9.43987 1.03232C9.44562 1.02895 9.46387 1.0212 9.4935 1.01032C9.69862 0.935198 10.4484 0.710198 11.377 0.720823C12.7655 0.735573 13.9125 1.27095 14.6937 2.26932C15.0634 2.7417 15.0642 3.82995 14.6961 5.2552C14.3209 6.70832 13.6147 8.26995 12.759 9.53982C12.7207 9.59695 12.6577 9.6277 12.5936 9.6277ZM12.6886 10.9039C12.3714 10.9039 12.087 10.8592 11.9167 10.7572C11.7417 10.6523 11.7084 10.5098 11.704 10.4342C11.6562 9.59545 12.119 9.44945 12.355 9.38282C12.3221 9.33307 12.2754 9.27457 12.227 9.2142C12.0894 9.0422 11.9009 8.8067 11.7556 8.45445C11.7329 8.39945 11.6616 8.27157 11.5791 8.12345C11.1317 7.3212 10.2009 5.65182 10.7989 4.79695C11.0756 4.40132 11.6267 4.24557 12.4387 4.33245C12.1999 3.6047 11.0624 1.3282 8.36325 1.28395C7.5515 1.27045 6.88575 1.52007 6.3855 2.0252C5.2655 3.15632 5.306 5.20295 5.30662 5.22345C5.30731 5.24963 5.30284 5.27569 5.29346 5.30015C5.28407 5.3246 5.26997 5.34696 5.25194 5.36596C5.23391 5.38497 5.21232 5.40023 5.1884 5.41089C5.16447 5.42154 5.13868 5.42738 5.1125 5.42807C5.08632 5.42876 5.06025 5.42429 5.0358 5.41491C5.01135 5.40552 4.98898 5.39142 4.96998 5.37339C4.95098 5.35536 4.93572 5.33377 4.92506 5.30985C4.9144 5.28592 4.90856 5.26013 4.90787 5.23395C4.90537 5.14307 4.86362 2.99532 6.10212 1.74445C6.68175 1.15907 7.44475 0.870073 8.36987 0.885198C10.0966 0.913573 11.2081 1.79145 11.8364 2.52282C12.5212 3.31995 12.857 4.1992 12.8846 4.4927C12.9052 4.71095 12.7486 4.75457 12.717 4.76107L12.645 4.7627C11.8481 4.63507 11.3369 4.7237 11.1255 5.0257C10.6706 5.67582 11.5512 7.25495 11.9272 7.92932C12.0232 8.10132 12.0925 8.2257 12.1242 8.30245C12.2477 8.60195 12.4089 8.8032 12.5382 8.96495C12.6521 9.1072 12.7507 9.23057 12.786 9.37532C12.8024 9.40407 13.0347 9.74782 14.4136 9.4632C14.7592 9.39195 14.9665 9.45282 15.0299 9.64445C15.1545 10.0213 14.4552 10.4609 14.0681 10.6407C13.7212 10.8019 13.1676 10.9039 12.6886 10.9039ZM12.1016 10.4013C12.1454 10.4454 12.3642 10.5216 12.8175 10.5021C13.2205 10.4848 13.6455 10.3972 13.9005 10.2788C14.2266 10.1273 14.4444 9.95795 14.5571 9.84232L14.4946 9.85382C13.613 10.0358 12.9894 10.0116 12.6411 9.7817C12.6177 9.76626 12.5952 9.74953 12.5736 9.73157C12.5359 9.74645 12.501 9.7562 12.4761 9.7632C12.2786 9.81857 12.0744 9.87595 12.1016 10.4013ZM6.40637 11.5157C6.18737 11.5157 5.95687 11.4858 5.7215 11.4269C5.47762 11.3659 5.0665 11.1823 5.07275 10.8807C5.07987 10.5423 5.572 10.4408 5.75725 10.4027C6.4265 10.2648 6.47012 10.2096 6.67925 9.94395C6.74025 9.86657 6.81612 9.7702 6.91962 9.6547C7.07325 9.4827 7.24112 9.39557 7.41862 9.39557C7.54225 9.39557 7.64362 9.43745 7.71062 9.46532C7.92412 9.55382 8.10225 9.76782 8.1755 10.0237C8.24162 10.2546 8.21 10.4768 8.08675 10.6494C7.68212 11.2161 7.101 11.5157 6.40637 11.5157ZM5.50362 10.8978C5.56375 10.9443 5.68425 11.0064 5.81837 11.0399C6.02225 11.0909 6.22 11.1168 6.4065 11.1168C6.97475 11.1168 7.431 10.8816 7.76237 10.4176C7.8315 10.3208 7.81075 10.1979 7.79225 10.1333C7.7535 9.99795 7.65725 9.87482 7.55812 9.8337C7.50437 9.81145 7.45975 9.79445 7.41875 9.79445C7.39675 9.79445 7.32975 9.79445 7.217 9.92057C7.13918 10.0081 7.06439 10.0982 6.99275 10.1908C6.73225 10.5216 6.61287 10.6338 5.83787 10.7934C5.64875 10.8322 5.55175 10.8717 5.50362 10.8978ZM7.03725 9.97782C6.98963 9.97775 6.94362 9.96064 6.90751 9.92961C6.87141 9.89857 6.84759 9.85564 6.84037 9.80857C6.83537 9.77547 6.83203 9.74214 6.83037 9.7087C6.32237 9.6992 5.83225 9.4812 5.46012 9.09295C4.98962 8.60207 4.7755 7.92195 4.87275 7.22707C4.97837 6.47245 4.93887 5.80632 4.91762 5.44845C4.91175 5.34895 4.9075 5.27707 4.90775 5.22732C4.90812 5.1642 4.90937 4.99682 5.46887 4.7132C5.66787 4.61232 6.06687 4.43632 6.50275 4.3912C7.22487 4.31657 7.70087 4.6382 7.84337 5.29695C8.228 7.07545 7.87387 7.86207 7.61525 8.43657C7.56712 8.54357 7.52162 8.64457 7.48525 8.74245L7.45312 8.8287C7.3165 9.19507 7.19837 9.51157 7.23462 9.74795C7.2386 9.77384 7.23744 9.80025 7.23121 9.82569C7.22498 9.85113 7.21379 9.8751 7.1983 9.89621C7.1828 9.91733 7.16329 9.93518 7.14089 9.94876C7.11849 9.96233 7.09364 9.97136 7.06775 9.97532L7.03725 9.97782ZM5.30787 5.28257L5.31562 5.42495C5.33762 5.7967 5.37862 6.48845 5.26762 7.28245C5.1875 7.85557 5.3625 8.41495 5.748 8.81695C6.05262 9.1347 6.4535 9.31007 6.8655 9.31007H6.874C6.92012 9.1157 6.99675 8.91045 7.07925 8.68932L7.11112 8.60357C7.15225 8.49307 7.20037 8.38607 7.25137 8.27282C7.50025 7.71982 7.81012 7.03145 7.45325 5.38132C7.38262 5.05445 7.21125 4.86532 6.92962 4.80295C6.35112 4.6752 5.489 5.11032 5.30787 5.28257ZM6.51162 5.19795C6.50162 5.26845 6.64075 5.4567 6.82225 5.48182C7.00337 5.5072 7.15837 5.35995 7.16825 5.28945C7.17812 5.21895 7.03912 5.1412 6.85762 5.11595C6.67612 5.0907 6.52125 5.12745 6.51162 5.19795ZM6.86387 5.5512L6.813 5.5477C6.7005 5.53207 6.58675 5.4612 6.50887 5.35795C6.4815 5.3217 6.43687 5.25145 6.44575 5.1887C6.45837 5.0967 6.57062 5.04157 6.74575 5.04157C6.78487 5.04157 6.82562 5.04445 6.86662 5.0502C6.96237 5.06345 7.05125 5.09107 7.11687 5.1277C7.23062 5.1912 7.239 5.26207 7.23387 5.2987C7.21987 5.40032 7.05825 5.5512 6.86387 5.5512ZM6.57775 5.2097C6.58337 5.2532 6.69112 5.3967 6.83137 5.41607L6.864 5.41832C6.9935 5.41832 7.09025 5.31645 7.10162 5.28307C7.08962 5.26032 7.00637 5.20382 6.8485 5.18182C6.8145 5.17702 6.78021 5.17455 6.74587 5.17445C6.64437 5.17445 6.5905 5.19732 6.57775 5.2097ZM12.0284 5.05407C12.0382 5.12457 11.8992 5.31282 11.7179 5.33807C11.5366 5.36332 11.3815 5.2162 11.3715 5.1457C11.362 5.0752 11.501 4.99732 11.6822 4.9722C11.8635 4.94682 12.0184 4.9837 12.0284 5.05407ZM11.676 5.37407C11.5015 5.37407 11.3509 5.23832 11.3385 5.1502C11.3241 5.04445 11.4982 4.96407 11.6775 4.9392C11.717 4.9337 11.7561 4.93095 11.7937 4.93095C11.9485 4.93095 12.051 4.97632 12.0612 5.04957C12.0679 5.09695 12.0315 5.17007 11.9689 5.23607C11.9275 5.27945 11.8406 5.35457 11.7222 5.37095L11.676 5.37407ZM11.7939 4.99745C11.7592 4.99745 11.7235 4.99999 11.6869 5.00507C11.5067 5.0302 11.3992 5.10245 11.4045 5.1412C11.4105 5.18382 11.5255 5.3077 11.6761 5.3077L11.7132 5.30507C11.8116 5.29145 11.8855 5.2272 11.9207 5.1902C11.9761 5.13207 11.9981 5.07732 11.9955 5.0587C11.992 5.03395 11.9255 4.99745 11.7939 4.99745ZM12.2895 9.10282C12.2534 9.10284 12.2179 9.09304 12.1869 9.07445C12.1559 9.05587 12.1306 9.02921 12.1136 8.99732C12.0966 8.96544 12.0886 8.92953 12.0904 8.89344C12.0922 8.85735 12.1038 8.82244 12.124 8.79245C12.5487 8.15807 12.471 7.5112 12.3959 6.88557C12.3637 6.61907 12.3307 6.34345 12.3392 6.07895C12.348 5.80682 12.3826 5.58232 12.416 5.3652C12.4556 5.10795 12.4931 4.86495 12.4776 4.57645C12.4762 4.5503 12.48 4.52413 12.4887 4.49943C12.4974 4.47473 12.5109 4.45199 12.5283 4.4325C12.5458 4.41301 12.567 4.39716 12.5906 4.38584C12.6142 4.37453 12.6398 4.36798 12.666 4.36657C12.6921 4.36516 12.7183 4.36891 12.743 4.37762C12.7677 4.38632 12.7905 4.3998 12.8099 4.41729C12.8493 4.45262 12.873 4.50214 12.8759 4.55495C12.8936 4.8847 12.8512 5.1597 12.8102 5.42582C12.7786 5.6312 12.7459 5.84357 12.738 6.0917C12.7304 6.32595 12.7602 6.5747 12.7919 6.83795C12.8719 7.5032 12.9625 8.2572 12.4555 9.01432C12.4372 9.04156 12.4125 9.06388 12.3836 9.07931C12.3546 9.09474 12.3223 9.10282 12.2895 9.10282Z" fill="white"/>
</g>
<defs>
<clipPath id="clip0_19971_63658">
<rect width="16" height="16" fill="white"/>
</clipPath>
</defs>
</svg>
