<svg width="16" height="16" viewBox="0 0 16 16" fill="none" xmlns="http://www.w3.org/2000/svg">
<g clip-path="url(#clip0_19766_55593)">
<path d="M7.99998 9.18454C8.64398 9.18454 9.16598 8.66248 9.16598 8.01854C9.16598 7.3746 8.64398 6.85254 7.99998 6.85254C7.35598 6.85254 6.83398 7.3746 6.83398 8.01854C6.83398 8.66248 7.35605 9.18454 7.99998 9.18454Z" fill="#00D8FF"/>
<path d="M8.00012 5.64771C9.56562 5.64771 11.0199 5.87233 12.1165 6.24989C13.4377 6.70471 14.25 7.39414 14.25 8.01846C14.25 8.66902 13.3891 9.40146 11.9703 9.87152C10.8977 10.2269 9.48619 10.4124 8.00012 10.4124C6.4765 10.4124 5.03369 10.2383 3.94894 9.86758C2.57656 9.39852 1.75 8.65664 1.75 8.01846C1.75 7.39921 2.52562 6.71508 3.82825 6.26096C4.92887 5.87721 6.41906 5.64771 7.99988 5.64771H8.00012Z" stroke="#00D8FF" stroke-width="0.556938"/>
<path d="M5.93668 6.83987C6.7188 5.48375 7.63986 4.33612 8.51474 3.57487C9.56874 2.65756 10.5719 2.29831 11.1126 2.61012C11.6762 2.93512 11.8806 4.04687 11.5791 5.51075C11.3512 6.61744 10.8066 7.93281 10.0642 9.22019C9.30299 10.5401 8.43143 11.7029 7.56849 12.4572C6.47655 13.4117 5.42086 13.7571 4.86805 13.4383C4.33161 13.1292 4.12649 12.1154 4.38386 10.7601C4.6013 9.61487 5.14699 8.20931 5.93643 6.83987H5.93668Z" stroke="#00D8FF" stroke-width="0.556938"/>
<path d="M5.93732 9.22366C5.153 7.86904 4.619 6.49766 4.39613 5.35954C4.12782 3.98822 4.3175 2.93979 4.85782 2.62704C5.42088 2.30104 6.48607 2.67916 7.60369 3.67154C8.44869 4.42179 9.31638 5.55035 10.0609 6.83647C10.8243 8.1551 11.3964 9.49103 11.619 10.6153C11.9006 12.038 11.6727 13.1251 11.1204 13.4448C10.5845 13.755 9.60382 13.4266 8.55813 12.5267C7.67463 11.7665 6.72938 10.5918 5.93732 9.22366Z" stroke="#00D8FF" stroke-width="0.556938"/>
</g>
<defs>
<clipPath id="clip0_19766_55593">
<rect width="16" height="16" fill="white"/>
</clipPath>
</defs>
</svg>
