<svg width="16" height="16" viewBox="0 0 16 16" fill="none" xmlns="http://www.w3.org/2000/svg">
<g clip-path="url(#clip0_19971_63661)">
<path d="M9.31545 15.7339C8.90708 16.2485 8.07745 15.9667 8.06833 15.3093L7.92383 5.69604H14.3882C15.5588 5.69604 16.2116 7.04817 15.4836 7.96467L9.31545 15.7339Z" fill="url(#paint0_linear_19971_63661)"/>
<path d="M9.31545 15.7339C8.90708 16.2485 8.07745 15.9667 8.06833 15.3093L7.92383 5.69604H14.3882C15.5588 5.69604 16.2116 7.04817 15.4836 7.96467L9.31545 15.7339Z" fill="url(#paint1_linear_19971_63661)" fill-opacity="0.2"/>
<path d="M6.68515 0.266029C7.09352 -0.248596 7.92327 0.0332792 7.93227 0.690529L7.99577 10.3039H1.6124C0.441774 10.3039 -0.210976 8.95178 0.516899 8.03528L6.68515 0.266029Z" fill="#3ECF8E"/>
</g>
<defs>
<linearGradient id="paint0_linear_19971_63661" x1="7.92441" y1="7.8282" x2="13.6694" y2="10.2376" gradientUnits="userSpaceOnUse">
<stop stop-color="#249361"/>
<stop offset="1" stop-color="#3ECF8E"/>
</linearGradient>
<linearGradient id="paint1_linear_19971_63661" x1="5.37733" y1="4.34079" x2="7.99732" y2="9.273" gradientUnits="userSpaceOnUse">
<stop/>
<stop offset="1" stop-opacity="0"/>
</linearGradient>
<clipPath id="clip0_19971_63661">
<rect width="16" height="16" fill="white"/>
</clipPath>
</defs>
</svg>
