<svg width="16" height="16" viewBox="0 0 16 16" fill="none" xmlns="http://www.w3.org/2000/svg">
<path d="M13.5024 10.4884V4.67144L8.46107 1.76294V3.99919L10.4388 5.13675C10.5164 5.1755 10.5164 5.29188 10.4388 5.33069L8.08619 6.68794C8.02151 6.72675 7.93107 6.72675 7.86645 6.68794L5.51376 5.31775C5.43626 5.279 5.43626 5.16263 5.51376 5.12381L7.49157 3.98631V1.75L2.4502 4.6585V10.4884L4.3892 9.37669V7.08869C4.3892 7.01113 4.47963 6.9465 4.5572 6.99819L6.90982 8.3555C6.97451 8.39425 7.0262 8.47181 7.0262 8.54937V11.2639C7.0262 11.3415 6.9357 11.4061 6.85813 11.3544L4.88038 10.2169L2.94138 11.3286L7.98276 14.2371L13.0241 11.3286L11.0851 10.2169L9.10738 11.3544C9.04276 11.3933 8.93932 11.3415 8.93932 11.2639V8.54937C8.93932 8.47181 8.97813 8.39425 9.05563 8.3555L11.4083 6.99819C11.4729 6.95944 11.5763 7.01113 11.5763 7.08869V9.37669L13.5024 10.4884Z" fill="#4C4C4C"/>
<path d="M7.96973 14.2499L13.0111 11.3415L11.0721 10.2298L9.09435 11.3673C9.02973 11.4061 8.92629 11.3544 8.92629 11.2768V8.56226C8.92629 8.4847 8.9651 8.40714 9.04266 8.36839L11.3953 7.01107C11.4599 6.97232 11.5634 7.02401 11.5634 7.10157V9.38957L13.5023 10.5013V4.67139L7.96973 7.86426V14.2499Z" fill="black"/>
<path d="M8.44813 1.75V3.98625L10.4259 5.12381C10.5034 5.16256 10.5034 5.27894 10.4259 5.31775L8.07326 6.675C8.00863 6.71381 7.91813 6.71381 7.85351 6.675L5.51376 5.31775C5.43626 5.279 5.43626 5.16263 5.51376 5.12381L7.49157 3.98631V1.75L2.4502 4.6585L7.98276 7.85138L13.5153 4.6585L8.44813 1.75Z" fill="#808080"/>
<path d="M6.83256 11.3544L4.85475 10.2169L2.91581 11.3286L7.95713 14.2371V7.85139L2.4375 4.67139V10.5013L4.3765 9.38964V7.10164C4.3765 7.02407 4.467 6.95945 4.54456 7.01114L6.89719 8.36845C6.96181 8.4072 7.0135 8.48476 7.0135 8.56232V11.2769C7.00056 11.3415 6.91012 11.3933 6.83256 11.3544Z" fill="#4C4C4C"/>
</svg>
