<svg width="16" height="16" viewBox="0 0 16 16" fill="none" xmlns="http://www.w3.org/2000/svg">
<g clip-path="url(#clip0_19766_55589)">
<path d="M13.5034 10.4884V4.67144L8.46205 1.76294V3.99919L10.4398 5.13675C10.5174 5.1755 10.5174 5.29188 10.4398 5.33069L8.08717 6.68794C8.02248 6.72675 7.93205 6.72675 7.86742 6.68794L5.51473 5.31775C5.43723 5.279 5.43723 5.16263 5.51473 5.12381L7.49255 3.98631V1.75L2.45117 4.6585V10.4884L4.39017 9.37669V7.08869C4.39017 7.01113 4.48061 6.9465 4.55817 6.99819L6.9108 8.3555C6.97548 8.39425 7.02717 8.47181 7.02717 8.54937V11.2639C7.02717 11.3415 6.93667 11.4061 6.85911 11.3544L4.88136 10.2169L2.94236 11.3286L7.98373 14.2371L13.0251 11.3286L11.0861 10.2169L9.10836 11.3544C9.04373 11.3933 8.9403 11.3415 8.9403 11.2639V8.54937C8.9403 8.47181 8.97911 8.39425 9.05661 8.3555L11.4093 6.99819C11.4739 6.95944 11.5773 7.01113 11.5773 7.08869V9.37669L13.5034 10.4884Z" fill="#4C4C4C"/>
<path d="M7.9707 14.2499L13.0121 11.3415L11.0731 10.2298L9.09533 11.3673C9.0307 11.4061 8.92727 11.3544 8.92727 11.2768V8.56226C8.92727 8.4847 8.96608 8.40714 9.04364 8.36839L11.3963 7.01107C11.4609 6.97232 11.5643 7.02401 11.5643 7.10157V9.38957L13.5033 10.5013V4.67139L7.9707 7.86426V14.2499Z" fill="black"/>
<path d="M8.44911 1.75V3.98625L10.4269 5.12381C10.5044 5.16256 10.5044 5.27894 10.4269 5.31775L8.07423 6.675C8.00961 6.71381 7.91911 6.71381 7.85448 6.675L5.51473 5.31775C5.43723 5.279 5.43723 5.16263 5.51473 5.12381L7.49255 3.98631V1.75L2.45117 4.6585L7.98373 7.85138L13.5163 4.6585L8.44911 1.75Z" fill="#808080"/>
<path d="M6.83256 11.3544L4.85475 10.2169L2.91581 11.3286L7.95713 14.2371V7.85139L2.4375 4.67139V10.5013L4.3765 9.38964V7.10164C4.3765 7.02407 4.467 6.95945 4.54456 7.01114L6.89719 8.36845C6.96181 8.4072 7.0135 8.48476 7.0135 8.56232V11.2769C7.00056 11.3415 6.91012 11.3933 6.83256 11.3544Z" fill="#4C4C4C"/>
</g>
<defs>
<clipPath id="clip0_19766_55589">
<rect width="16" height="16" fill="white"/>
</clipPath>
</defs>
</svg>
