<svg width="120" height="50" viewBox="0 0 120 50" fill="none" xmlns="http://www.w3.org/2000/svg">
<path d="M5.4773 9.1119H12.6508C18.8348 9.1119 23.4641 11.4795 23.4641 17.4515V27.5227C23.4641 33.6361 18.7288 35.8977 12.6508 35.8977H5.44196C3.63976 35.8977 2.68564 34.9082 2.68564 33.3534V11.5148C2.68564 10.2074 3.81644 9.1119 5.4773 9.1119ZM8.79902 13.4584V31.4805H12.6508C15.6545 31.4805 17.3507 30.2437 17.3507 27.5227V17.4515C17.3507 14.7306 15.6545 13.4584 12.6508 13.4584H8.79902ZM33.793 28.9362C33.8283 30.9504 35.6305 32.1166 38.5635 32.1166C40.4364 32.1166 42.2033 31.3745 43.2634 31.0211C44.4295 30.6324 45.6664 30.5264 46.3731 31.6572C46.9385 32.5406 46.8678 33.7421 45.7017 34.4135C44.3589 35.2969 41.6732 36.1097 38.4222 36.1097C32.0968 36.1097 28.139 33.1413 27.8563 28.7948C27.7856 27.558 27.7856 26.3919 27.8563 25.1904C27.927 21.3386 31.9908 17.9816 37.7861 17.9816C42.9807 17.9816 47.3272 21.0559 47.3272 25.1551C47.3272 28.4415 44.9949 28.9362 42.6273 28.9362H33.793ZM40.6131 25.1551C41.4259 25.1551 41.6732 25.1198 41.6732 24.6957C41.6732 23.2115 39.977 22.0454 37.7508 22.0454C35.6305 22.0454 33.793 23.0348 33.793 24.5897V25.1551H40.6131ZM49.0567 21.3386C48.562 20.2079 48.88 18.7944 50.6822 18.1583C52.2371 17.5929 53.7566 18.1583 54.428 19.6425L58.7392 29.2896C60.0467 26.1799 61.8842 22.1514 63.227 19.1124C63.5451 18.441 64.6052 17.5222 66.5487 18.0876C68.1389 18.547 68.9517 19.9958 68.3156 21.374L62.591 33.7421C62.2022 34.6609 60.8948 36.0744 58.7392 36.0744C56.3009 36.0744 55.2408 34.6255 54.8167 33.7421L49.0567 21.3386ZM71.5798 27.6994V11.7269C71.5798 9.92466 73.0993 9.1119 74.6895 9.1119C76.3504 9.1119 77.6932 9.96 77.6932 11.7269V27.6994C77.6932 30.491 79.6368 31.6925 82.7464 31.6925C85.7501 31.6925 87.5877 30.491 87.5877 27.6994V11.7269C87.5877 9.92466 89.1072 9.1119 90.6974 9.1119C92.1815 9.1119 93.701 9.96 93.701 11.7269V27.6994C93.701 33.8481 88.7185 36.0744 82.7464 36.0744C76.5271 36.0744 71.5798 33.8481 71.5798 27.6994ZM108.418 18.0523C113.613 18.0523 117.959 20.5966 118.136 25.4025C118.171 26.6393 118.136 27.6994 118.136 28.7595C118.136 33.318 113.613 36.1097 108.418 36.1097C106.934 36.1097 105.627 35.7917 104.531 35.2969V40.7389C104.531 42.6471 103.754 43.6366 101.457 43.6366C99.7252 43.6366 98.5944 42.8945 98.5944 41.269V20.8793C98.5944 19.0771 100.043 18.2643 101.563 18.2643C102.552 18.2643 103.471 18.5117 104.001 19.3598C105.202 18.6177 106.651 18.0523 108.418 18.0523ZM104.602 28.8302C104.602 30.7737 106.263 31.9045 108.418 31.9045C110.468 31.9045 111.952 30.7737 112.129 28.8302C112.27 27.5934 112.235 26.4272 112.129 25.1904C111.987 23.2469 110.503 22.3281 108.418 22.3281C106.333 22.3281 104.884 23.4589 104.602 25.2964C104.531 28.2648 104.566 28.5475 104.602 28.8302Z" fill="#58677D"/>
</svg>
