<svg width="28" height="28" viewBox="0 0 28 28" fill="none" xmlns="http://www.w3.org/2000/svg">
<path d="M19.5625 4.1665H8.9375C6.34867 4.1665 4.25 6.26517 4.25 8.854V19.479C4.25 22.0678 6.34867 24.1665 8.9375 24.1665H19.5625C22.1513 24.1665 24.25 22.0678 24.25 19.479V8.854C24.25 6.26517 22.1513 4.1665 19.5625 4.1665Z" fill="#58677D"/>
<path d="M19.5625 4.1665H8.9375C6.34867 4.1665 4.25 6.26517 4.25 8.854V19.479C4.25 22.0678 6.34867 24.1665 8.9375 24.1665H19.5625C22.1513 24.1665 24.25 22.0678 24.25 19.479V8.854C24.25 6.26517 22.1513 4.1665 19.5625 4.1665Z" fill="#58677D"/>
<path d="M14.2507 6.354C12.129 6.354 11.8627 6.3633 11.0294 6.40119C10.1977 6.43932 9.62992 6.57096 9.1332 6.76416C8.6193 6.96369 8.18344 7.23064 7.74922 7.66502C7.31461 8.09932 7.04766 8.53518 6.8475 9.04885C6.65375 9.54572 6.52195 10.1137 6.48453 10.945C6.44727 11.7784 6.4375 12.0448 6.4375 14.1666C6.4375 16.2884 6.44688 16.5538 6.48469 17.3871C6.52297 18.2188 6.65461 18.7866 6.84766 19.2833C7.04734 19.7972 7.3143 20.2331 7.74867 20.6673C8.18281 21.1019 8.61867 21.3695 9.13219 21.569C9.6293 21.7622 10.1971 21.8938 11.0287 21.932C11.862 21.9699 12.1281 21.9792 14.2498 21.9792C16.3717 21.9792 16.6372 21.9699 17.4705 21.932C18.3022 21.8938 18.8705 21.7622 19.3677 21.569C19.8813 21.3695 20.3166 21.1019 20.7506 20.6673C21.1852 20.2331 21.4521 19.7972 21.6523 19.2835C21.8444 18.7866 21.9762 18.2187 22.0153 17.3873C22.0527 16.554 22.0625 16.2884 22.0625 14.1666C22.0625 12.0448 22.0527 11.7785 22.0153 10.9452C21.9762 10.1135 21.8444 9.5458 21.6523 9.04908C21.4521 8.53518 21.1852 8.09932 20.7506 7.66502C20.3161 7.23049 19.8815 6.96354 19.3672 6.76424C18.8691 6.57096 18.3011 6.43924 17.4694 6.40119C16.636 6.3633 16.3707 6.354 14.2483 6.354H14.2507ZM13.5498 7.76189C13.7579 7.76158 13.99 7.76189 14.2507 7.76189C16.3367 7.76189 16.5839 7.76939 17.4077 7.80682C18.1694 7.84166 18.5828 7.96893 18.8582 8.07588C19.2228 8.21744 19.4827 8.38674 19.756 8.66025C20.0295 8.93369 20.1987 9.19408 20.3406 9.55869C20.4476 9.83369 20.575 10.2471 20.6097 11.0088C20.6471 11.8324 20.6552 12.0798 20.6552 14.1648C20.6552 16.2498 20.6471 16.4972 20.6097 17.3207C20.5748 18.0824 20.4476 18.4959 20.3406 18.771C20.1991 19.1356 20.0295 19.3952 19.756 19.6685C19.4826 19.9419 19.223 20.1111 18.8582 20.2528C18.5831 20.3602 18.1694 20.4871 17.4077 20.522C16.5841 20.5594 16.3367 20.5675 14.2507 20.5675C12.1646 20.5675 11.9173 20.5594 11.0938 20.522C10.3321 20.4868 9.91867 20.3596 9.64305 20.2526C9.27852 20.111 9.01805 19.9417 8.74461 19.6683C8.47117 19.3949 8.30195 19.1351 8.16 18.7703C8.05305 18.4953 7.92562 18.0818 7.89094 17.3201C7.85352 16.4965 7.84602 16.2492 7.84602 14.1628C7.84602 12.0765 7.85352 11.8305 7.89094 11.0069C7.92578 10.2452 8.05305 9.83174 8.16 9.55635C8.30164 9.19174 8.47117 8.93135 8.74469 8.65791C9.0182 8.38447 9.27852 8.21518 9.64312 8.0733C9.91852 7.96588 10.3321 7.83893 11.0938 7.80393C11.8145 7.77135 12.0938 7.76158 13.5498 7.75994V7.76189ZM18.421 9.05908C17.9034 9.05908 17.4835 9.47861 17.4835 9.99627C17.4835 10.5138 17.9034 10.9338 18.421 10.9338C18.9386 10.9338 19.3585 10.5138 19.3585 9.99627C19.3585 9.47869 18.9386 9.05877 18.421 9.05877V9.05908ZM14.2507 10.1545C12.0351 10.1545 10.2387 11.9509 10.2387 14.1666C10.2387 16.3823 12.0351 18.1778 14.2507 18.1778C16.4664 18.1778 18.2622 16.3823 18.2622 14.1666C18.2622 11.951 16.4663 10.1545 14.2505 10.1545H14.2507ZM14.2507 11.5624C15.6889 11.5624 16.8549 12.7282 16.8549 14.1666C16.8549 15.6048 15.6889 16.7708 14.2507 16.7708C12.8125 16.7708 11.6466 15.6048 11.6466 14.1666C11.6466 12.7282 12.8124 11.5624 14.2507 11.5624Z" fill="#F8FAFC"/>
</svg>
