<svg width="28" height="28" viewBox="0 0 28 28" fill="none" xmlns="http://www.w3.org/2000/svg">
<g opacity="0.6">
<path fill-rule="evenodd" clip-rule="evenodd" d="M7.82892 21.305C4.0142 17.9948 6.48156 10.6252 12.3459 11.5526V12.2352C7.39324 12.0045 5.21316 17.9125 7.82892 21.305ZM18.526 8.52016C19.1286 9.00176 19.9596 9.3568 21.1054 9.42456V10.0932C19.8376 9.85912 19.0345 9.22912 18.526 8.52016ZM16.9356 5C16.9345 5.24696 16.967 5.51184 17.0073 5.75376H14.6693V17.3939C14.6693 17.9304 14.6144 18.4086 14.5041 18.8275C13.5521 20.9258 10.8563 20.652 10.1115 19.2117C11.2203 19.9061 13.0442 19.7218 13.7924 18.0738C13.9016 17.6554 13.9564 17.1766 13.9564 16.6402V5H16.9356Z" fill="#58677D"/>
<path fill-rule="evenodd" clip-rule="evenodd" d="M17.648 5.75391V5.76903C17.6491 6.03839 17.7275 9.93543 21.8177 10.179C21.8177 13.8045 21.8194 10.179 21.8194 13.1901C21.512 13.2086 19.1275 13.0361 17.6435 11.7123L17.639 17.5744C17.676 20.2288 16.1981 22.8317 13.4317 23.3564C12.6567 23.5031 11.9589 23.5199 10.7874 23.264C4.03885 21.2446 6.28109 11.2352 13.0571 12.3065C13.0571 15.5377 13.0588 12.3053 13.0588 15.5377C10.2593 15.1261 9.32301 17.4545 10.0667 19.1222C10.7437 20.6404 13.5309 20.9697 14.503 18.8277C14.6133 18.4088 14.6682 17.9305 14.6682 17.3941V5.75391H17.648Z" fill="#334155"/>
<path fill-rule="evenodd" clip-rule="evenodd" d="M12.3456 12.2353C12.5769 12.2454 12.8143 12.2684 13.0573 12.307C13.0573 15.5382 13.059 12.3059 13.059 15.5382C10.2596 15.1266 9.32325 17.4551 10.0669 19.1228C10.0804 19.153 10.0955 19.1833 10.1106 19.2129C9.77797 19.0046 9.50973 18.7185 9.35405 18.369C8.61093 16.7013 9.54669 14.3729 12.3456 14.7845C12.3461 11.8226 12.3456 14.2866 12.3456 12.2353ZM21.1045 10.0939C21.3274 10.1348 21.5649 10.1645 21.8174 10.179C21.8174 13.8045 21.8191 10.179 21.8191 13.1901C21.5117 13.2086 19.1272 13.0361 17.6432 11.7123L17.6387 17.5744C17.6757 20.2288 16.1978 22.8317 13.4314 23.3564C12.6564 23.5031 11.9586 23.5199 10.7871 23.264C9.46829 22.8697 8.49445 22.1686 7.82861 21.3057C8.42165 21.8209 9.16645 22.2386 10.0759 22.5108C11.2463 22.7656 11.9441 22.7493 12.7191 22.6026C15.4855 22.0779 16.9628 19.475 16.9269 16.8217L16.9309 10.9591C18.4149 12.2829 20.7993 12.456 21.1079 12.4369C21.1073 9.63975 21.1045 12.5663 21.1045 10.0939ZM17.6477 5.75391V5.76903C17.6477 5.92751 17.6762 7.33479 18.5252 8.52031C17.5015 7.70159 17.1364 6.51831 17.0065 5.75391H17.6477Z" fill="#C7D0DC"/>
</g>
</svg>
