<svg width="28" height="28" viewBox="0 0 28 28" fill="none" xmlns="http://www.w3.org/2000/svg">
<g clip-path="url(#clip0_19958_59317)">
<path d="M25.9584 8.54755C25.8179 8.05515 25.5438 7.60624 25.1634 7.24553C24.7829 6.88482 24.3095 6.6249 23.7902 6.49163C21.8889 6 14.2371 6 14.2371 6C14.2371 6 6.58486 6.01488 4.68362 6.50651C4.16429 6.63979 3.69084 6.89973 3.31042 7.26045C2.93 7.62118 2.65588 8.0701 2.51537 8.56252C1.94029 11.7655 1.71721 16.6461 2.53116 19.7209C2.67169 20.2133 2.94581 20.6622 3.32623 21.0229C3.70665 21.3836 4.18009 21.6436 4.69941 21.7768C6.60065 22.2685 14.2527 22.2685 14.2527 22.2685C14.2527 22.2685 21.9046 22.2685 23.8058 21.7768C24.3251 21.6436 24.7986 21.3837 25.179 21.0229C25.5594 20.6622 25.8336 20.2133 25.9741 19.7209C26.5807 16.5134 26.7676 11.6358 25.9584 8.54755Z" fill="#58677D"/>
<path d="M11.8022 17.6196L18.15 14.1335L11.8022 10.6475V17.6196Z" fill="#F8FAFC"/>
</g>
<defs>
<clipPath id="clip0_19958_59317">
<rect width="24.5" height="16.3333" fill="white" transform="translate(2 6)"/>
</clipPath>
</defs>
</svg>
