<svg width="232" height="255" viewBox="0 0 232 255" fill="none" xmlns="http://www.w3.org/2000/svg">
<path fill-rule="evenodd" clip-rule="evenodd" d="M184.631 230.417C186.671 230.52 188.293 232.207 188.293 234.272V243.925L188.288 244.123C188.188 246.097 186.605 247.68 184.631 247.78L184.433 247.785H132.313L132.115 247.78C130.141 247.68 128.558 246.097 128.458 244.123L128.453 243.925V234.272C128.454 232.141 130.182 230.412 132.313 230.412H184.433L184.631 230.417ZM132.313 232.343C131.248 232.343 130.384 233.207 130.384 234.272V243.925C130.384 244.991 131.248 245.854 132.313 245.854H184.433C185.498 245.854 186.362 244.991 186.362 243.925V234.272C186.362 233.207 185.498 232.343 184.433 232.343H132.313Z" fill="#004D39"/>
<path fill-rule="evenodd" clip-rule="evenodd" d="M174.783 186.02C175.316 186.02 175.748 186.452 175.748 186.984V193.74H170.108C170.109 193.79 170.106 193.842 170.099 193.893C169.495 197.818 170.468 206.707 179.025 211.116H190.223C192.354 211.116 194.083 212.845 194.084 214.977V222.691H205.667L205.865 222.696C207.905 222.8 209.527 224.487 209.527 226.552V251.646H219.177L219.375 251.651C221.415 251.755 223.037 253.442 223.037 255.507V261.298L223.032 261.497C222.932 263.471 221.349 265.053 219.375 265.153L219.177 265.159H95.6357L95.4375 265.153C93.3977 265.05 91.7754 263.363 91.7754 261.298V255.507C91.7758 253.375 93.504 251.647 95.6357 251.646H105.29V226.552C105.291 224.42 107.019 222.692 109.15 222.691H120.731V214.977C120.732 212.845 122.46 211.116 124.592 211.116H136.91C145.467 206.707 146.441 197.818 145.837 193.893C145.829 193.842 145.826 193.79 145.826 193.74H139.072V186.984C139.073 186.452 139.504 186.02 140.037 186.02C140.57 186.02 141.002 186.452 141.002 186.984V191.811H173.817V186.984C173.818 186.452 174.25 186.02 174.783 186.02ZM95.6357 253.577C94.5701 253.577 93.7064 254.441 93.7061 255.507V261.298C93.7061 262.364 94.5699 263.228 95.6357 263.229H219.177C220.243 263.228 221.106 262.364 221.106 261.298V255.507C221.106 254.441 220.242 253.577 219.177 253.577H95.6357ZM109.15 224.622C108.085 224.623 107.221 225.486 107.221 226.552V251.646H207.597V226.552C207.596 225.486 206.733 224.622 205.667 224.622H194.084V224.629H120.731V224.622H109.15ZM124.592 213.047C123.526 213.047 122.663 213.911 122.662 214.977V222.691H192.153V214.977C192.153 213.911 191.288 213.047 190.223 213.047H124.592ZM147.764 193.74C148.326 197.71 147.491 205.928 140.551 211.116H175.385C168.444 205.928 167.609 197.71 168.171 193.74H147.764Z" fill="#004D39"/>
<path d="M112.528 109.789C113.061 109.789 113.493 110.221 113.493 110.754C113.493 116.342 113.973 125.263 115.41 133.83C116.129 138.113 117.083 142.287 118.327 145.9C119.576 149.528 121.092 152.519 122.895 154.502C123.253 154.896 123.223 155.507 122.829 155.865C122.435 156.224 121.824 156.195 121.466 155.801C119.408 153.537 117.787 150.261 116.502 146.528C115.212 142.781 114.236 138.496 113.507 134.149C112.049 125.457 111.563 116.426 111.563 110.754C111.564 110.221 111.996 109.789 112.528 109.789Z" fill="#004D39"/>
<path fill-rule="evenodd" clip-rule="evenodd" d="M154.657 120.174C155.524 117.506 159.298 117.506 160.165 120.174L162.828 128.371C163.192 129.489 164.192 130.269 165.349 130.362L165.582 130.372H174.201C177.006 130.372 178.173 133.961 175.903 135.609L168.931 140.676L168.747 140.82C167.866 141.576 167.516 142.795 167.879 143.913L170.542 152.11C171.408 154.778 168.355 156.996 166.086 155.348L159.113 150.281C158.098 149.544 156.724 149.544 155.709 150.281L148.736 155.348L148.521 155.491C146.28 156.857 143.441 154.694 144.28 152.11L146.944 143.913C147.332 142.72 146.906 141.413 145.892 140.676L138.919 135.609C136.721 134.012 137.746 130.594 140.362 130.382L140.621 130.372H149.24L149.474 130.362C150.554 130.275 151.497 129.59 151.913 128.59L151.994 128.371L154.657 120.174ZM158.329 120.77C158.04 119.881 156.782 119.881 156.493 120.77L153.83 128.968C153.184 130.956 151.331 132.302 149.24 132.302H140.621C139.686 132.302 139.297 133.498 140.054 134.048L147.026 139.114C148.718 140.343 149.425 142.521 148.779 144.51L146.116 152.707C145.828 153.596 146.845 154.335 147.602 153.786L154.574 148.72C156.266 147.491 158.557 147.491 160.248 148.72L167.221 153.786C167.977 154.336 168.995 153.596 168.706 152.707L166.043 144.51C165.397 142.522 166.105 140.343 167.796 139.114L174.769 134.048C175.525 133.498 175.136 132.302 174.201 132.302H165.582C163.492 132.302 161.638 130.956 160.992 128.968L158.329 120.77Z" fill="#004D39"/>
<path fill-rule="evenodd" clip-rule="evenodd" d="M210.734 88.5547C214.108 88.5547 217.016 91.0555 217.32 94.4688C217.508 96.5763 217.65 98.7831 217.735 101.065C218.354 117.569 216.066 138.204 207.175 154.666C202.722 162.91 196.604 170.126 188.351 175.234C180.093 180.345 169.753 183.313 156.914 183.14C131.239 182.793 115.679 170.364 106.741 153.934C97.8406 137.57 95.5186 117.278 96.1094 101.066C96.1929 98.7757 96.3345 96.5635 96.5244 94.4531C96.8313 91.0456 99.7383 88.5549 103.104 88.5547H210.734ZM98.0098 102.066C97.5474 117.93 99.9319 137.375 108.437 153.011C117.072 168.886 132.026 180.873 156.939 181.21C169.454 181.379 179.424 178.488 187.334 173.593C195.248 168.694 201.152 161.755 205.477 153.749C213.975 138.014 216.328 118.229 215.836 102.066H98.0098ZM103.104 90.4844C100.682 90.4846 98.6598 92.2679 98.4473 94.626C98.2882 96.3937 98.1664 98.2357 98.082 100.137H215.763C215.677 98.2426 215.555 96.4057 215.398 94.6406C215.188 92.2756 213.162 90.4844 210.734 90.4844H103.104Z" fill="#004D39"/>
<path fill-rule="evenodd" clip-rule="evenodd" d="M243.982 161.895C245.017 165.617 249.259 169.625 252.477 170.456C249.259 171.287 244.844 176.165 243.982 179.268C243.12 176.165 238.964 171.454 235.104 170.456C238.321 169.625 242.948 165.617 243.982 161.895ZM243.944 166.139C243.267 167.063 242.486 167.92 241.677 168.673C240.979 169.322 240.221 169.931 239.438 170.466C240.393 171.143 241.28 171.925 242.058 172.732C242.76 173.461 243.417 174.256 243.99 175.073C244.578 174.235 245.247 173.422 245.941 172.686C246.655 171.929 247.462 171.181 248.317 170.526C247.518 169.965 246.751 169.321 246.055 168.634C245.296 167.885 244.572 167.042 243.944 166.139Z" fill="#004D39"/>
<path d="M58 121.839C58.003 107.711 71.1237 94.714 90.0488 98.6963C90.5701 98.8061 90.9042 99.3185 90.7949 99.8398C90.685 100.361 90.1728 100.695 89.6514 100.585C71.8989 96.8494 59.9323 108.965 59.9297 121.84C59.9287 128.382 61.6669 133.187 65.4219 137.564C69.2247 141.998 75.1288 146.033 83.5771 150.925C88.1519 153.574 91.7618 155.633 94.5605 157.312C97.3518 158.986 99.3964 160.318 100.824 161.518C102.256 162.721 103.162 163.87 103.541 165.205C103.918 166.531 103.729 167.886 103.328 169.383C102.963 170.746 101.619 172.421 99.5449 173.228C97.4019 174.061 94.5689 173.945 91.2686 171.882C90.8173 171.599 90.6796 171.003 90.9619 170.552C91.2444 170.1 91.8403 169.963 92.292 170.245C95.1682 172.043 97.364 172.004 98.8447 171.429C100.394 170.826 101.269 169.605 101.463 168.884C101.837 167.486 101.916 166.547 101.685 165.732C101.455 164.926 100.876 164.083 99.582 162.995C98.2826 161.903 96.3557 160.64 93.5674 158.967C90.7858 157.298 87.2031 155.255 82.6104 152.596C74.1554 147.7 67.9929 143.526 63.957 138.821C59.874 134.061 57.9988 128.798 58 121.839Z" fill="#004D39"/>
<path d="M223.806 98.6963C242.731 94.7139 255.851 107.711 255.854 121.839C255.856 128.798 253.981 134.061 249.897 138.821C245.862 143.526 239.699 147.7 231.244 152.596C226.651 155.255 223.069 157.298 220.287 158.967C217.499 160.64 215.572 161.903 214.272 162.995C212.978 164.083 212.399 164.926 212.17 165.732C211.938 166.547 212.017 167.486 212.392 168.884C212.585 169.605 213.461 170.826 215.01 171.429C216.49 172.004 218.686 172.043 221.562 170.245C222.014 169.963 222.61 170.101 222.893 170.552C223.175 171.004 223.037 171.599 222.586 171.882C219.286 173.945 216.453 174.061 214.31 173.228C212.235 172.421 210.892 170.746 210.526 169.383C210.125 167.886 209.937 166.531 210.313 165.205C210.693 163.87 211.598 162.721 213.03 161.518C214.458 160.318 216.503 158.986 219.294 157.312C222.093 155.633 225.703 153.574 230.277 150.925C238.726 146.033 244.63 141.998 248.433 137.564C252.188 133.187 253.926 128.382 253.925 121.84C253.922 108.965 241.956 96.8493 224.203 100.585C223.682 100.694 223.169 100.361 223.06 99.8398C222.95 99.3186 223.285 98.8062 223.806 98.6963Z" fill="#004D39"/>
<path d="M75.7734 110.213C79.696 107.257 85.1406 106.274 91.2754 108.203C91.7836 108.363 92.0659 108.905 91.9062 109.413C91.7462 109.921 91.2047 110.204 90.6963 110.044C85.0752 108.277 80.2962 109.222 76.9355 111.755C73.564 114.296 71.5055 118.52 71.5059 123.528C71.5065 128.409 74.726 133.745 79.6377 138.434C84.5203 143.095 90.9116 146.954 96.9004 148.911C97.4069 149.077 97.6829 149.622 97.5176 150.129C97.3517 150.635 96.8071 150.911 96.3008 150.746C90.0233 148.695 83.3844 144.679 78.3047 139.83C73.2543 135.009 69.5768 129.197 69.5762 123.528C69.5758 117.987 71.8622 113.161 75.7734 110.213Z" fill="#004D39"/>
<path d="M222.58 108.203C228.715 106.274 234.159 107.257 238.082 110.213C241.993 113.161 244.28 117.987 244.279 123.528C244.279 129.198 240.601 135.009 235.551 139.83C230.471 144.679 223.832 148.695 217.555 150.746C217.048 150.911 216.504 150.635 216.338 150.129C216.173 149.623 216.449 149.077 216.955 148.911C222.944 146.954 229.335 143.095 234.218 138.434C239.13 133.745 242.349 128.409 242.35 123.528C242.35 118.52 240.291 114.296 236.92 111.755C233.559 109.222 228.78 108.277 223.159 110.044C222.651 110.204 222.109 109.921 221.949 109.413C221.79 108.905 222.072 108.363 222.58 108.203Z" fill="#004D39"/>
<path fill-rule="evenodd" clip-rule="evenodd" d="M99.3057 48C100.857 53.7909 107.221 60.0252 112.047 61.3184C107.221 62.6114 100.599 70.1986 99.3057 75.0244C98.0125 70.1986 91.7781 62.8701 85.9873 61.3184C90.8131 60.0253 97.754 53.7909 99.3057 48ZM99.2695 52.7607C98.1562 54.5708 96.7322 56.2699 95.2148 57.7344C93.7946 59.1051 92.2143 60.3438 90.6191 61.3193C92.4938 62.4914 94.2481 64.0163 95.7471 65.6289C97.1135 67.099 98.3456 68.7268 99.3154 70.3525C100.312 68.6938 101.573 67.0325 102.923 65.5479C104.32 64.0111 105.932 62.5304 107.6 61.3867C106.005 60.3902 104.45 59.1095 103.067 57.6943C101.637 56.2306 100.312 54.5463 99.2695 52.7607Z" fill="#004D39"/>
</svg>
