<svg width="232" height="255" viewBox="0 0 232 255" fill="none" xmlns="http://www.w3.org/2000/svg">
<path d="M247.418 188.925C247.943 188.925 248.369 189.351 248.369 189.876C248.369 190.401 247.943 190.827 247.418 190.827H68.0274C67.5023 190.827 67.0766 190.401 67.0762 189.876C67.0762 189.351 67.5021 188.925 68.0274 188.925H247.418Z" fill="#004D39"/>
<path fill-rule="evenodd" clip-rule="evenodd" d="M170.197 99.3579C171.661 98.0063 173.953 99.528 173.275 101.401L163.823 127.515H189.56C191.294 127.515 192.124 129.647 190.846 130.82L140.329 177.155C138.853 178.508 136.556 176.954 137.264 175.08L148.897 144.281H126.407C124.676 144.28 123.846 142.156 125.118 140.982L170.197 99.3579ZM126.407 142.379H148.897C150.226 142.379 151.146 143.709 150.676 144.953L139.044 175.752L189.56 129.417H163.823C162.504 129.417 161.586 128.107 162.034 126.867L171.486 100.755L126.407 142.379Z" fill="#004D39"/>
<path fill-rule="evenodd" clip-rule="evenodd" d="M219.876 136.947C220.864 140.634 224.916 144.604 227.988 145.427C224.916 146.25 220.699 151.082 219.876 154.155C219.052 151.082 215.083 146.415 211.395 145.427C214.468 144.604 218.888 140.634 219.876 136.947ZM219.84 141.208C219.209 142.088 218.487 142.906 217.738 143.629C217.061 144.282 216.321 144.896 215.557 145.434C216.488 146.115 217.351 146.904 218.104 147.714C218.748 148.407 219.352 149.161 219.883 149.936C220.428 149.141 221.043 148.37 221.681 147.667C222.373 146.907 223.162 146.155 223.998 145.496C223.216 144.93 222.466 144.282 221.789 143.59C221.089 142.873 220.425 142.066 219.84 141.208Z" fill="#004D39"/>
<path fill-rule="evenodd" clip-rule="evenodd" d="M98.3005 104.805C99.2885 108.492 103.34 112.462 106.413 113.285C103.34 114.108 99.1238 118.94 98.3005 122.013C97.4771 118.94 93.5074 114.273 89.8201 113.285C92.8928 112.462 97.3124 108.492 98.3005 104.805ZM98.2652 109.066C97.6339 109.946 96.9112 110.764 96.1622 111.487C95.4852 112.14 94.746 112.754 93.9813 113.293C94.9131 113.973 95.7752 114.762 96.5282 115.572C97.1729 116.266 97.7768 117.02 98.3079 117.794C98.8526 116.999 99.4676 116.228 100.106 115.525C100.797 114.765 101.586 114.013 102.423 113.354C101.641 112.788 100.891 112.14 100.214 111.448C99.5132 110.731 98.8493 109.924 98.2652 109.066Z" fill="#004D39"/>
<path d="M247.418 84.5966C247.943 84.5966 248.369 85.0225 248.369 85.5478C248.369 86.0731 247.943 86.4989 247.418 86.4989H68.0274C67.5021 86.4989 67.0762 86.0731 67.0762 85.5478C67.0762 85.0225 67.5021 84.5966 68.0274 84.5966H247.418Z" fill="#004D39"/>
<path fill-rule="evenodd" clip-rule="evenodd" d="M247.7 73.2795C253.731 73.585 258.527 78.5716 258.527 84.6784V189.304C258.527 193.275 256.497 196.771 253.42 198.815H255.311C257.367 198.815 259.335 199.647 260.768 201.121L279.263 220.144C280.767 221.691 281.433 223.575 281.427 225.42C281.43 225.449 281.436 225.479 281.436 225.509V229.25C281.436 235.029 276.752 239.713 270.974 239.713H43.842C38.0636 239.713 33.3794 235.029 33.3794 229.25V225.47C33.3794 225.431 33.3842 225.394 33.3887 225.356C33.3967 223.679 33.9644 221.975 35.2074 220.526L35.6328 220.068L54.6556 201.045C55.9937 199.707 57.7793 198.918 59.6603 198.825L60.0374 198.815H61.9898C58.9134 196.771 56.8849 193.275 56.8849 189.304V84.6784C56.8849 78.3747 61.995 73.2646 68.2986 73.2646H247.113L247.7 73.2795ZM35.3839 230.58C36.0228 234.676 39.5666 237.81 43.842 237.81H270.974C275.246 237.81 278.786 234.68 279.428 230.588C278.091 232.072 276.151 233.057 273.807 233.057H41.0145L40.3885 233.032C38.3172 232.874 36.6 231.934 35.3839 230.58ZM60.0374 200.718C58.5238 200.718 57.0709 201.319 56.0006 202.39L36.9778 221.413C33.3835 225.008 35.9305 231.154 41.0145 231.154H273.807C278.852 231.154 281.415 225.088 277.899 221.47L259.404 202.447C258.329 201.342 256.853 200.718 255.311 200.718H60.0374ZM68.2986 75.1669C63.0456 75.1669 58.7872 79.4253 58.7872 84.6784V189.304C58.7872 194.557 63.0456 198.815 68.2986 198.815H247.113C252.366 198.815 256.625 194.557 256.625 189.304V84.6784C256.625 79.4253 252.366 75.1669 247.113 75.1669H68.2986Z" fill="#004D39"/>
</svg>
