<svg width="232" height="255" viewBox="0 0 232 255" fill="none" xmlns="http://www.w3.org/2000/svg">
<path d="M61.6717 202.446C62.1737 202.192 62.7889 202.392 63.0437 202.894C63.2972 203.396 63.095 204.007 62.5937 204.262C59.3417 205.911 54.466 209.241 50.2026 213.939C45.9406 218.636 42.349 224.639 41.5231 231.644C41.4516 232.251 41.9904 232.695 42.4589 232.604C44.4217 232.224 47.5819 230.968 51.6661 225.966L53.3168 227.156C50.633 231.383 46.8742 238.343 44.3366 245.441C43.0683 248.989 42.1157 252.542 41.7461 255.785C41.4016 258.81 41.5739 261.49 42.3972 263.637C44.6654 264.014 47.3255 263.649 50.2205 262.707C53.3247 261.696 56.6151 260.052 59.8379 258.099C66.2847 254.193 72.3519 249.119 75.9564 245.644L77.4518 247.022C73.3678 252.025 72.7706 255.373 72.7905 257.372C72.7952 257.85 73.3393 258.288 73.9195 258.097C80.6176 255.887 85.7807 251.166 89.5303 246.051C93.2808 240.934 95.568 235.491 96.5332 231.975C96.6823 231.433 97.2413 231.114 97.7837 231.262C98.3262 231.411 98.6452 231.972 98.4965 232.515C97.47 236.254 95.082 241.925 91.175 247.255C87.2664 252.587 81.7851 257.649 74.5566 260.035C72.794 260.615 70.7734 259.382 70.7535 257.392C70.7394 255.965 70.9897 254.153 71.9641 251.907C68.7357 254.569 64.8921 257.422 60.8952 259.843C57.5932 261.844 54.1562 263.568 50.8537 264.644C47.5623 265.716 44.3161 266.171 41.4414 265.53C41.4152 265.524 41.391 265.512 41.3658 265.504C41.3358 265.495 41.3051 265.486 41.2762 265.474C41.2446 265.461 41.2143 265.445 41.1846 265.429C41.1558 265.413 41.1261 265.399 41.0989 265.381C41.0718 265.363 41.0484 265.34 41.0233 265.319C40.9987 265.299 40.9723 265.28 40.9496 265.257C40.917 265.225 40.8879 265.19 40.86 265.154C40.8511 265.142 40.8406 265.132 40.8321 265.12C40.7992 265.073 40.7712 265.023 40.7465 264.971C40.7435 264.964 40.7374 264.957 40.7346 264.951C40.7323 264.946 40.7309 264.94 40.7286 264.935C40.7224 264.92 40.7162 264.906 40.7107 264.891C39.5314 262.214 39.3321 258.966 39.7211 255.552C40.1144 252.102 41.1175 248.39 42.4171 244.754C43.9904 240.354 46.0179 236.017 47.9804 232.321C45.9741 233.726 44.2465 234.332 42.8452 234.603C40.8916 234.982 39.2791 233.249 39.4961 231.406C40.3873 223.847 44.2512 217.465 48.6933 212.569C53.1344 207.675 58.2136 204.2 61.6717 202.446Z" fill="#004D39"/>
<path fill-rule="evenodd" clip-rule="evenodd" d="M169.597 97.6783C182.547 97.6785 193.045 108.177 193.045 121.126C193.045 134.076 182.547 144.574 169.597 144.574C156.647 144.574 146.149 134.076 146.149 121.126C146.15 108.177 156.648 97.6783 169.597 97.6783ZM169.597 99.7173C157.774 99.7173 148.189 109.303 148.188 121.126C148.188 132.95 157.773 142.535 169.597 142.535C181.421 142.535 191.006 132.95 191.006 121.126C191.006 109.303 181.421 99.7174 169.597 99.7173Z" fill="#004D39"/>
<path fill-rule="evenodd" clip-rule="evenodd" d="M234.796 48.9424C237.001 48.7822 238.998 50.4312 239.089 52.7077C240.307 83.2587 227.742 140.959 175.228 184.587C175.466 184.699 175.66 184.903 175.754 185.17C180.688 199.208 178.722 232.495 135.142 258.37C132.861 259.723 130.14 257.706 130.642 255.158C132.235 247.082 134.095 236.497 135.158 227.602C135.69 223.151 136.018 219.152 136.018 216.113C136.018 214.592 135.935 213.349 135.767 212.426C135.683 211.964 135.583 211.609 135.477 211.352C135.367 211.089 135.274 210.987 135.242 210.96C135.136 210.871 135.054 210.763 134.995 210.648C132.695 211.797 130.348 212.925 127.952 214.025C126.534 214.675 124.838 214.46 123.635 213.447C123.145 213.034 122.643 212.605 122.128 212.169L110.205 222.077C108.584 223.422 106.206 223.313 104.717 221.824L94.4544 211.561C94.0566 211.163 94.0564 210.518 94.4544 210.12C94.8525 209.722 95.498 209.722 95.896 210.12L106.159 220.382C106.903 221.127 108.092 221.181 108.902 220.508L120.551 210.829C116.105 207.04 110.946 202.554 105.854 197.982L91.388 212.977C89.3132 215.128 85.8867 215.189 83.7359 213.115L83.3576 212.71C81.586 210.617 81.6534 207.479 83.5985 205.463L85.3727 203.623C85.063 203.752 84.6975 203.728 84.401 203.523L73.6168 196.058C71.7888 194.792 71.3119 192.294 72.5455 190.443L82.82 175.029C82.757 174.944 82.6929 174.862 82.6328 174.779C81.8193 173.653 81.1976 172.598 80.9861 171.726C80.8591 171.201 80.9587 170.735 81.0479 170.418C81.7574 167.894 82.6223 165.203 83.6423 162.374C83.4052 162.314 83.112 162.257 82.7563 162.222C81.8217 162.13 80.5755 162.15 79.0587 162.274C76.0305 162.522 72.0721 163.177 67.6791 164.072C58.9013 165.86 48.5036 168.58 40.5852 170.828C38.0871 171.537 35.8548 168.989 37.017 166.605C59.1402 121.258 91.9586 116.416 106.453 120.093C130.686 86.8108 171.903 53.5216 234.796 48.9424ZM173.807 185.756C163.165 194.427 150.918 202.521 136.854 209.708C137.069 209.968 137.234 210.265 137.36 210.568C137.542 211.003 137.674 211.509 137.774 212.057C137.974 213.154 138.059 214.539 138.059 216.115C138.059 219.274 137.718 223.367 137.183 227.845C136.111 236.812 134.238 247.455 132.641 255.554C132.47 256.427 133.384 257.039 134.101 256.614C176.943 231.177 178.406 198.865 173.831 185.847C173.82 185.818 173.814 185.786 173.807 185.756ZM85.066 206.878C83.7733 208.218 83.8118 210.354 85.1517 211.647C86.492 212.94 88.6275 212.901 89.9205 211.561L104.339 196.614C102.654 195.091 100.982 193.568 99.3587 192.062L85.066 206.878ZM170.519 68.1233C123.029 91.5892 96.5703 133.379 85.9959 161.868C86.0056 162.125 85.917 162.381 85.7331 162.585C84.6551 165.54 83.7485 168.347 83.0112 170.969C82.9525 171.178 82.9645 171.234 82.9673 171.246C83.0775 171.7 83.485 172.476 84.2855 173.584C85.0625 174.659 86.1358 175.948 87.4535 177.409C90.0874 180.328 93.6466 183.875 97.6463 187.663C98.1841 188.173 98.7329 188.684 99.285 189.201L126.435 161.061C128.51 158.911 131.936 158.851 134.087 160.926L134.465 161.33C136.236 163.424 136.167 166.56 134.222 168.576L107.268 196.514C112.681 201.374 118.172 206.137 122.795 210.064C123.537 210.694 124.256 211.304 124.949 211.888C125.539 212.385 126.39 212.498 127.102 212.171C181.095 187.393 210.129 149.58 224.582 115.006C224.254 114.984 223.944 114.805 223.767 114.5C215.335 99.8958 202.212 88.2726 191.022 80.2854C185.435 76.2968 180.346 73.226 176.596 71.1559C174.722 70.1209 173.185 69.338 172.092 68.8163C171.545 68.555 171.115 68.3618 170.814 68.2368C170.686 68.184 170.589 68.148 170.519 68.1233ZM74.242 191.574C73.6253 192.499 73.8639 193.748 74.7776 194.382L85.5598 201.847C85.9525 202.118 86.0914 202.616 85.9302 203.043L97.8693 190.668C97.3218 190.155 96.7781 189.648 96.2445 189.143C92.2297 185.34 88.6263 181.752 85.9402 178.775C85.2895 178.054 84.6891 177.364 84.1481 176.714L74.242 191.574ZM132.671 162.391C131.331 161.099 129.195 161.138 127.902 162.477L100.774 190.594C102.398 192.1 104.069 193.623 105.754 195.146L132.755 167.16C134.048 165.82 134.011 163.685 132.671 162.391ZM105.161 121.885C91.2838 118.837 60.1853 123.769 38.8509 167.499C38.4855 168.248 39.172 169.109 40.0277 168.867C47.9694 166.612 58.4217 163.875 67.2709 162.073C71.6912 161.173 75.7426 160.499 78.8914 160.241C80.4623 160.112 81.8476 160.084 82.9574 160.193C83.4617 160.243 83.9327 160.325 84.3512 160.448C88.6799 148.986 95.5092 135.479 105.161 121.885ZM234.944 50.9774C211.244 52.703 190.657 58.5546 172.929 66.9565C172.942 66.9631 172.956 66.9697 172.97 66.9764C174.105 67.518 175.677 68.3203 177.582 69.3718C181.392 71.4751 186.548 74.5853 192.207 78.6248C203.43 86.6362 216.699 98.3518 225.342 113.16C234.838 89.6828 237.652 67.8447 237.052 52.7893C237.01 51.7311 236.068 50.8957 234.944 50.9774Z" fill="#004D39"/>
<path d="M74.3814 213.358C74.7375 212.922 75.379 212.856 75.815 213.212C76.25 213.568 76.3158 214.21 75.9604 214.646C75.8562 214.773 75.6919 214.921 75.5622 215.038C75.41 215.175 75.2106 215.35 74.9827 215.55C74.5217 215.954 73.913 216.492 73.2086 217.145C71.7983 218.452 70.013 220.225 68.3163 222.324C64.8855 226.568 61.9838 231.929 62.8684 237.375C62.9335 237.769 63.3186 238.021 63.7326 237.897C68.7686 236.387 77.6463 231.453 82.6229 220.424C82.8546 219.912 83.4581 219.683 83.9709 219.914C84.4826 220.146 84.7114 220.75 84.4806 221.262C79.214 232.934 69.7999 238.207 64.318 239.85C62.7559 240.318 61.125 239.343 60.8574 237.702C59.8271 231.359 63.2116 225.395 66.7313 221.041C68.5098 218.842 70.3685 216.996 71.8208 215.649C72.5472 214.976 73.1754 214.423 73.6387 214.017C73.8721 213.812 74.0575 213.65 74.1962 213.525C74.3568 213.38 74.3946 213.341 74.3814 213.358Z" fill="#004D39"/>
<path fill-rule="evenodd" clip-rule="evenodd" d="M263.682 93.6004C265.261 99.2803 271.734 105.394 276.643 106.663C271.734 107.931 264.998 115.374 263.682 120.107C262.366 115.374 256.026 108.184 250.136 106.663C255.045 105.394 262.104 99.2801 263.682 93.6004ZM263.646 98.4489C262.511 100.212 261.071 101.861 259.547 103.279C258.168 104.563 256.642 105.728 255.096 106.664C256.92 107.797 258.626 109.243 260.094 110.766C261.464 112.188 262.705 113.765 263.692 115.346C264.706 113.731 265.978 112.122 267.332 110.687C268.698 109.238 270.265 107.842 271.89 106.738C270.34 105.778 268.831 104.569 267.481 103.238C266.045 101.82 264.708 100.186 263.646 98.4489Z" fill="#004D39"/>
<path fill-rule="evenodd" clip-rule="evenodd" d="M90.2351 81.3666C91.085 84.4251 94.5711 87.7185 97.2142 88.4015C94.5714 89.0845 90.9439 93.0907 90.2351 95.6394C89.5264 93.0907 86.1127 89.221 82.9415 88.4015C85.5845 87.7183 89.3852 84.4249 90.2351 81.3666ZM90.1953 85.6019C89.7119 86.204 89.1876 86.7663 88.6502 87.2665C88.216 87.6705 87.7488 88.0562 87.2663 88.4154C87.8868 88.8975 88.4652 89.4218 88.9807 89.9566C89.4252 90.4177 89.8488 90.9159 90.2411 91.43C90.6431 90.9 91.074 90.3889 91.5154 89.9207C91.9812 89.4268 92.5042 88.9339 93.0586 88.4731C92.5525 88.0848 92.0672 87.665 91.621 87.2247C91.1212 86.7314 90.639 86.1844 90.1953 85.6019Z" fill="#004D39"/>
</svg>
