<svg width="24" height="24" viewBox="0 0 24 24" fill="none" xmlns="http://www.w3.org/2000/svg">
<path d="M12 1C10.4898 1 8.99438 1.29159 7.59914 1.85811C6.2039 2.42464 4.93615 3.25501 3.86827 4.30181C1.7116 6.41593 0.5 9.28329 0.5 12.2731C0.5 17.2558 3.8005 21.4832 8.366 22.9825C8.941 23.0727 9.125 22.7233 9.125 22.4189V20.5137C5.9395 21.1901 5.261 19.0031 5.261 19.0031C4.732 17.6955 3.9845 17.346 3.9845 17.346C2.938 16.6471 4.065 16.6696 4.065 16.6696C5.215 16.7485 5.8245 17.8307 5.8245 17.8307C6.825 19.5442 8.5155 19.037 9.171 18.7664C9.2745 18.0337 9.5735 17.5376 9.8955 17.2558C7.3425 16.974 4.663 16.0045 4.663 11.7094C4.663 10.4581 5.1 9.45482 5.8475 8.65443C5.7325 8.37261 5.33 7.2002 5.9625 5.67834C5.9625 5.67834 6.9285 5.37396 9.125 6.82819C10.0335 6.58018 11.0225 6.45618 12 6.45618C12.9775 6.45618 13.9665 6.58018 14.875 6.82819C17.0715 5.37396 18.0375 5.67834 18.0375 5.67834C18.67 7.2002 18.2675 8.37261 18.1525 8.65443C18.9 9.45482 19.337 10.4581 19.337 11.7094C19.337 16.0158 16.646 16.9627 14.0815 17.2445C14.4955 17.594 14.875 18.2817 14.875 19.3301V22.4189C14.875 22.7233 15.059 23.084 15.6455 22.9825C20.211 21.4719 23.5 17.2558 23.5 12.2731C23.5 10.7927 23.2025 9.32678 22.6246 7.95907C22.0467 6.59135 21.1996 5.34862 20.1317 4.30181C19.0639 3.25501 17.7961 2.42464 16.4009 1.85811C15.0056 1.29159 13.5102 1 12 1Z" fill="black"/>
</svg>
