<svg width="16" height="16" viewBox="0 0 16 16" fill="none" xmlns="http://www.w3.org/2000/svg">
<g clip-path="url(#clip0_19971_63667)">
<path d="M12.25 0H3.75C1.67893 0 0 1.67893 0 3.75V12.25C0 14.3211 1.67893 16 3.75 16H12.25C14.3211 16 16 14.3211 16 12.25V3.75C16 1.67893 14.3211 0 12.25 0Z" fill="#F4F2ED"/>
<path d="M5.29709 6.99756C5.29709 7.14969 5.31353 7.273 5.34228 7.3635C5.37878 7.46531 5.42277 7.56426 5.47391 7.65956C5.49447 7.69244 5.50266 7.72531 5.50266 7.75413C5.50266 7.79525 5.47797 7.83637 5.42453 7.87744L5.16547 8.05019C5.12847 8.07481 5.09147 8.08719 5.05859 8.08719C5.01747 8.08719 4.97634 8.06662 4.93522 8.02962C4.87984 7.97008 4.83028 7.90536 4.78722 7.83638C4.74126 7.75737 4.69872 7.67642 4.65972 7.59375C4.33901 7.97208 3.93605 8.16123 3.45084 8.16119C3.10547 8.16119 2.82997 8.0625 2.62847 7.86513C2.42703 7.66775 2.32422 7.40462 2.32422 7.07569C2.32422 6.72613 2.44759 6.44244 2.69841 6.22862C2.94922 6.01481 3.28228 5.90788 3.70578 5.90788C3.84559 5.90788 3.98953 5.92025 4.14166 5.94081C4.29378 5.96138 4.45003 5.99425 4.61453 6.03125V5.73106C4.61453 5.41856 4.54872 5.20062 4.42128 5.07319C4.28966 4.94569 4.06766 4.88406 3.75103 4.88406C3.60709 4.88406 3.45909 4.9005 3.30697 4.9375C3.15484 4.9745 3.00678 5.01975 2.86284 5.07731C2.81609 5.09821 2.76803 5.11606 2.71897 5.13075C2.69022 5.139 2.66959 5.14313 2.65316 5.14313C2.59566 5.14313 2.56678 5.102 2.56678 5.01562V4.81413C2.56678 4.74838 2.57503 4.699 2.59559 4.67025C2.61616 4.6415 2.65316 4.61269 2.71072 4.58388C2.85464 4.50988 3.02734 4.44821 3.22884 4.39888C3.43028 4.34538 3.64409 4.32075 3.87028 4.32075C4.35959 4.32075 4.71728 4.43175 4.94759 4.65375C5.17372 4.87581 5.28884 5.213 5.28884 5.66531V6.99756H5.29709ZM3.62772 7.62256C3.76334 7.62256 3.90316 7.59788 4.05122 7.5485C4.19922 7.49919 4.33078 7.40869 4.44184 7.28538C4.50759 7.20725 4.55697 7.12088 4.58159 7.02219C4.60622 6.9235 4.62272 6.80425 4.62272 6.6645V6.49175C4.49804 6.46142 4.37176 6.43809 4.24447 6.42188C4.11625 6.40566 3.98715 6.39742 3.85791 6.39719C3.58241 6.39719 3.38097 6.45069 3.24528 6.56169C3.10959 6.67269 3.04378 6.82894 3.04378 7.03456C3.04378 7.22781 3.09316 7.37169 3.19591 7.47038C3.29466 7.57319 3.43859 7.62256 3.62772 7.62256ZM6.92941 8.06662C6.85541 8.06662 6.80603 8.05425 6.77316 8.0255C6.74028 8.00081 6.71147 7.94325 6.68684 7.86513L5.72059 4.68669C5.69584 4.60444 5.68353 4.551 5.68353 4.52219C5.68353 4.45644 5.71641 4.41937 5.78222 4.41937H6.18516C6.26328 4.41937 6.31678 4.43175 6.34553 4.4605C6.37841 4.48519 6.40309 4.54275 6.42778 4.62087L7.11853 7.34294L7.76003 4.62087C7.78059 4.53862 7.80522 4.48525 7.83816 4.4605C7.87103 4.43587 7.92859 4.41944 8.00259 4.41944H8.33153C8.40966 4.41944 8.46316 4.43175 8.49603 4.4605C8.52891 4.48519 8.55772 4.54275 8.57416 4.62087L9.22384 7.37581L9.93516 4.62087C9.95984 4.53862 9.98866 4.48525 10.0174 4.4605C10.0503 4.43587 10.1038 4.41944 10.1778 4.41944H10.5602C10.626 4.41944 10.663 4.45231 10.663 4.52219C10.663 4.54281 10.6588 4.56331 10.6547 4.588C10.6507 4.61269 10.6424 4.6455 10.626 4.69081L9.63503 7.86925C9.61032 7.9515 9.58153 8.00496 9.54866 8.02962C9.51578 8.05425 9.46228 8.07075 9.39241 8.07075H9.03878C8.96066 8.07075 8.90722 8.05837 8.87434 8.02962C8.84141 8.00081 8.81266 7.94738 8.79622 7.86513L8.15884 5.213L7.52566 7.861C7.50509 7.94325 7.48041 7.99669 7.44753 8.0255C7.41459 8.05425 7.35703 8.06662 7.28303 8.06662H6.92941ZM12.2132 8.17762C11.9993 8.17762 11.7855 8.15294 11.5799 8.10363C11.3743 8.05425 11.214 8.00081 11.107 7.93913C11.0413 7.90213 10.996 7.861 10.9796 7.824C10.9636 7.78771 10.9552 7.74853 10.9549 7.70888V7.49919C10.9549 7.41281 10.9878 7.37169 11.0495 7.37169C11.0742 7.37169 11.0988 7.37581 11.1235 7.38406C11.1482 7.39225 11.1852 7.40869 11.2263 7.42519C11.3715 7.48905 11.5231 7.53728 11.6786 7.56906C11.8396 7.60177 12.0036 7.61831 12.1679 7.61844C12.427 7.61844 12.6284 7.57319 12.7682 7.48275C12.908 7.39225 12.982 7.26069 12.982 7.09212C12.982 6.977 12.945 6.88237 12.871 6.80425C12.797 6.72612 12.6572 6.65625 12.4557 6.59044L11.8595 6.40544C11.5593 6.31087 11.3373 6.17106 11.2016 5.98606C11.0659 5.80512 10.996 5.60356 10.996 5.38981C10.996 5.21715 11.033 5.065 11.107 4.93337C11.181 4.80181 11.2797 4.68669 11.4031 4.59625C11.5265 4.50163 11.6663 4.43175 11.8307 4.38237C11.9952 4.333 12.1679 4.3125 12.3488 4.3125C12.4393 4.3125 12.5338 4.31663 12.6243 4.32894C12.7189 4.34125 12.8052 4.35769 12.8916 4.37419C12.9738 4.39475 13.052 4.41531 13.126 4.44C13.2 4.46463 13.2575 4.48929 13.2987 4.514C13.3562 4.54687 13.3973 4.57975 13.422 4.61675C13.4467 4.64967 13.459 4.69492 13.459 4.7525V4.94575C13.459 5.03206 13.4262 5.07731 13.3645 5.07731C13.3315 5.07731 13.2781 5.06087 13.2082 5.02794C12.9738 4.92106 12.7107 4.86763 12.4187 4.86763C12.1843 4.86763 11.9993 4.90462 11.8718 4.98275C11.7443 5.06087 11.6786 5.18013 11.6786 5.34869C11.6786 5.46381 11.7197 5.5625 11.802 5.64062C11.8842 5.71875 12.0363 5.79687 12.2543 5.86675L12.8382 6.05175C13.1342 6.14638 13.348 6.27794 13.4755 6.44656C13.6029 6.61519 13.6646 6.80838 13.6646 7.02219C13.6646 7.199 13.6276 7.35938 13.5577 7.49919C13.4837 7.639 13.385 7.76231 13.2575 7.861C13.1301 7.96381 12.9779 8.03781 12.8012 8.09131C12.6161 8.14887 12.4228 8.17762 12.2132 8.17762Z" fill="#252F3E"/>
<path fill-rule="evenodd" clip-rule="evenodd" d="M12.9898 10.176C11.637 11.1752 9.67159 11.7056 7.98159 11.7056C5.61322 11.7056 3.47909 10.8298 1.86728 9.3742C1.73978 9.25908 1.85497 9.10283 2.00709 9.19326C3.75053 10.2048 5.90103 10.8175 8.12553 10.8175C9.62634 10.8175 11.2752 10.505 12.7925 9.86351C13.0186 9.7607 13.2118 10.0115 12.9898 10.176Z" fill="#FF9900"/>
<path fill-rule="evenodd" clip-rule="evenodd" d="M13.554 9.53462C13.3813 9.31256 12.4109 9.42768 11.9709 9.48112C11.8394 9.49762 11.8188 9.38243 11.9381 9.29612C12.7111 8.75337 13.9816 8.90962 14.1297 9.0905C14.2777 9.27556 14.0886 10.5461 13.3649 11.1547C13.2538 11.2492 13.1469 11.1999 13.1962 11.0766C13.3607 10.6695 13.7267 9.7525 13.554 9.53462Z" fill="#FF9900"/>
</g>
<defs>
<clipPath id="clip0_19971_63667">
<rect width="16" height="16" fill="white"/>
</clipPath>
</defs>
</svg>
