<svg width="16" height="16" viewBox="0 0 16 16" fill="none" xmlns="http://www.w3.org/2000/svg">
<path d="M7.06688 2H9.04938V11.0845C8.20323 11.2589 7.3418 11.3485 6.47787 11.352C4.05687 11.3495 2.79688 10.268 2.79688 8.191C2.79688 6.191 4.13338 4.891 6.20488 4.891C6.49539 4.88565 6.7853 4.91928 7.06688 4.991V2ZM7.06688 6.571C6.85133 6.49998 6.62527 6.46616 6.39838 6.471C5.39838 6.471 4.81688 7.0825 4.81688 8.154C4.81688 9.1975 5.37038 9.7735 6.38587 9.7735C6.61381 9.77411 6.84147 9.75739 7.06688 9.7235V6.5735V6.571Z" fill="#44B78B"/>
<path d="M12.1998 5.02951V9.57951C12.1998 11.146 12.0823 11.899 11.7383 12.5485C11.3871 13.2088 10.813 13.7231 10.1183 14L8.2793 13.1335C8.94759 12.9051 9.50725 12.4366 9.8498 11.819C10.1328 11.2585 10.2223 10.609 10.2223 8.90051V5.02951H12.1998ZM10.2203 2.01001H12.2023V4.02401H10.2203V2.01001Z" fill="#44B78B"/>
</svg>
