<svg width="16" height="16" viewBox="0 0 16 16" fill="none" xmlns="http://www.w3.org/2000/svg">
<g clip-path="url(#clip0_19971_63668)">
<path d="M15.5912 7.29716L8.70165 0.407914C8.30515 0.0111641 7.66165 0.0111641 7.26453 0.407914L5.83403 1.83866L7.64878 3.65341C8.07065 3.51104 8.55415 3.60654 8.89028 3.94266C9.22815 4.28091 9.3229 4.76854 9.17703 5.19179L10.926 6.94091C11.3492 6.79504 11.8375 6.88929 12.1753 7.22779C12.6478 7.69991 12.6478 8.46529 12.1753 8.93766C12.063 9.05 11.9297 9.13912 11.7829 9.19992C11.6362 9.26072 11.4789 9.29202 11.3201 9.29202C11.1613 9.29202 11.004 9.26072 10.8572 9.19992C10.7105 9.13912 10.5772 9.05 10.4649 8.93766C10.2962 8.76883 10.1813 8.5539 10.1345 8.31989C10.0876 8.08589 10.1111 7.84327 10.2018 7.62254L8.57078 5.99154L8.57053 10.2842C8.68887 10.3424 8.79691 10.4196 8.8904 10.5127C9.36265 10.9848 9.36265 11.7499 8.8904 12.223C8.41803 12.6952 7.6524 12.6952 7.18053 12.223C6.70828 11.75 6.70828 10.9849 7.18053 10.5127C7.29377 10.3995 7.42832 10.3098 7.5764 10.2489V5.91654C7.42815 5.85588 7.29355 5.76616 7.18053 5.65266C6.82278 5.29516 6.73665 4.77016 6.92015 4.33066L5.13103 2.54154L0.407025 7.26529C0.21644 7.45593 0.109375 7.71447 0.109375 7.98404C0.109375 8.25361 0.21644 8.51214 0.407025 8.70279L7.29665 15.592C7.6934 15.9888 8.33665 15.9888 8.73403 15.592L15.5913 8.73479C15.7818 8.54409 15.8888 8.28553 15.8888 8.01595C15.8888 7.74637 15.7817 7.48783 15.5912 7.29716Z" fill="#F34F29"/>
</g>
<defs>
<clipPath id="clip0_19971_63668">
<rect width="16" height="16" fill="white"/>
</clipPath>
</defs>
</svg>
