<svg width="16" height="16" viewBox="0 0 16 16" fill="none" xmlns="http://www.w3.org/2000/svg">
<g clip-path="url(#clip0_19971_63666)">
<path d="M7.94447 0.238906C7.80306 0.246082 7.66452 0.281185 7.53697 0.342156L1.97434 2.99991C1.83038 3.06866 1.70389 3.1687 1.60426 3.29259C1.50463 3.41648 1.43442 3.56104 1.39884 3.71553L0.0267157 9.68553C-0.00496317 9.82306 -0.00850827 9.9655 0.0162901 10.1044C0.0410885 10.2433 0.0937267 10.3759 0.171091 10.4943C0.189863 10.5232 0.210054 10.5513 0.231591 10.5783L4.08159 15.3653C4.18125 15.4891 4.30776 15.5892 4.45173 15.6579C4.5957 15.7266 4.75343 15.7623 4.91322 15.7623L11.0875 15.7608C11.2472 15.7609 11.4049 15.7253 11.5488 15.6567C11.6928 15.5881 11.8194 15.4883 11.9191 15.3645L15.7677 10.5769C15.8674 10.453 15.9377 10.3084 15.9733 10.1538C16.0089 9.99925 16.0089 9.83872 15.9733 9.68416L14.5988 3.71416C14.5633 3.55964 14.4931 3.41506 14.3934 3.29115C14.2938 3.16723 14.1673 3.06718 14.0233 2.99841L8.46022 0.342156C8.29973 0.26545 8.12239 0.229947 7.94447 0.238906Z" fill="#326CE5"/>
<path d="M7.99744 2.26782V2.26907C7.81344 2.27082 7.66444 2.43607 7.66444 2.64057C7.66444 2.64407 7.66507 2.64707 7.66507 2.64982C7.66482 2.67757 7.66357 2.71107 7.66444 2.73532C7.66882 2.85357 7.69444 2.94382 7.71007 3.0522C7.73132 3.2297 7.73694 3.37057 7.73807 3.51307L7.74257 3.49257C7.74057 3.3927 7.73565 3.29291 7.72782 3.19332C7.74519 3.34682 7.75782 3.48882 7.75107 3.61732C7.74919 3.5767 7.74344 3.5327 7.74282 3.49457L7.73832 3.51507C7.73869 3.55845 7.75032 3.61382 7.74694 3.65545C7.73932 3.6917 7.71057 3.71732 7.68857 3.7482L7.68544 3.76332C7.70707 3.73495 7.72969 3.70782 7.74294 3.67595C7.72619 3.72882 7.69044 3.77545 7.65457 3.8127C7.66457 3.7972 7.67282 3.77995 7.68457 3.76457L7.68782 3.74957C7.66969 3.77495 7.65944 3.8067 7.63969 3.82582L7.63894 3.82657L7.63094 3.96657C7.42918 3.98333 7.22882 4.01407 7.03132 4.05857C6.19896 4.24687 5.44174 4.67928 4.85657 5.30045C4.81957 5.2752 4.75657 5.23045 4.73782 5.21645L4.73719 5.21582L4.73594 5.21607C4.67619 5.22407 4.61719 5.24195 4.53969 5.19695C4.39132 5.09695 4.25582 4.95857 4.09169 4.79195C4.01657 4.71232 3.96207 4.6362 3.87244 4.55932C3.85207 4.5417 3.82119 4.51807 3.79844 4.5002C3.73193 4.44662 3.65002 4.41574 3.56469 4.41207C3.46157 4.40857 3.36219 4.44882 3.29719 4.53045C3.18157 4.67545 3.21869 4.89707 3.37944 5.02545L3.38444 5.0287C3.40619 5.04657 3.43319 5.06945 3.45344 5.08445C3.54869 5.15457 3.63557 5.19057 3.72969 5.24607C3.92894 5.36907 4.09344 5.47082 4.22419 5.59345C4.27444 5.64682 4.28344 5.7422 4.29044 5.78407V5.78507L4.39632 5.87932C3.82619 6.73857 3.56194 7.79932 3.71732 8.88007L3.57944 8.92057L3.57894 8.92132C3.54207 8.96895 3.48994 9.04282 3.43707 9.0647C3.26632 9.11845 3.07357 9.1382 2.84082 9.16257C2.73182 9.1717 2.63757 9.16645 2.52132 9.18845C2.49569 9.19345 2.46007 9.20245 2.43219 9.20895L2.42932 9.2097L2.42432 9.21107C2.22682 9.25895 2.09932 9.4407 2.14057 9.62007C2.18144 9.79945 2.37469 9.90832 2.57357 9.86545L2.57844 9.8647H2.57869C2.58119 9.86407 2.58344 9.86282 2.58494 9.86245C2.61244 9.85645 2.64694 9.84982 2.67119 9.8432C2.78532 9.81257 2.86794 9.76782 2.97032 9.7287C3.19032 9.6497 3.37257 9.5837 3.54994 9.55807C3.62269 9.55232 3.70044 9.60332 3.73957 9.6252L3.74057 9.6257L3.88457 9.60107C4.21882 10.6353 4.91782 11.4711 5.80282 11.9963L5.74282 12.1403L5.74319 12.1416C5.76494 12.1978 5.78869 12.2737 5.77282 12.3281C5.70832 12.4951 5.59782 12.6717 5.47182 12.8688C5.41082 12.9598 5.34807 13.0307 5.29307 13.1352C5.27969 13.1603 5.26307 13.1986 5.25032 13.2248C5.16407 13.4092 5.22732 13.6219 5.39319 13.7018C5.56007 13.7822 5.76694 13.6973 5.85657 13.5127L5.85744 13.5117V13.5104C5.86994 13.4846 5.88769 13.4507 5.89857 13.4262C5.94582 13.3179 5.96169 13.2253 5.99482 13.1211H5.99444C6.08269 12.8994 6.13119 12.6677 6.25182 12.5238C6.28432 12.4851 6.33782 12.4698 6.39382 12.4548L6.39507 12.4543L6.47007 12.3188C7.45752 12.6985 8.5502 12.7012 9.53957 12.3266C9.56107 12.3644 9.59932 12.4347 9.60994 12.4528L9.61044 12.4536L9.61144 12.4541C9.66869 12.4727 9.72994 12.4819 9.78019 12.5561C9.87044 12.7107 9.93244 12.8939 10.0079 13.1154C10.0411 13.2194 10.0576 13.3123 10.1048 13.4206C10.1157 13.4456 10.1336 13.4799 10.1461 13.5061C10.2354 13.6913 10.4429 13.7764 10.6102 13.6961C10.7759 13.6161 10.8392 13.4036 10.7531 13.2192C10.7403 13.1929 10.7227 13.1544 10.7096 13.1293C10.6544 13.0248 10.5917 12.9547 10.5308 12.8637C10.4046 12.6666 10.3004 12.5031 10.2358 12.3359C10.2092 12.2503 10.2403 12.1979 10.2616 12.1416L10.2623 12.1398L10.2611 12.1386C10.2567 12.1319 10.2529 12.1249 10.2498 12.1176C10.2445 12.1056 10.2395 12.0935 10.2348 12.0813C10.2248 12.0551 10.2148 12.0261 10.2068 12.0068C11.1266 11.4631 11.8051 10.5962 12.1243 9.59495C12.1677 9.6017 12.2406 9.61432 12.2643 9.61907L12.2656 9.61932L12.2667 9.61882C12.3169 9.5857 12.3617 9.54307 12.4511 9.5502C12.6284 9.57582 12.8106 9.64195 13.0308 9.72095C13.1329 9.75995 13.2157 9.80557 13.3299 9.83607C13.3542 9.84257 13.3887 9.8487 13.4162 9.8547C13.4177 9.85507 13.4198 9.8562 13.4224 9.85682H13.4227L13.4277 9.85732C13.6264 9.89995 13.8198 9.79132 13.8607 9.61195C13.9016 9.43257 13.7743 9.25095 13.5767 9.20332C13.5483 9.19682 13.5078 9.1857 13.4798 9.18032C13.3636 9.15832 13.2694 9.16382 13.1602 9.1547C12.9277 9.13032 12.7349 9.11057 12.5639 9.05682C12.4956 9.0302 12.4462 8.94782 12.4217 8.91332L12.4209 8.91257L12.2877 8.87382C12.3589 8.35616 12.3352 7.82985 12.2177 7.3207C12.0999 6.80643 11.8888 6.31814 11.5948 5.88007C11.6296 5.84857 11.6929 5.79245 11.7113 5.77557L11.7122 5.77482V5.77357C11.7177 5.71357 11.7129 5.65232 11.7741 5.58682C11.9047 5.46432 12.0696 5.3622 12.2687 5.23945C12.3629 5.18395 12.4504 5.14807 12.5454 5.07782C12.5672 5.06182 12.5964 5.03682 12.6189 5.0187C12.7797 4.89045 12.8169 4.66895 12.7012 4.52382C12.5856 4.37882 12.3614 4.36545 12.2008 4.49357C12.1781 4.5117 12.1471 4.53507 12.1266 4.5527C12.0369 4.62995 11.9816 4.70595 11.9066 4.78557C11.7424 4.95245 11.6068 5.09132 11.4583 5.19132C11.3949 5.22807 11.3011 5.21545 11.2579 5.21282H11.2569L11.1314 5.3027C10.4096 4.5467 9.42769 4.0632 8.37019 3.9687C8.36707 3.91981 8.36441 3.87089 8.36219 3.82195V3.82095L8.36144 3.8202C8.31769 3.77857 8.26644 3.74395 8.25344 3.65545V3.6552C8.23907 3.4767 8.26307 3.28432 8.29094 3.0522C8.30657 2.94382 8.33244 2.85345 8.33669 2.73532C8.33782 2.70832 8.33607 2.66945 8.33607 2.64057C8.33607 2.43495 8.18569 2.26782 8.00007 2.26782H7.99744ZM3.60057 4.42207C3.61823 4.42457 3.63565 4.42816 3.65282 4.43282C3.63568 4.428 3.61822 4.42441 3.60057 4.42207ZM7.58032 4.85645L7.48194 6.5977L7.47482 6.60132L7.47457 6.60295C7.47432 6.6092 7.47282 6.61482 7.47207 6.62082C7.46793 6.65828 7.45678 6.69462 7.43919 6.72795C7.43461 6.73678 7.42957 6.74541 7.42407 6.75382C7.40129 6.78702 7.37193 6.81519 7.33782 6.83657C7.32907 6.8422 7.31944 6.84657 7.31007 6.85132C7.2758 6.86755 7.23877 6.87713 7.20094 6.87957C7.19532 6.87995 7.18994 6.88132 7.18432 6.88132C7.17807 6.88132 7.17257 6.87857 7.16644 6.87807C7.12485 6.87412 7.08463 6.86115 7.04857 6.84007C7.04294 6.83682 7.03682 6.83495 7.03144 6.83145L7.03069 6.8342L7.03119 6.83145C7.02569 6.82807 7.01844 6.82945 7.01319 6.82557L7.01169 6.82432L7.00894 6.82607L5.58132 5.81395C5.59294 5.80257 5.60532 5.7922 5.61719 5.78095C5.74321 5.66106 5.87819 5.55095 6.02094 5.45157C6.05057 5.43095 6.08007 5.41007 6.11032 5.39032C6.26219 5.29125 6.42169 5.20439 6.58732 5.13057C6.61732 5.1172 6.64819 5.10507 6.67857 5.09245C6.84256 5.02477 7.01157 4.96994 7.18407 4.92845C7.19907 4.9247 7.21382 4.92007 7.22907 4.9167C7.30107 4.90045 7.37432 4.89095 7.44719 4.87932L7.44794 4.8762H7.44844L7.44769 4.87932C7.49207 4.87232 7.53582 4.86182 7.58032 4.85645ZM8.42107 4.8567C8.44569 4.8597 8.46982 4.8652 8.49432 4.86882C8.62745 4.88854 8.75934 4.91592 8.88932 4.95082C8.94082 4.96466 8.99186 4.97966 9.04244 4.99582C9.17154 5.03711 9.29812 5.08586 9.42157 5.14182C9.4684 5.16307 9.51473 5.18536 9.56057 5.2087C9.68244 5.27097 9.80056 5.34034 9.91432 5.41645C9.95715 5.44528 9.99944 5.47516 10.0412 5.50607C10.1501 5.58638 10.2543 5.67295 10.3532 5.76532C10.3712 5.78207 10.3903 5.79745 10.4079 5.8147L8.98969 6.8202L8.98469 6.81832L8.98344 6.81932C8.97782 6.82332 8.97169 6.82495 8.96594 6.82857C8.93239 6.8498 8.89488 6.864 8.85569 6.87032C8.84607 6.87182 8.83657 6.87407 8.82694 6.87445C8.78459 6.87613 8.74237 6.86862 8.70319 6.85245C8.69177 6.84798 8.6807 6.84267 8.67007 6.83657C8.63357 6.81641 8.60178 6.78872 8.57682 6.75532C8.57057 6.7467 8.56582 6.73707 8.56057 6.72782C8.54143 6.69357 8.5292 6.6559 8.52457 6.61695C8.52382 6.61007 8.52132 6.60407 8.52082 6.59707V6.5957L8.51944 6.59495L8.42107 4.8567ZM11.8801 6.3847C11.9411 6.50895 11.9959 6.63582 12.0447 6.76532C11.9959 6.63592 11.9409 6.5089 11.8801 6.3847ZM5.05807 6.47095L6.36182 7.63695L6.36032 7.64395L6.36157 7.64495C6.47907 7.74707 6.49532 7.9237 6.39819 8.04532C6.39469 8.0497 6.38969 8.05245 6.38594 8.05657C6.35244 8.09371 6.31002 8.12167 6.26269 8.13782C6.25732 8.1397 6.25294 8.1432 6.24757 8.1447L6.24582 8.14495L6.24432 8.15082L4.57344 8.63332C4.57094 8.6102 4.57094 8.58707 4.56882 8.56395C4.55635 8.42499 4.55251 8.28538 4.55732 8.14595C4.5589 8.09761 4.56152 8.04936 4.56519 8.0012C4.57569 7.86236 4.59477 7.7243 4.62232 7.58782C4.6324 7.53699 4.64377 7.48636 4.65644 7.43595C4.68956 7.30179 4.73089 7.16979 4.78019 7.0407C4.79769 6.99453 4.81636 6.94882 4.83619 6.90357C4.89133 6.77533 4.95436 6.65063 5.02494 6.5302C5.03619 6.5107 5.04619 6.4902 5.05807 6.47095ZM10.9333 6.47182C10.9454 6.49157 10.9553 6.51232 10.9671 6.5322C11.0383 6.65365 11.1022 6.7793 11.1583 6.90845C11.1771 6.9517 11.1956 6.9952 11.2126 7.0392C11.2643 7.1734 11.3077 7.31066 11.3426 7.4502C11.3482 7.47207 11.3556 7.49345 11.3606 7.51557C11.4468 7.89082 11.4681 8.26545 11.4328 8.62757L9.75357 8.14382L9.75219 8.1367L9.75044 8.1362C9.74482 8.1347 9.73994 8.13195 9.73457 8.13007C9.69832 8.1176 9.6648 8.09829 9.63582 8.0732C9.62848 8.06686 9.6214 8.0602 9.61457 8.0532C9.58724 8.02345 9.56635 7.98839 9.55319 7.9502C9.54982 7.94045 9.54769 7.93045 9.54532 7.92032C9.53711 7.88372 9.53583 7.8459 9.54157 7.80882C9.54269 7.8027 9.54282 7.79682 9.54407 7.7907C9.54532 7.78507 9.54882 7.7802 9.55032 7.77457C9.5642 7.72735 9.58999 7.68448 9.62519 7.65007C9.62944 7.64595 9.63194 7.64057 9.63644 7.6367L9.63769 7.63545L9.63694 7.6317L10.9333 6.47182ZM12.0868 6.88495C12.1282 7.00561 12.1642 7.12803 12.1948 7.2522C12.1642 7.12826 12.1282 7.00573 12.0868 6.88495ZM7.73382 7.72895H8.26657L8.59782 8.1432L8.47907 8.65982L8.00032 8.88982L7.52069 8.65882L7.40157 8.14232L7.73382 7.72895ZM9.44969 9.15332C9.47219 9.15207 9.49432 9.15432 9.51632 9.15832L9.51807 9.1587L9.52094 9.15495L11.2494 9.4472C11.2414 9.4697 11.2311 9.49107 11.2226 9.51345C11.1734 9.64214 11.1166 9.76782 11.0526 9.88982C11.0289 9.93516 11.0042 9.97991 10.9784 10.0241C10.9082 10.1439 10.8308 10.2594 10.7468 10.3701C10.7165 10.4101 10.6853 10.4493 10.6533 10.4877C10.564 10.5946 10.4684 10.6962 10.3671 10.7917C10.3307 10.8259 10.2936 10.8592 10.2556 10.8917C10.1506 10.982 10.0404 11.066 9.92557 11.1432C9.90557 11.1566 9.88682 11.1713 9.86669 11.1843L9.19607 9.56345L9.19794 9.5607L9.19744 9.55932C9.19494 9.5537 9.19419 9.54782 9.19207 9.5422C9.17949 9.50655 9.17376 9.46885 9.17519 9.43107C9.17569 9.42095 9.17594 9.41082 9.17744 9.40082C9.18363 9.36128 9.19784 9.32342 9.21919 9.28957C9.22482 9.28057 9.23144 9.27245 9.23794 9.26407C9.26151 9.23489 9.29034 9.21038 9.32294 9.19182C9.32832 9.18882 9.33282 9.18495 9.33832 9.18232C9.37444 9.16495 9.41219 9.15507 9.44969 9.15332ZM6.53594 9.16032L6.53757 9.16057C6.54132 9.16057 6.54507 9.16157 6.54907 9.16182C6.60437 9.16553 6.6575 9.18482 6.70232 9.21745C6.7109 9.22361 6.71907 9.2302 6.72682 9.2372C6.76798 9.27424 6.79784 9.32217 6.81294 9.37545C6.81394 9.3792 6.81569 9.38282 6.81669 9.3867C6.83044 9.44657 6.82482 9.5092 6.80044 9.56557L6.79982 9.56707L6.80482 9.57332L6.14107 11.1779C6.12169 11.1654 6.10357 11.1514 6.08469 11.1386C5.96982 11.0614 5.85962 10.9774 5.75469 10.8872C5.71685 10.8545 5.67972 10.8211 5.64332 10.7868C5.54279 10.6922 5.44796 10.5917 5.35932 10.4858C5.32682 10.4468 5.29515 10.4072 5.26432 10.3669C5.18198 10.2588 5.10602 10.1459 5.03682 10.0289C5.00958 9.98279 4.98345 9.93598 4.95844 9.88857C4.89529 9.76913 4.83912 9.64613 4.79019 9.5202C4.78144 9.49757 4.77094 9.4757 4.76269 9.45282L6.47607 9.16207L6.47894 9.16582L6.48069 9.1652C6.49902 9.16186 6.51736 9.16024 6.53594 9.16032ZM7.98969 9.86545C7.99694 9.8652 8.00394 9.86707 8.01119 9.86732C8.04342 9.86863 8.07519 9.87535 8.10519 9.8872C8.11194 9.88982 8.11919 9.89095 8.12569 9.8942V9.89445C8.18126 9.9207 8.22695 9.96407 8.25607 10.0182L8.25682 10.0197H8.26344L9.10807 11.5463C9.07357 11.5578 9.03844 11.5679 9.00357 11.5783C8.96228 11.5906 8.92077 11.6022 8.87907 11.6129C8.84369 11.6222 8.80857 11.6317 8.77282 11.6398C8.75732 11.6434 8.74157 11.6456 8.72582 11.6488C8.5537 11.6855 8.37902 11.709 8.20332 11.7189C8.16832 11.7209 8.13356 11.7233 8.09857 11.7243C7.91811 11.7292 7.73755 11.7199 7.55857 11.6964C7.52357 11.6919 7.48857 11.6858 7.45382 11.6802C7.28202 11.6525 7.11257 11.6117 6.94694 11.5583C6.93107 11.5532 6.91482 11.5493 6.89894 11.5439L7.74169 10.0204H7.74294L7.74382 10.0189C7.74707 10.0129 7.75194 10.0083 7.75557 10.0027C7.77557 9.97127 7.80126 9.94384 7.83132 9.92182C7.84157 9.91432 7.8524 9.90749 7.86382 9.90132C7.89688 9.88388 7.93292 9.87277 7.97007 9.86857C7.97682 9.86795 7.98294 9.8657 7.98969 9.86545ZM9.46082 12.3474C9.32707 12.3951 9.19132 12.4361 9.05357 12.4703C9.19123 12.436 9.32714 12.395 9.46082 12.3474Z" fill="white"/>
</g>
<defs>
<clipPath id="clip0_19971_63666">
<rect width="16" height="16" fill="white"/>
</clipPath>
</defs>
</svg>
