<svg width="16" height="16" viewBox="0 0 16 16" fill="none" xmlns="http://www.w3.org/2000/svg">
<path d="M15.2246 11.6375C14.3871 12.075 10.0496 13.85 9.12461 14.3375C8.19961 14.825 7.68711 14.8125 6.96211 14.4625C6.23711 14.1125 1.62461 12.2625 0.787109 11.8625C0.374609 11.6625 0.162109 11.5 0.162109 11.3375V9.75003C0.162109 9.75003 6.16211 8.43753 7.13711 8.10003C8.11211 7.75003 8.43711 7.73753 9.26211 8.03753C10.0871 8.33753 15.0246 9.22503 15.8371 9.52503V11.0875C15.8371 11.25 15.6496 11.425 15.2246 11.6375Z" fill="#A41E11"/>
<path d="M15.2248 10.0624C14.3873 10.4999 10.0498 12.2749 9.12483 12.7624C8.19983 13.2499 7.68733 13.2374 6.96233 12.8874C6.23733 12.5374 1.62483 10.6749 0.787333 10.2749C-0.037667 9.87488 -0.062667 9.59988 0.749833 9.28738C1.56233 8.96238 6.14983 7.16238 7.12483 6.82488C8.09983 6.47488 8.42483 6.46238 9.24983 6.76238C10.0748 7.06238 14.3873 8.77488 15.1998 9.07488C16.0373 9.37488 16.0623 9.62488 15.2248 10.0624Z" fill="#D82C20"/>
<path d="M15.2246 9.06238C14.3871 9.49988 10.0496 11.2749 9.12461 11.7624C8.19961 12.2374 7.68711 12.2374 6.96211 11.8874C6.23711 11.5374 1.62461 9.67488 0.787109 9.27488C0.374609 9.07488 0.162109 8.91238 0.162109 8.74988V7.16238C0.162109 7.16238 6.16211 5.84988 7.13711 5.51238C8.11211 5.16238 8.43711 5.14988 9.26211 5.44988C10.0871 5.74988 15.0246 6.63738 15.8371 6.93738V8.49988C15.8371 8.66238 15.6496 8.83738 15.2246 9.06238Z" fill="#A41E11"/>
<path d="M15.2255 7.47498C14.388 7.91248 10.0505 9.68748 9.12553 10.175C8.20053 10.65 7.68803 10.65 6.96303 10.3C6.23803 9.94998 1.62553 8.08748 0.788033 7.68748C-0.0494673 7.28748 -0.0619674 7.01248 0.750533 6.69998C1.56303 6.37498 6.15053 4.57498 7.12553 4.23748C8.10053 3.88748 8.42553 3.87498 9.25053 4.17498C10.0755 4.47498 14.388 6.18748 15.2005 6.48748C16.038 6.78748 16.063 7.03748 15.2255 7.47498Z" fill="#D82C20"/>
<path d="M15.2254 6.37508C14.3879 6.81258 10.0504 8.58758 9.12539 9.07508C8.20039 9.55008 7.68789 9.55008 6.96289 9.20008C6.23789 8.86258 1.62539 7.00008 0.787891 6.60008C0.375391 6.40008 0.150391 6.23758 0.150391 6.07508V4.48758C0.150391 4.48758 6.15039 3.17508 7.12539 2.83758C8.10039 2.48758 8.42539 2.47508 9.25039 2.77508C10.0754 3.07508 15.0129 3.96258 15.8254 4.26258V5.82508C15.8379 5.98758 15.6504 6.15008 15.2254 6.37508Z" fill="#A41E11"/>
<path d="M15.2255 4.78743C14.388 5.22493 10.0505 6.99993 9.12553 7.48743C8.20053 7.96243 7.68803 7.96243 6.96303 7.61243C6.23803 7.26243 1.62553 5.41243 0.788033 5.01243C-0.0494673 4.61243 -0.0619674 4.33743 0.750533 4.02493C1.56303 3.69993 6.15053 1.89993 7.12553 1.56243C8.10053 1.21243 8.42553 1.19993 9.25053 1.49993C10.0755 1.79993 14.388 3.51243 15.2005 3.81243C16.038 4.11243 16.063 4.36243 15.2255 4.78743Z" fill="#D82C20"/>
<path d="M10.0504 3.26255L8.70039 3.41255L8.38789 4.13755L7.90039 3.32505L6.33789 3.18755L7.50039 2.76255L7.15039 2.11255L8.25039 2.53755L9.27539 2.20005L9.00039 2.87505L10.0504 3.26255ZM8.31289 6.81255L5.77539 5.76255L9.41289 5.21255L8.31289 6.81255Z" fill="white"/>
<path d="M4.80078 5.17505C5.87083 5.17505 6.73828 4.83926 6.73828 4.42505C6.73828 4.01084 5.87083 3.67505 4.80078 3.67505C3.73073 3.67505 2.86328 4.01084 2.86328 4.42505C2.86328 4.83926 3.73073 5.17505 4.80078 5.17505Z" fill="white"/>
<path d="M11.6621 3.4624L13.8121 4.3124L11.6621 5.1624V3.4624Z" fill="#7A0C00"/>
<path d="M9.28711 4.4124L11.6621 3.4624V5.1624L11.4246 5.2624L9.28711 4.4124Z" fill="#AD2115"/>
</svg>
