<svg width="16" height="16" viewBox="0 0 16 16" fill="none" xmlns="http://www.w3.org/2000/svg">
<g clip-path="url(#clip0_19766_55587)">
<path d="M13.0966 10.7388C11.5581 12.7886 8.27169 12.0967 6.16469 12.1962C6.16469 12.1962 5.79169 12.2169 5.416 12.2788C5.416 12.2788 5.55806 12.2182 5.73925 12.1558C7.21913 11.644 7.91844 11.5412 8.81763 11.0793C10.5071 10.2138 12.1886 8.32869 12.5308 6.37031C11.8876 8.25381 9.93181 9.87488 8.15094 10.5331C6.93194 10.9829 4.72763 11.4207 4.72731 11.4209C4.72831 11.4224 4.63944 11.3748 4.63819 11.3737C3.13906 10.6443 3.09581 7.39744 5.81856 6.35081C7.01231 5.89162 8.15412 6.14388 9.44462 5.83669C10.821 5.50944 12.4151 4.47775 13.0631 3.12894C13.7894 5.28344 14.662 8.65419 13.0966 10.7388ZM13.1233 2.46131C12.9402 2.89644 12.7166 3.28856 12.459 3.63925C11.3248 2.47525 9.74175 1.75 7.99194 1.75C4.54994 1.75 1.75 4.55025 1.75 7.99162C1.75 9.79569 2.52 11.4227 3.74775 12.5632L3.88444 12.6843C3.65619 12.4982 3.62112 12.163 3.80612 11.9345C3.99225 11.7059 4.32775 11.6705 4.55613 11.8556C4.78513 12.0411 4.82 12.3772 4.63462 12.6061C4.44987 12.8351 4.11375 12.8696 3.88506 12.6849L3.97813 12.7673C5.06406 13.6816 6.464 14.2339 7.99194 14.2339C11.2819 14.2339 13.9835 11.6736 14.2148 8.44206C14.386 6.85981 13.9187 4.85069 13.1233 2.46131Z" fill="#5FB832"/>
</g>
<defs>
<clipPath id="clip0_19766_55587">
<rect width="16" height="16" fill="white"/>
</clipPath>
</defs>
</svg>
