<svg width="16" height="16" viewBox="0 0 16 16" fill="none" xmlns="http://www.w3.org/2000/svg">
<g clip-path="url(#clip0_19971_63654)">
<path d="M3.55563 0H12.4181C12.8494 0 13.2681 0.06875 13.6744 0.2125C14.2619 0.425 14.7931 0.8 15.1931 1.2875C15.5994 1.775 15.8681 2.375 15.9619 3C15.9994 3.23125 16.0056 3.4625 16.0056 3.69375V12.3375C16.0056 12.6125 15.9931 12.8938 15.9369 13.1625C15.8119 13.7812 15.5181 14.3625 15.0931 14.8313C14.6744 15.3 14.1244 15.65 13.5306 15.8375C13.1681 15.95 12.7931 16 12.4119 16C12.2431 16 3.53063 16 3.39938 15.9937C2.76188 15.9625 2.13063 15.7562 1.59938 15.4C1.08063 15.05 0.655626 14.5625 0.380626 14C0.143126 13.5188 0.0243758 12.9813 0.0243758 12.4438V3.55625C0.0118758 3.025 0.124376 2.5 0.355626 2.025C0.624376 1.4625 1.04313 0.96875 1.56188 0.61875C2.09313 0.25625 2.71813 0.04375 3.35563 0.0125C3.41813 0 3.48688 0 3.55563 0Z" fill="url(#paint0_linear_19971_63654)"/>
<path d="M13.5 13.0875C13.4438 13 13.3813 12.9125 13.3125 12.8313C13.1562 12.6438 12.975 12.4812 12.775 12.3438C12.525 12.175 12.2312 12.0687 11.9312 12.0562C11.7188 12.0437 11.5062 12.0813 11.3062 12.1562C11.1062 12.225 10.9125 12.325 10.725 12.425C10.5063 12.5375 10.2875 12.65 10.0562 12.7437C9.78125 12.8562 9.49375 12.9438 9.2 13.0063C8.83125 13.075 8.45625 13.1 8.0875 13.0938C7.41875 13.0813 6.75 12.9812 6.1125 12.7937C5.55 12.625 5.0125 12.3938 4.50625 12.1C4.0625 11.8438 3.65 11.55 3.2625 11.2188C2.94375 10.9438 2.65 10.65 2.375 10.3375C2.1875 10.1187 2.00625 9.8875 1.8375 9.65C1.76875 9.55625 1.70625 9.45625 1.65 9.35625L0 7.575V3.54375C0 1.5875 1.58125 0 3.5375 0H6.69375L9.03125 2.375C14.3062 5.9625 12.6 9.91875 12.6 9.91875C12.6 9.91875 14.1 11.6062 13.5 13.0875Z" fill="url(#paint1_linear_19971_63654)"/>
<path d="M9.04414 2.375C14.3191 5.9625 12.6129 9.91875 12.6129 9.91875C12.6129 9.91875 14.1129 11.6125 13.5066 13.0938C13.5066 13.0938 12.8879 12.0562 11.8504 12.0562C10.8504 12.0562 10.2629 13.0938 8.25039 13.0938C3.76914 13.0938 1.65039 9.35 1.65039 9.35C5.68789 12.0063 8.44414 10.125 8.44414 10.125C6.62539 9.06875 2.75664 4.01875 2.75664 4.01875C6.12539 6.8875 7.58164 7.64375 7.58164 7.64375C6.71289 6.925 4.27539 3.4125 4.27539 3.4125C6.22539 5.3875 10.1004 8.14375 10.1004 8.14375C11.2004 5.09375 9.04414 2.375 9.04414 2.375Z" fill="white"/>
</g>
<defs>
<linearGradient id="paint0_linear_19971_63654" x1="9.51756" y1="-0.570937" x2="6.49463" y2="16.5729" gradientUnits="userSpaceOnUse">
<stop stop-color="#FAAE42"/>
<stop offset="1" stop-color="#EF3E31"/>
</linearGradient>
<linearGradient id="paint1_linear_19971_63654" x1="8.16325" y1="0.2585" x2="5.95081" y2="12.8058" gradientUnits="userSpaceOnUse">
<stop stop-color="#E39F3A"/>
<stop offset="1" stop-color="#D33929"/>
</linearGradient>
<clipPath id="clip0_19971_63654">
<rect width="16" height="16" fill="white"/>
</clipPath>
</defs>
</svg>
