<svg width="24" height="24" viewBox="0 0 24 24" fill="none" xmlns="http://www.w3.org/2000/svg">
<path d="M2.3182 2.81975C2.70872 2.42922 3.34271 2.42922 3.73324 2.81975L7.37288 6.4594C7.42798 6.50332 7.47833 6.55426 7.52425 6.61076L17.9256 17.0121C17.9885 17.0608 18.0453 17.1183 18.0965 17.183L21.7332 20.8197C22.1234 21.2102 22.1234 21.8434 21.7332 22.2338C21.3427 22.6243 20.7087 22.6243 20.3182 22.2338L17.1629 19.0785C15.7182 19.9237 13.9965 20.5268 12.0252 20.5268C9.16385 20.5267 6.83087 19.2623 5.10238 17.8197C3.37613 16.379 2.19219 14.7124 1.59945 13.7739C1.47943 13.5838 1.3109 13.3333 1.22835 12.9731C1.16612 12.7012 1.16602 12.3513 1.22835 12.0795C1.31104 11.7191 1.48011 11.4682 1.60042 11.2778C2.2028 10.3242 3.42804 8.60381 5.22249 7.13811L2.3182 4.23381C1.92795 3.84334 1.92795 3.21022 2.3182 2.81975ZM6.64339 8.55901C5.00432 9.85308 3.85934 11.4478 3.29183 12.3461C3.25636 12.4023 3.23156 12.4418 3.21078 12.476C3.19683 12.499 3.18758 12.5148 3.18148 12.5258V12.5268C3.18747 12.5376 3.19588 12.5537 3.2098 12.5766C3.23046 12.6106 3.25551 12.6505 3.29085 12.7065C3.82355 13.5499 4.8777 15.0267 6.38363 16.2836C7.88747 17.5387 9.78208 18.5267 12.0252 18.5268C13.378 18.5268 14.6027 18.1679 15.6922 17.6078L14.0565 15.9721C13.4611 16.3236 12.7664 16.5268 12.0252 16.5268C9.81628 16.5266 8.02523 14.7358 8.02523 12.5268C8.02523 11.7855 8.22835 11.0909 8.57992 10.4955L6.64339 8.55901ZM12.0252 4.52678C14.8868 4.52678 17.2205 5.79114 18.9491 7.23381C20.6752 8.67449 21.8582 10.3411 22.451 11.2797C22.556 11.4459 22.6986 11.658 22.7879 11.9496L22.8231 12.0805L22.8582 12.2963C22.8816 12.5222 22.8699 12.7701 22.8231 12.974C22.7404 13.3346 22.5705 13.586 22.45 13.7768C22.1317 14.2806 21.6486 14.9851 21.0086 15.7494C20.6541 16.1728 20.0229 16.2289 19.5994 15.8744C19.176 15.5199 19.1209 14.8887 19.4754 14.4653C20.0465 13.7831 20.4773 13.1537 20.7586 12.7084C20.7942 12.6521 20.8198 12.6119 20.8407 12.5776C20.8549 12.554 20.8638 12.5378 20.87 12.5268V12.5258C20.864 12.515 20.8552 12.4994 20.8416 12.477C20.821 12.4429 20.7959 12.4031 20.7606 12.3471C20.2279 11.5037 19.1737 10.0269 17.6678 8.76994C16.1639 7.51474 14.2686 6.52678 12.0252 6.52678C11.6436 6.5268 11.2736 6.55579 10.9149 6.60881C10.3685 6.68959 9.85991 6.31141 9.77913 5.76506C9.69852 5.21884 10.0757 4.71109 10.6219 4.6303C11.0756 4.56322 11.5436 4.5268 12.0252 4.52678ZM3.18245 12.5512V12.5492L3.18148 12.5473C3.18159 12.549 3.18237 12.5502 3.18245 12.5512ZM10.0252 12.5268C10.0252 13.6312 10.9208 14.5266 12.0252 14.5268C12.2038 14.5268 12.3763 14.5002 12.5409 14.4565L10.0946 12.0102C10.0507 12.175 10.0252 12.3479 10.0252 12.5268Z" fill="#94A3B8"/>
</svg>
