<svg width="24" height="24" viewBox="0 0 24 24" fill="none" xmlns="http://www.w3.org/2000/svg">
<path d="M3 7H4.78C6.932 7 8.008 7 8.88 7.456C9.25228 7.6513 9.59144 7.90407 9.885 8.205C10.573 8.908 10.882 9.939 11.5 12C12.118 14.061 12.428 15.092 13.115 15.795C13.409 16.096 13.748 16.349 14.121 16.544C14.992 17 16.068 17 18.221 17H21M21 17L18 14M21 17L18 20" stroke="#00BB86"/>
<path fill-rule="evenodd" clip-rule="evenodd" d="M21.354 6.64648L18.354 3.64648L17.646 4.35448L19.793 6.50048H18.196C17.141 6.50048 16.316 6.50048 15.646 6.55948C14.964 6.61948 14.405 6.74348 13.889 7.01348C13.4461 7.24546 13.0449 7.54962 12.702 7.91348C12.828 8.16415 12.941 8.41548 13.041 8.66748L13.152 8.95848C13.245 8.81355 13.3522 8.67822 13.472 8.55448C13.7291 8.29125 14.0261 8.07021 14.352 7.89948C14.708 7.71348 15.122 7.60948 15.734 7.55548C16.354 7.50048 17.136 7.50048 18.22 7.50048H19.793L17.646 9.64648L18.354 10.3535L21.354 7.35348L21.707 7.00048L21.354 6.64648ZM10.298 16.0865C10.1261 15.7483 9.97585 15.3996 9.848 15.0425C9.75498 15.1874 9.64778 15.3227 9.528 15.4465C9.27092 15.7097 8.97394 15.9308 8.648 16.1015C8.292 16.2875 7.878 16.3915 7.266 16.4455C6.646 16.5005 5.865 16.5005 4.78 16.5005H3V17.5005H4.804C5.859 17.5005 6.684 17.5005 7.354 17.4415C8.036 17.3815 8.595 17.2575 9.111 16.9875C9.55392 16.7555 9.95508 16.4503 10.298 16.0865Z" fill="#00BB86"/>
</svg>
